<svg id="Layer_1" data-name="Layer 1" xmlns="http://www.w3.org/2000/svg" viewBox="0 0 312 48"><defs><style>.cls-1{fill:#231f20;}</style></defs><title>uzh_eth_logo_e_pos</title><g id="Ebene_2" data-name="Ebene 2"><path d="M54.79,40.05V38.26l4.36-7.12c.26-.41.51-.76.8-1.14H54.89V27.9h7.87v1.86l-4.62,7.29c-.18.29-.34.56-.55.85h5.17v2.15Zm15.47,0a9.14,9.14,0,0,1,.11-1.57h0a3.22,3.22,0,0,1-3,1.79c-2,0-2.66-1.3-2.66-2.85V31.13H67v5.73c0,.93.25,1.49,1.11,1.49,1.17,0,2.07-1.33,2.07-2.89V31.13h2.3v9Zm9.41-6.85q-2.48-.51-2.48,3.2v3.65H74.85v-9H77a12.16,12.16,0,0,1-.16,1.8h0a2.7,2.7,0,0,1,2.83-2ZM82.58,30A1.4,1.4,0,1,1,84,28.58,1.39,1.39,0,0,1,82.58,30h0ZM81.39,40.05v-9h2.3v9Zm8,.16c-2.48,0-4-1.29-4-4.32C85.38,33.11,86.83,31,90,31a6.76,6.76,0,0,1,1.84.26l-.23,2A4.57,4.57,0,0,0,90,32.88c-1.45,0-2.19,1.07-2.19,2.77,0,1.52.59,2.56,2.11,2.56a4.15,4.15,0,0,0,1.77-.35l.18,2a7.28,7.28,0,0,1-2.45.36Zm9.72-.16V34.34c0-.94-.26-1.48-1.1-1.48-1.16,0-2.08,1.32-2.08,2.89v4.3H93.65V27H96v3.82a8.57,8.57,0,0,1-.17,1.82h0a3.15,3.15,0,0,1,2.93-1.67c2,0,2.66,1.3,2.66,2.85v6.28Zm5.83-8.45c-1.46,0-1.81-.79-1.81-1.7v-3h1.06v3c0,.54.17.87.82.87s.82-.25.82-.93V26.9h1v2.78a1.71,1.71,0,0,1-1.48,1.92h-.41Zm2.82-.09v-.83l1.47-2.46a2.62,2.62,0,0,1,.24-.34h-1.66v-1h3v.86l-1.55,2.49c0,.09-.11.17-.17.26h1.75v1Zm6.73,0v-1.9h-1.67v1.9h-1.06V26.9h1.06v1.79h1.67V26.9h1.11v4.57ZM59.89,21.28c-3.83,0-4.69-2.08-4.69-4.4V9h2.33v7.77c0,1.52.5,2.6,2.51,2.6,1.8,0,2.56-.76,2.56-2.82V9h2.31v7.41C64.91,19.7,63.08,21.28,59.89,21.28Zm13-.2V15.37c0-.93-.26-1.49-1.1-1.49-1.17,0-2.08,1.33-2.08,2.89v4.31H67.41v-9h2.17a9.39,9.39,0,0,1-.13,1.59h0a3.25,3.25,0,0,1,3-1.8c2,0,2.65,1.29,2.65,2.85V21ZM78.8,11A1.4,1.4,0,1,1,80.24,9.6,1.43,1.43,0,0,1,78.8,11ZM77.71,21.08v-9H80v9Zm9.22,0H84.55l-3.3-9h2.52l1.41,4c.21.61.43,1.32.59,2h0a15.79,15.79,0,0,1,.54-1.9l1.43-4.1h2.44ZM98.43,17H92.9a2.16,2.16,0,0,0,1.79,2.47,2.09,2.09,0,0,0,.66,0A6.49,6.49,0,0,0,98,18.93l.21,1.77a8.71,8.71,0,0,1-3.19.58c-2.84,0-4.42-1.41-4.42-4.56C90.56,14,92.07,12,94.74,12s3.76,1.78,3.76,4A7.41,7.41,0,0,1,98.43,17Zm-3.78-3.34a1.8,1.8,0,0,0-1.75,1.77h3.29A1.52,1.52,0,0,0,95,13.67,1.67,1.67,0,0,0,94.65,13.65Zm10.52.58q-2.49-.52-2.49,3.2v3.65h-2.29v-9h2.23a13.69,13.69,0,0,1-.17,1.81h0a2.7,2.7,0,0,1,2.84-2Zm3.13,7a13,13,0,0,1-1.86-.16V19.22a8.89,8.89,0,0,0,1.92.27c.88,0,1.46-.36,1.46-1,0-1.58-3.61-.68-3.61-3.72,0-1.56,1.28-2.85,3.79-2.85a9.89,9.89,0,0,1,1.63.16V14a5.78,5.78,0,0,0-1.65-.24c-.9,0-1.33.36-1.33.92,0,1.45,3.66.8,3.66,3.69,0,1.75-1.55,2.94-4,2.94ZM115.4,11a1.4,1.4,0,1,1,.08-2.79,1.38,1.38,0,0,1,1.35,1.38,1.42,1.42,0,0,1-1.4,1.41Zm-1.15,10.07v-9h2.31v9Zm8.09.18c-2,0-2.6-.72-2.6-2.8V14h-1.52v-1.8h1.52V9.41L122,8.8v3.35h2.17V14H122v3.91c0,1.15.27,1.47,1.06,1.47a4.63,4.63,0,0,0,1.11-.14V21a8.12,8.12,0,0,1-1.84.22Zm8,.65c-1.06,2.78-2,3.62-4,3.62a5.3,5.3,0,0,1-1.26-.15l.14-2a4,4,0,0,0,1.23.2c.75,0,1.25-.34,1.72-1.67l.31-.86-3.29-9h2.55l1.2,3.42c.27.77.5,1.66.7,2.46h0c.19-.8.57-2,.86-2.84l1.08-3H134Zm11-.65c-2.53,0-4.16-1.31-4.16-4.49a4.47,4.47,0,0,1,4.14-4.8,2.26,2.26,0,0,1,.45,0c2.54,0,4.16,1.4,4.16,4.47a4.51,4.51,0,0,1-4.18,4.82h-.41Zm.23-7.34c-1,0-2,.78-2,2.62s.65,2.77,2,2.77c1.12,0,2-.92,2-2.73S143,14,141.62,14Zm11.61-4.06a3.85,3.85,0,0,0-1.12-.17c-1,0-1.45.53-1.45,1.72v.74h2.08V14h-2.08v7.14h-2.29V14h-1.56v-1.8h1.56v-.71c0-2.42,1.12-3.61,3.56-3.61a7,7,0,0,1,1.45.14Z"/><path d="M6.79,32.6l-.72.28c-.11.06-.15.11-.13.23a.33.33,0,0,0,0,.14v.07l-.06-.06a3.58,3.58,0,0,1-.21-.51c0-.11-.14-.29-.19-.42s0-.07,0-.08h0l.06.09c0,.09.12.09.25,0l.73-.31L7,31.87c.5-.21.67-.4.73-.63a.67.67,0,0,0-.39-.87,1.22,1.22,0,0,0-.93.16L6,30.79a7.84,7.84,0,0,0-.72.32c-.12.06-.16.11-.14.23a.5.5,0,0,0,0,.13v.07s0,0-.06-.06a1.51,1.51,0,0,1-.13-.4l-.18-.39c-.06-.13,0-.06,0-.07s0,0,.06.05v.08c.06.09.13.09.25.05l.73-.3.37-.16a1.37,1.37,0,0,1,1.17-.11,1.1,1.1,0,0,1,.55.59,1.2,1.2,0,0,1,.09.87,1.23,1.23,0,0,1-.78.7Zm-.13-3.81c.27-.07.35-.14.36-.22a.6.6,0,0,0,0-.19v-.07l.06.07a1.32,1.32,0,0,0,.09.46,1.22,1.22,0,0,0,.09.39c.09.19,0,.08,0,.09v-.05a1,1,0,0,0,0-.16c0-.09-.16-.08-.48,0l-2.16.45H4.44a.25.25,0,0,1,.08-.16c.08-.08.51-.74.92-1.38.2-.3.62-.91.66-1h0l-1.64.4c-.22.05-.28.1-.3.19a.67.67,0,0,0,0,.2v0c0-.09-.17-.43-.17-.5a.72.72,0,0,0-.09-.36c-.09-.18,0-.08,0-.09s.09,0,.09,0A.21.21,0,0,0,4,27c0,.09.13.1.33.06l2.31-.46h.12s0,.09-.06.14c-.15.28-.53.85-.82,1.3s-.68,1-.73,1.08h0ZM4.85,25.45l-.79.06c-.12,0-.18.06-.19.14a.33.33,0,0,0,0,.14v-1a.2.2,0,0,0,0,.11c0,.1.09.13.21.12H5.53c.26,0,.51-.08.77-.13.1,0,.16,0,.17-.16v.75c0-.08-.09-.1-.2-.1H5.46Zm-.8-1.66c-.2.07-.25.13-.29.26a.38.38,0,0,0,0,.15h0v-.64a3.53,3.53,0,0,1,0-.46v0a.17.17,0,0,0,0,.14.06.06,0,0,0,.08,0,.71.71,0,0,0,.28-.06l1.74-.53h0L4,21.77H3.92a.08.08,0,0,0-.08.05.33.33,0,0,0,0,.14v0a2.54,2.54,0,0,1,0-.39v-.37a.31.31,0,0,0,0,.19s.09.11.31.22l1,.52,1.1.57c.21.1.27.12.27.18s-.06.06-.24.12Zm1.06-3.3-.78-.16c-.12,0-.19,0-.24.11v.14s0,.06,0,.05,0,0,0-.08l.06-.3A.86.86,0,0,0,4.16,20c0-.1.18-.83.19-.9a.43.43,0,0,0,0-.16v0h.23l.24.07H4.76a.28.28,0,0,0-.13,0c-.07,0-.13,0-.19.22s-.11.44-.12.51h0l.92.2h0s.11-.5.12-.59a1,1,0,0,0,0-.18v-.07h0l.26.08.36.16s.07,0,.06.05h-.2c-.08,0-.14,0-.19.17s-.1.43-.12.51h0l.29.06.57.13c.25,0,.31,0,.39-.37a.69.69,0,0,0,0-.35c0-.1-.09-.17-.23-.22s0,0,0,0,0,0,.07,0l.39.13c.09.05.08.08,0,.22s-.11.47-.15.62-.07.27-.09.38v.46a.29.29,0,0,0,0-.13c0-.08-.08-.11-.17-.15s-.44-.11-.78-.18Zm.69-2.68c-.53-.21-.63-.25-.74-.28a.25.25,0,0,0-.26.07l-.06.13v0a2.37,2.37,0,0,1,.2-.46l.18-.5a1.13,1.13,0,0,1,.4-.58.64.64,0,0,1,.57-.06,1,1,0,0,1,.59.77c.51-.16.91-.29,1.21-.41a.73.73,0,0,0,.39-.3.41.41,0,0,0,.05-.09h0v.08l-.13.33a.64.64,0,0,1-.21.35,1.94,1.94,0,0,1-.7.28c-.24.06-.54.13-.61.16v0l-.11.29h0c.32.12.59.23.74.27s.2,0,.25-.06a.89.89,0,0,0,.08-.17h0v.08c-.08.21-.19.46-.21.51l-.15.43c0,.14,0,.07-.06.06s0,0,0-.07a.29.29,0,0,0,0-.13c0-.07-.06-.12-.16-.17L6.34,18Zm.44-.31a0,0,0,0,0,.07,0,1,1,0,0,0,.14-.24.42.42,0,0,0,0-.27A.7.7,0,0,0,6,16.58a.58.58,0,0,0-.8.22.16.16,0,0,0,0,.07.6.6,0,0,0-.06.19v.05Zm2.19-1.56H8.28a3.54,3.54,0,0,1-.41-.26s-.08-.06-.07-.08,0,0,.08,0l.18.06a.51.51,0,0,0,.59-.28.43.43,0,0,0-.09-.61l0,0a.79.79,0,0,0-.7,0l-.2.08a1.05,1.05,0,0,1-1,0,.74.74,0,0,1-.23-1,.1.1,0,0,1,0-.05,1.41,1.41,0,0,1,.29-.4h.07l.38.24a.07.07,0,0,1,.08.09s0,0-.08,0a.39.39,0,0,0-.26,0,.45.45,0,0,0-.35.26.39.39,0,0,0,.08.56l0,0c.15.08.31.07.67-.08l.12-.05a1.09,1.09,0,0,1,1.13-.06.74.74,0,0,1,.37.58,1.15,1.15,0,0,1-.16.6A1.12,1.12,0,0,1,8.43,15.94Zm-.09-3.08L7.7,12.4c-.11-.07-.18-.07-.25,0l-.09.1s0,.05-.06,0,0,0,0-.09.23-.3.29-.39l.26-.36c.08-.11,0-.06.07-.05s0,0,0,.07a.21.21,0,0,0-.06.1A.25.25,0,0,0,8,12l.64.47.53.39c.28.21.52.39.66.47s.16.07.24,0l.12-.15h.06c.06,0,0,0,0,.08l-.36.46-.26.39s-.06.06-.08,0,0,0,0-.07a.24.24,0,0,0,.1-.1.21.21,0,0,0-.09-.2,6.12,6.12,0,0,0-.64-.5Zm.92-2.5-.37.41c-.14.16-.19.24-.17.34l0,.13a.09.09,0,0,1,0,.07H8.7c-.07,0-.23-.35-.25-.35s0-.07,0-.08a.26.26,0,0,0,.15-.09l.27-.26,1-1.08A1,1,0,0,0,10,9.26V9.18h.08c.08,0,.24.23.31.3s0,0,0,.06,0,0-.08,0h0c-.07-.06-.22-.06-.45.18l-.33.34,1.11,1a7.57,7.57,0,0,0,.6.53c.08.07.15.11.24,0l.14-.13h.07c.07,0,0,0,0,.07l-.41.42-.31.34h-.08s0,0,0-.06a.44.44,0,0,0,.08-.11.27.27,0,0,0-.07-.21c-.07-.08-.32-.32-.57-.56Zm2.82-.4h0l.17.55a1.36,1.36,0,0,0,.1.21s.1.07.19,0h.07c.07,0,0,0,0,.07s-.23.16-.32.24l-.33.28c-.16.12-.06,0-.07,0s0,0,0-.06l.09-.07c.11-.13.09-.27,0-.47L11.25,8.3V8.12s.06,0,.14,0S13,9,13.54,9.33c.32.17.44.14.51.11l.14-.09h.05s0,0-.11.13a4.05,4.05,0,0,1-.56.44c-.05,0-.09.07-.1,0s0,0,0-.05a.07.07,0,0,0,0-.09l-.73-.44h0Zm.48-.63h0l-.82-.51h0l.3.92h0Zm2,0c-.07,0-.09,0-.13-.06s-.21-.38-.23-.43a.2.2,0,0,1,0-.11s.05,0,.06,0a.57.57,0,0,0,.13.14.5.5,0,0,0,.64.05.45.45,0,0,0,.22-.6v0A.74.74,0,0,0,14.57,8h-.21c-.52-.07-.78-.22-.93-.48a.75.75,0,0,1,.37-1h0a1.46,1.46,0,0,1,.46-.2h.07s.07.14.22.38V6.8h-.07a.43.43,0,0,0-.21-.15.49.49,0,0,0-.44,0,.39.39,0,0,0-.21.52l0,0c.09.15.23.22.62.26h.13c.55.07.82.21,1,.51a.75.75,0,0,1,0,.74,1.21,1.21,0,0,1-.43.44,1.76,1.76,0,0,1-.45.12ZM34,6.56l-.49-.27c-.18-.1-.27-.13-.36-.09L33,6.28h-.06c-.06,0,0,0,0-.07s.27-.3.29-.33.06,0,.07,0A.18.18,0,0,0,33.4,6l.31.21L35,7a1,1,0,0,0,.23.11h.1v.08l-.23.37s0,0-.06,0,0,0,0-.09h0c0-.09,0-.23-.28-.4l-.4-.25-.77,1.32a6.8,6.8,0,0,0-.38.7c0,.1-.07.18,0,.25l.15.11v.06c0,.06,0,0-.07,0L32.88,9a2.29,2.29,0,0,1-.41-.23c-.13-.07-.06-.05,0-.07s0,0,.07,0l.13.06c.07,0,.13,0,.19-.13s.29-.44.42-.67Zm1.68,2.12c.37-.43.43-.51.51-.61s.09-.16,0-.26l-.1-.11V7.64c0-.06,0,0,.09,0s.32.29.4.36l.36.29s.06.06,0,.08,0,0-.07,0l-.09-.07a.29.29,0,0,0-.24.08A6.76,6.76,0,0,0,36,9l-.34.39c-.36.41-.42.66-.38.89a.76.76,0,0,0,.77.6c.29,0,.51-.27.77-.56l.3-.36.51-.6a.19.19,0,0,0,0-.26h0L37.56,9V8.9c0-.07,0,0,.08,0l.32.29.33.26s.05.06,0,.08,0,0-.08,0l-.09-.06a.32.32,0,0,0-.24.07l-.52.6-.26.3a1.42,1.42,0,0,1-1,.62,1.09,1.09,0,0,1-.75-.3,1.17,1.17,0,0,1-.46-.74,1.2,1.2,0,0,1,.39-1Zm2.83,2.66.6-.5c.1-.09.12-.15.07-.26l-.08-.12v-.07h.08l.31.41.34.4a1.11,1.11,0,0,1,.31.64.67.67,0,0,1-.24.51,1.05,1.05,0,0,1-1,.14c-.12.52-.21.93-.25,1.25a.67.67,0,0,0,.06.48.41.41,0,0,0,0,.09m0,.06h-.06l-.22-.27a.76.76,0,0,1-.2-.36,1.71,1.71,0,0,1,.11-.74c.07-.25.16-.54.17-.62s0,0,0-.06l-.2-.26h0l-.62.52c-.07.08-.12.15-.06.24l.1.16h-.07c-.07,0-.3-.39-.34-.43s-.2-.23-.29-.35,0-.06,0-.08,0,0,.06,0l.1.09h.22c.22-.15.43-.31.64-.48Zm-.25-2.5v.07a1.14,1.14,0,0,0,.15.23c.09.12.13.15.21.17a.65.65,0,0,0,.58-.18.58.58,0,0,0,.21-.8.21.21,0,0,0,0-.06.4.4,0,0,0-.14-.15h-.06Zm1.92,2.19.68-.41c.11-.07.14-.13.12-.21l-.06-.12v-.08s0,0,.07.07a2.82,2.82,0,0,1,.23.42l.24.39v.08s0,0-.07,0a.15.15,0,0,0-.06-.09c-.07-.08-.14-.07-.25,0l-.68.39-.57.33c-.31.18-.57.33-.7.43s-.12.11-.08.22l.08.17v.07l-.07-.05-.29-.5c0-.08-.17-.28-.25-.4s0-.08,0-.09h0a.53.53,0,0,0,.09.11c0,.05.11,0,.21,0a3.63,3.63,0,0,0,.71-.39Zm-.28,2.37a1.38,1.38,0,0,1,.85-.85,1.4,1.4,0,0,1,1.1,0,1.62,1.62,0,0,1,.82.94,2.78,2.78,0,0,1,.17.51,1.2,1.2,0,0,0,.08.36c0,.11,0,.06,0,.07l-.19.06-.38.14h-.1s0-.05.07-.07a.55.55,0,0,0,.26-.26,1.13,1.13,0,0,0-.08-.79,1,1,0,0,0-.48-.56,1.26,1.26,0,0,0-1,.06,1.24,1.24,0,0,0-.78,1.58h0c.13.31.24.48.46.56a.61.61,0,0,0,.27,0h.09s0,.05,0,.06a4.85,4.85,0,0,1-.49.11.12.12,0,0,1-.14,0,2.13,2.13,0,0,1-.33-.59,1.81,1.81,0,0,1-.16-1.33Zm2.46,2.79c.55-.12.65-.14.77-.18s.17-.07.17-.2v-.21l.05.07.06.29a1,1,0,0,0,.05.24c0,.11.19.83.2.9l.06.15v.06h0a1,1,0,0,0-.24,0h-.25v-.05a.21.21,0,0,0,.12-.05c.06,0,.1-.09.08-.26a4.4,4.4,0,0,0-.1-.52h0l-.93.21h0s.11.49.14.57a.26.26,0,0,0,.09.17H42.3a.29.29,0,0,0,.13,0c.06,0,.11-.09.09-.23s-.08-.42-.1-.51h0l-.28.07-.57.13c-.24.06-.28.13-.21.49a1.7,1.7,0,0,0,.12.34.31.31,0,0,0,.31.1l.05.12h-.06a1.41,1.41,0,0,1-.41,0c-.09,0-.1,0-.13-.17s-.1-.48-.13-.63,0-.27-.08-.38a1.17,1.17,0,0,0-.05-.2l-.06-.25v0c0,.06,0,.09,0,.13a.32.32,0,0,0,.22.06c.11,0,.44-.09.77-.16Zm-.69,3.19c-.29,0-.39.07-.41.14V22c0,.1.14.11.47.1h2.33a.92.92,0,0,1-.11.14c-.06.06-.63.63-1.15,1.2-.24.26-.77.78-.82.85h0l1.65-.08c.22,0,.29-.05.33-.14a.67.67,0,0,0,0-.2v.88a.24.24,0,0,0,0-.12c0-.1-.12-.13-.31-.12H41.38a.22.22,0,0,1,.08-.13c.21-.25.68-.74,1.06-1.15s.84-.84.91-.91h0Zm-.5,3.43c0-.06,0-.07.13-.06l.48.09c.06,0,.1,0,.09.06s0,0-.06,0h-.18a.55.55,0,0,0-.45.48.46.46,0,0,0,.34.56h0a.77.77,0,0,0,.65-.28l.15-.15a1.13,1.13,0,0,1,1-.42c.41.05.64.44.57.95a2.09,2.09,0,0,1-.13.49h0a3.73,3.73,0,0,0-.44-.08h0a.57.57,0,0,0,.25-.06A.52.52,0,0,0,44,27a.41.41,0,0,0-.28-.49h0c-.17,0-.32.05-.59.32L43,27c-.4.4-.68.52-1,.47a.75.75,0,0,1-.59-.44,1.05,1.05,0,0,1-.06-.61,1.25,1.25,0,0,1,.13-.53ZM42.49,29l.77.21c.12,0,.19,0,.24-.07s0-.08,0-.12,0-.06,0-.05,0,0,0,.1l-.14.46a2.35,2.35,0,0,1-.11.44c0,.13,0,.08,0,.07s0,0,0-.07v-.11c0-.05,0-.15-.17-.19l-.76-.22-.48-.18c-.35-.1-.63-.18-.79-.21s-.17,0-.21.09a1.34,1.34,0,0,0-.07.18h0v-.08l.17-.55a3.9,3.9,0,0,1,.12-.46v0a.33.33,0,0,0,0,.14c0,.07,0,.11.15.15l.77.24ZM40.3,30.32c0-.05.07-.05.15,0s.39.18.44.21.08,0,.07.08,0,0-.07,0H40.7a.5.5,0,0,0-.56.33.47.47,0,0,0,.18.63h0a.73.73,0,0,0,.7-.1l.19-.1a1.09,1.09,0,0,1,1-.16.76.76,0,0,1,.34,1l0,.05a2,2,0,0,1-.26.44H42.2a3.71,3.71,0,0,1-.41-.2c-.07,0-.09,0-.08-.08s0,0,.07,0a.5.5,0,0,0,.6-.3.39.39,0,0,0-.13-.53l0,0c-.16-.07-.31,0-.65.15l-.11.06a1.12,1.12,0,0,1-1.11.19.76.76,0,0,1-.46-.58,1.16,1.16,0,0,1,.1-.61,1.09,1.09,0,0,1,.38-.47ZM13.74,41.61h-.11c-.06,0-.07,0-.09-.18l-.19-1.24s0-.08-.07-.08,0,0-.07.06l-.55,1.11-.54-1.1a.08.08,0,0,0-.08-.07s0,0,0,.07l-.21,1.31c0,.07,0,.14-.07.14h.36v-.09l.09-.74c.07.15.18.36.19.4l.24.45a.13.13,0,0,0,.1.11s0,0,.1-.13l.43-.85.11.82v.07h0l.08,0h.5A1.26,1.26,0,0,0,13.74,41.61Zm1.7-1.24a1.11,1.11,0,0,0-.84-.23H14c.06,0,.07,0,.08.09v1.2c0,.08,0,.09,0,.1h.67a1,1,0,0,0,.72-.24.83.83,0,0,0,.23-.57A.7.7,0,0,0,15.44,40.37Zm-.13.59a.55.55,0,0,1-.62.61.27.27,0,0,1-.25-.08.28.28,0,0,1,0-.13v-1h.12a.85.85,0,0,1,.57.19A.61.61,0,0,1,15.31,41Zm2,.32v0c0,.05,0,.09-.07.13s-.17.1-.36.1a.66.66,0,0,1-.63-.69.63.63,0,0,1,.18-.51.5.5,0,0,1,.39-.11.61.61,0,0,1,.39.11.37.37,0,0,1,.08.18v0a.81.81,0,0,1,0-.22.21.21,0,0,1,0-.11m-.05,0h-.52a1,1,0,0,0-.67.21.76.76,0,0,0-.25.57.73.73,0,0,0,.27.6,1.33,1.33,0,0,0,1.11.18.08.08,0,0,0,.07-.07v-.27a.07.07,0,0,0,.09-.05.07.07,0,0,0-.05-.09ZM19,41.28v0a.54.54,0,0,1-.07.13c-.08.08-.17.1-.36.1a.72.72,0,0,1-.45-1.2.5.5,0,0,1,.39-.11.6.6,0,0,1,.39.11.29.29,0,0,1,.07.18v.06s.05,0,.05-.07a.81.81,0,0,1,0-.22.21.21,0,0,1,0-.11m-.05,0h-.52a1,1,0,0,0-.67.21.8.8,0,0,0,0,1.17,1,1,0,0,0,.73.23,1,1,0,0,0,.39-.05.07.07,0,0,0,.06-.07,1.08,1.08,0,0,0,.05-.27.07.07,0,0,0,0-.1.08.08,0,0,0-.11,0h0Zm1.7,1.08,0,0a.26.26,0,0,1-.06.13.43.43,0,0,1-.36.1.67.67,0,0,1-.63-.69.61.61,0,0,1,.19-.51.46.46,0,0,1,.37-.11.61.61,0,0,1,.4.11.24.24,0,0,1,.07.18v.06l.05-.07v-.22a.21.21,0,0,0,0-.11h-.52a1,1,0,0,0-.67.21.77.77,0,0,0-.25.57.74.74,0,0,0,.27.6,1.33,1.33,0,0,0,1.11.18.07.07,0,0,0,.06-.07,1.86,1.86,0,0,0,.05-.27.07.07,0,0,0,.05-.09.07.07,0,0,0-.1,0h0Zm8.06.33h-.07a.19.19,0,0,1-.11-.07c-.05-.06-.38-.57-.46-.7l.34-.46c.07-.09.11-.14.14-.15h.08a0,0,0,0,0,.05,0h-.55a0,0,0,0,0,.05,0h.06a.09.09,0,0,1,0,.07l-.26.4-.24-.42h-.49a.43.43,0,0,1,.16.14l.36.57-.4.53c-.08.1-.11.13-.16.14h-.07m-.05,0h.56a.08.08,0,0,1,0-.07l.29-.44.31.51h0v.05h.6a1.12,1.12,0,0,0-.16-.1Zm3.4,0h-.07a.12.12,0,0,1-.11-.07,8.17,8.17,0,0,0-.46-.7l.34-.46c.06-.09.1-.14.14-.15H30v.07l-.27.4-.25-.42H29a.28.28,0,0,1,.16.14l.37.57-.41.53c-.07.1-.1.13-.15.14h.43v-.07l.3-.44.31.51h0a0,0,0,0,0,0,.05h.59Zm1.77,0h-.08a.14.14,0,0,1-.1-.07,8.17,8.17,0,0,0-.46-.7l.34-.46c.06-.09.1-.14.14-.15h-.33v.07l-.27.4-.25-.42h-.54a.28.28,0,0,1,.16.14l.36.57-.4.53c-.07.1-.1.13-.16.14h.47s.05,0,.06,0h-.05v-.07l.3-.44.31.51h0a0,0,0,0,0,0,.05h.6Zm1.08,0h-.09c-.06,0-.06,0-.07-.08s0-.24,0-.43v-.79c0-.07,0-.08.07-.09h-.5s.06,0,.06.09a3.08,3.08,0,0,1,0,.43v.78c0,.08,0,.08-.05.09h.58Zm1.27,0h-.1c-.06,0-.06,0-.07-.08s0-.24,0-.43v-.36a3.08,3.08,0,0,1,0-.43c0-.07,0-.08.06-.09H34s.06,0,.06.09a3.08,3.08,0,0,1,0,.43v.87H34m0,0h0Zm2,0h-.11s-.06,0-.07-.08,0-.24,0-.43v-.36a3.08,3.08,0,0,1,0-.43c0-.07,0-.08.06-.09h-.49s0,0,0,.09a3.08,3.08,0,0,1,0,.43v.78c0,.08,0,.08,0,.09h.61ZM23.32,31.88V30.67a.4.4,0,1,0-.8-.12.24.24,0,0,0,0,.12v1.21Zm2.16,0V30.67a.38.38,0,0,0-.39-.39.39.39,0,0,0-.4.39h0v1.21ZM24,8.05a.42.42,0,0,0-.42.42h0a.42.42,0,0,0,.42.42h0a.42.42,0,0,0,.42-.42h0a.41.41,0,0,0-.4-.42Zm-.21,11.73h.42v-.91h-.42Zm-4,23a.42.42,0,0,0-.44.42.43.43,0,1,0,.85,0v0a.41.41,0,0,0-.41-.42h0Zm-.26-23V18.45a.66.66,0,0,0-.39-.63.63.63,0,0,0-.38.63V19.8Zm0-4.31v-.86a.65.65,0,0,0-.39-.64.64.64,0,0,0-.38.64v.86Zm-.18,9V23.32a.22.22,0,0,0-.21-.21.21.21,0,0,0-.21.21v1.13Zm0,3.38V26.7a.21.21,0,0,0-.21-.21.22.22,0,0,0-.21.21v1.13Zm.13,3.77v-1a.34.34,0,0,0-.34-.34h0a.34.34,0,0,0-.34.34h0v1ZM19.12,3.4a.42.42,0,1,0,.43.42.42.42,0,0,0-.42-.42ZM29.27,19.8V18.45a.67.67,0,0,0-.39-.63.66.66,0,0,0-.39.63V19.8Zm0-4.31v-.86a.66.66,0,0,0-.38-.68.65.65,0,0,0-.39.64v.86Zm-.19,9V23.32a.21.21,0,0,0-.19-.21.2.2,0,0,0-.2.2h0v1.13Zm0,3.38V26.7a.21.21,0,0,0-.16-.25.22.22,0,0,0-.25.16v1.22Zm.13,3.77v-1a.34.34,0,0,0-.68,0v1ZM28.89,3.4a.42.42,0,1,0,.42.42.42.42,0,0,0-.42-.42ZM0,24A24,24,0,0,1,24,0h0A24,24,0,0,1,48,24h0A24,24,0,0,1,24,48h0A24,24,0,0,1,0,24ZM7.45,7.45A23.25,23.25,0,0,0,.6,24h0A23.33,23.33,0,0,0,7.45,40.56h0A23.35,23.35,0,0,0,24,47.41h0a23.38,23.38,0,0,0,16.56-6.85h0A23.38,23.38,0,0,0,47.41,24h0A23.35,23.35,0,0,0,40.56,7.45h0A23.34,23.34,0,0,0,24,.59h0A23.3,23.3,0,0,0,7.45,7.45ZM24.39,39.08h.19v-.34h-.46v.75h.27ZM24,1.56A22.44,22.44,0,1,0,46.44,24h0A22.44,22.44,0,0,0,24,1.56ZM21.52,43h-1v.34h1v2.52a21.93,21.93,0,0,1-13.1-6.32A21.11,21.11,0,0,1,7,38a1.15,1.15,0,0,1,2.29.19v1.1h1.5V38.23a1.16,1.16,0,1,1,2.31,0v1.1h1.46V38.24a1.16,1.16,0,1,1,2.31,0v1.1h1.45V38.25a1.16,1.16,0,1,1,2.31,0v1.1h.92ZM25.69,46c-.55,0-1.12.07-1.69.07A15.72,15.72,0,0,1,22.31,46l-.39-2.6h.48l-.41-1a.45.45,0,0,1,.19-.63.4.4,0,0,1,.5.26.13.13,0,0,1,0,.06l.22.78h.31v.51h0v.1H22.5v.39h1.06V43.4h1.25v-.56h.31l.21-.79a.4.4,0,0,1,.46-.33h.06c.22.09.32.3.19.63a1.55,1.55,0,0,1-.16.4l-.28.69h-.77v.39h1L26,43.4h.1ZM23.3,38.54h1.4c.06.13.19.45.27.64s.13.27,0,.41a.3.3,0,0,1-.34.14h0a.69.69,0,0,1-1.3,0h0a.3.3,0,0,1-.34-.14c-.09-.14,0-.28,0-.41Zm-.21-1.45.45.64.46-.87.45.87.45-.64-.18,1.11H23.27Zm.54,3.14a.76.76,0,0,0,.71.5.78.78,0,0,0,.74-.58,1,1,0,0,1,.65.26,1.16,1.16,0,0,1,.32.63H21.92a1.11,1.11,0,0,1,.33-.63A1.45,1.45,0,0,1,23.63,40.23Zm1.69,1.14a1.35,1.35,0,0,1-1.32,1,1.38,1.38,0,0,1-1.32-1Zm14.26-1.8a22,22,0,0,1-13.09,6.32V43.37h.93a29.93,29.93,0,0,0,3-.15,23.09,23.09,0,0,0-3-.19h-.93V39.32H27.6V38.23a1.16,1.16,0,1,1,2.31,0v1.1h1.45V38.24a1.16,1.16,0,1,1,2.31,0v1.1h1.46V38.25a1.16,1.16,0,1,1,2.31,0v1.1h1.41V38.26A1.16,1.16,0,0,1,40,37.06h.08a1.15,1.15,0,0,1,1.09.78A23.19,23.19,0,0,1,39.58,39.57Zm1.8-2a1.59,1.59,0,0,0-3,.69v.51h-.58v-.51a1.6,1.6,0,1,0-3.19,0v.51h-.58v-.51a1.6,1.6,0,1,0-3.19,0v.51h-.57v-.51a1.6,1.6,0,1,0-3.19,0v.51h-.6a2.48,2.48,0,0,0-4.9,0h-.68v-.51a1.6,1.6,0,1,0-3.19,0v.51h-.57v-.51a1.6,1.6,0,1,0-3.19,0h0v.51h-.58v-.51a1.6,1.6,0,1,0-3.19,0v.51H9.63v-.51A1.59,1.59,0,0,0,8,36.75a1.56,1.56,0,0,0-1.32.82A17.29,17.29,0,0,1,5.55,36h37c-.35.48-.73,1-1.12,1.51Zm1.46-2.2H5.14c-.12-.18-.22-.36-.33-.55H43.19ZM20.2,7.06v.18a.38.38,0,0,1,0,.15,1.74,1.74,0,0,1-.27.38c0,.07-.11.18-.18.33a3.76,3.76,0,0,0-.25-.31l-.23-.25a.59.59,0,0,1-.16-.3h0a.64.64,0,0,1-.17.3c-.07.09-.16.18-.22.25a1.54,1.54,0,0,0-.25.32c-.08-.16-.16-.27-.2-.34a2.82,2.82,0,0,1-.21-.38.6.6,0,0,1,0-.19V7.06ZM18,6.72a2.39,2.39,0,0,1,.36-1.16A2.25,2.25,0,0,1,18.93,5h.19l.16.09a2.6,2.6,0,0,1,.56.54,2.19,2.19,0,0,1,.35,1.16ZM20.27,8a1.27,1.27,0,0,1,.2.36,1.68,1.68,0,0,1,.12.63v2.48h-.66V9a1.73,1.73,0,0,1,.12-.64A3.13,3.13,0,0,1,20.27,8Zm-.66,1v2.47h-1V9a1.42,1.42,0,0,1,.13-.61A1,1,0,0,1,19.13,8h0a1.07,1.07,0,0,1,.34.39A1.6,1.6,0,0,1,19.61,9Zm-1.44-.65a1.54,1.54,0,0,1,.11.64v2.48h-.64V9a2.2,2.2,0,0,1,.12-.63c.07-.15.14-.27.19-.36a1.46,1.46,0,0,1,.22.33Zm2.91,3.53v.79H17.16v-.79Zm0,1.13v3.13h-.95V14.69a1.47,1.47,0,0,0-1-1.46h0a1.43,1.43,0,0,0-.54.33,1.56,1.56,0,0,0-.46,1.13V16.1h-1V13ZM19.8,14.7v1.41H18.45V14.69a1.12,1.12,0,0,1,.67-1.09,1.13,1.13,0,0,1,.68,1.09Zm1.28,1.75v4h-.87v-2a1.56,1.56,0,0,0-.46-1.14A1.58,1.58,0,0,0,19.2,17h-.14a1.41,1.41,0,0,0-.56.34A1.61,1.61,0,0,0,18,18.44v2h-.87v-4Zm-1.2,2v2H18.37v-2a1.25,1.25,0,0,1,.37-.91,1.14,1.14,0,0,1,.38-.23h0a1.25,1.25,0,0,1,.38.23,1.29,1.29,0,0,1,.37.91Zm1.2,2.32v4.73H17.16V20.76Zm0,5.07v3.06H17.16V25.83Zm0,3.44v5.22H17.16V29.27Zm3.46-12.79v1.45L24,17.39l-.54.54V16.48Zm-1.06-.41.39-1.69L24,11.56l.09,2.82.4,1.69ZM24,17.93l2.5,2.49h-5Zm2.5,2.84v1.91h-5V20.76Zm0,2.5V25.5H24.91v-.59a.94.94,0,0,0-1.87,0v.55H21.49v-2.2Zm-3.43,2.57v2h1.84v-2H26.5v3.05h-5V25.83Zm3.43,3.44V34.5h-5V29.27ZM30,7.06v.33a2.82,2.82,0,0,1-.21.38c0,.07-.11.18-.19.33a2.42,2.42,0,0,0-.25-.31l-.23-.25a.67.67,0,0,1-.16-.3h0a.59.59,0,0,1-.16.3l-.23.25a2,2,0,0,0-.25.32c-.08-.16-.15-.27-.19-.34a2.32,2.32,0,0,1-.21-.38.6.6,0,0,1,0-.19V7.06ZM27.8,6.72a2.28,2.28,0,0,1,.35-1.16A2.8,2.8,0,0,1,28.71,5h.18l.17.09a2.35,2.35,0,0,1,.55.54A2.29,2.29,0,0,1,30,6.77ZM30,8a3,3,0,0,1,.19.36,1.68,1.68,0,0,1,.12.63v2.48h-.64V9a1.91,1.91,0,0,1,.18-.66A2.07,2.07,0,0,1,30,8Zm-.68,1v2.47h-1V9a1.43,1.43,0,0,1,.14-.61A1,1,0,0,1,28.89,8h0a1,1,0,0,1,.34.39A1.18,1.18,0,0,1,29.36,9ZM27.9,8.31A2,2,0,0,1,28,9v2.48h-.63V9a2.2,2.2,0,0,1,.12-.63,1.58,1.58,0,0,1,.2-.36Q27.8,8.13,27.9,8.31Zm3,3.53v.79h-4v-.79Zm0,1.11v3.13h-1V14.69a1.56,1.56,0,0,0-.46-1.13,1.43,1.43,0,0,0-.54-.33h0a1.47,1.47,0,0,0-1,1.46V16.1h-1V13Zm-1.29,1.72v1.41H28.2V14.69a1.14,1.14,0,0,1,.68-1.09,1.12,1.12,0,0,1,.67,1.09Zm1.29,1.77v4H30v-2a1.61,1.61,0,0,0-.47-1.14A1.58,1.58,0,0,0,29,17h-.17a1.41,1.41,0,0,0-.56.34,1.56,1.56,0,0,0-.46,1.14v2h-.9v-4Zm-1.21,2v2H28.12v-2a1.13,1.13,0,0,1,.76-1.14h0a1.29,1.29,0,0,1,.39.23,1.25,1.25,0,0,1,.36.91Zm1.21,2.33v4.73h-4V20.76Zm0,5.07v3.06h-4V25.83Zm0,3.44v5.22h-4V29.27Zm.6,5.22V11.43H31V8.89A1.77,1.77,0,0,0,30.79,8a1.26,1.26,0,0,0-.13-.26V6.86a3.07,3.07,0,0,0-.3-1.26,2.75,2.75,0,0,0-1.26-1l-.21-.1v0h-.07a2.24,2.24,0,0,0-1,.81,2.81,2.81,0,0,0-.45,1.56v.9c0,.09-.13.21-.22.4A2.3,2.3,0,0,0,27,9v2.45h-.5v8.42l-1.36-1.37V16.08l-.46-1.55L24,9.21h0l-.5,5.1L23,16.08v2.23l-1.34,1.35V11.43h-.5V8.89A1.89,1.89,0,0,0,21,8a2.15,2.15,0,0,0-.14-.26V6.86a2.92,2.92,0,0,0-.3-1.26,2.69,2.69,0,0,0-1.26-1l-.12,0h-.12a2.2,2.2,0,0,0-1,.81,2.89,2.89,0,0,0-.45,1.56v.9a3.11,3.11,0,0,0-.22.4,2,2,0,0,0-.14.81v2.45h-.5v23H4.63a22,22,0,1,1,38.75,0Z"/></g><rect x="165.39" y="8.94" width="0.3" height="31.09"/><path class="cls-1" d="M256.7,27.2c-.75,3.67-3.59,3.86-4.16,3.86A2.3,2.3,0,0,1,250,29a2.14,2.14,0,0,1,0-.44,8.2,8.2,0,0,1,.14-1.31l1.77-8.77H249.8l-1.79,9v.13a6.88,6.88,0,0,0-.15,1.28,3.77,3.77,0,0,0,3.5,4,4,4,0,0,0,.49,0A5.34,5.34,0,0,0,256,31.23l-.27,1.49h2l2.83-14.24h-2.16Z"/><path class="cls-1" d="M270.86,18.29a4.87,4.87,0,0,0-3.92,1.81l.32-1.6h-2.05l-2.83,14.24h2.08L266.19,24a4.48,4.48,0,0,1,4.1-3.87,2.38,2.38,0,0,1,2,1h0L274,19.66h0A3.86,3.86,0,0,0,270.86,18.29Z"/><polygon class="cls-1" points="236.5 20.28 236.49 20.31 243.59 20.31 234.15 30.98 234.14 30.99 233.78 32.74 243.86 32.74 244.21 30.89 236.68 30.89 246.16 20.21 246.16 20.21 246.52 18.47 236.86 18.47 236.5 20.28"/><polygon class="cls-1" points="274.25 32.71 274.24 32.74 276.32 32.74 279.15 18.47 277.11 18.47 274.25 32.71"/><path class="cls-1" d="M302.43,18.3a5.26,5.26,0,0,0-4.07,1.6l1.61-8h-2.09l-4.17,20.78h2.07L297.51,24c.75-3.69,3.62-3.87,4.19-3.87a2.3,2.3,0,0,1,2.52,2.06,2,2,0,0,1,0,.43,8.2,8.2,0,0,1-.14,1.31l-1.76,8.8h2.07l1.82-9a6.85,6.85,0,0,0,.15-1.42,3.77,3.77,0,0,0-3.52-4A3,3,0,0,0,302.43,18.3Z"/><path class="cls-1" d="M288.65,18.29c-3.77,0-6.42,2.66-7.27,7.29a12.49,12.49,0,0,0-.19,2.2c0,3.16,1.92,5.13,5,5.13a6.62,6.62,0,0,0,4.74-2h0l-1.21-1.46h0a4.37,4.37,0,0,1-3.4,1.63c-1.48,0-3.06-.87-3.06-3.34a10.85,10.85,0,0,1,.23-2.13,8.14,8.14,0,0,1,1.84-4.07,4.21,4.21,0,0,1,3.12-1.38,3,3,0,0,1,2.77,1.57h0l1.52-1.29h0A4.66,4.66,0,0,0,288.65,18.29Z"/><polygon class="cls-1" points="277.89 14.55 279.97 14.55 280.49 11.96 278.41 11.96 277.89 14.55"/><polygon class="cls-1" points="257.67 14.55 259.76 14.55 260.27 11.96 258.2 11.96 257.67 14.55"/><polygon class="cls-1" points="252.13 14.55 254.22 14.55 254.74 11.96 252.66 11.96 252.13 14.55"/><polygon class="cls-1" points="224.37 20 219.7 20 221.34 11.96 181.59 11.96 177.41 32.74 193.26 32.74 194.3 27.55 184.95 27.55 185.51 24.69 194.87 24.69 195.81 20 186.45 20 187.02 17.15 201.84 17.15 198.72 32.74 205.21 32.74 208.34 17.15 213.8 17.15 210.67 32.74 217.17 32.74 218.77 24.69 223.44 24.69 221.84 32.74 228.33 32.74 232.51 11.96 226.01 11.96 224.37 20"/></svg>