<svg id="Layer_1" data-name="Layer 1" xmlns="http://www.w3.org/2000/svg" viewBox="0 0 102.25 54.47"><defs><style>.cls-1{fill:#00aeef;}.cls-2{fill:#5091cd;}.cls-3{fill:#5fba46;}.cls-4{fill:#d19f2a;}.cls-5{fill:#c22033;}.cls-6{fill:#2d9a47;}.cls-7{fill:#48773c;}.cls-8{fill:#fdb714;}.cls-9{fill:#ef412a;}.cls-10{fill:#f99d25;}.cls-11{fill:#007dbb;}.cls-12{fill:#8f1838;}.cls-13{fill:#00add8;}.cls-14{fill:#f36e24;}.cls-15{fill:#eb1c2d;}.cls-16{fill:#e01a83;}.cls-17{fill:#1a3668;}.cls-18{fill:#cd8b2a;}.cls-19{fill:#00558a;}</style></defs><title>sdg-logo</title><path class="cls-1" d="M.46,16.06H4.07c3.24,0,5.34,2.24,5.34,5.52v.14c0,3.28-2.1,5.53-5.34,5.53H.46Zm2.31,2.1v7H4.05c1.76,0,3-1.23,3-3.45v-.08c0-2.23-1.2-3.47-3-3.47Z"/><path class="cls-1" d="M10.64,16.06h7.21v2.1H12.94v2.41h4.32v2.1H12.94v2.49h5v2.09H10.64Z"/><path class="cls-1" d="M18.3,16.06h2.51l2.36,7.71,2.37-7.71H28L24.21,27.32H22.07Z"/><path class="cls-1" d="M28.78,16.06H36v2.1H31.09v2.41H35.4v2.1H31.09v2.49h5v2.09H28.78Z"/><path class="cls-1" d="M37.29,16.06h2.32v9.07h4.52v2.12H37.29Z"/><path class="cls-1" d="M44.12,21.77v-.19c0-3.36,2.11-5.71,5.06-5.71s5.06,2.33,5.06,5.68v.19c0,3.34-2.11,5.71-5.07,5.71S44.12,25.11,44.12,21.77Zm7.72-.05v-.11c0-2.21-1.12-3.6-2.67-3.6s-2.67,1.38-2.67,3.58v.12c0,2.2,1.13,3.59,2.68,3.59S51.84,23.93,51.84,21.72Z"/><path class="cls-1" d="M55.48,16.06h3.73c2.51,0,4.09,1.46,4.09,3.84v0c0,2.58-1.84,3.87-4.19,3.92H57.8v3.4H55.48Zm3.62,5.71A1.71,1.71,0,0,0,61,20v0a1.67,1.67,0,0,0-1.91-1.8H57.8v3.61Z"/><path class="cls-1" d="M64.23,16.06h2.43l2.49,4.54,2.47-4.54h2.44V27.25H71.79V20.11l-2.64,4.62h0l-2.63-4.59v7.11H64.23Z"/><path class="cls-1" d="M75.71,16.06h7.21v2.1H78v2.41h4.32v2.1H78v2.49h5v2.09H75.71Z"/><path class="cls-1" d="M84.21,16.06h2.13l4.28,6.53V16.06h2.27V27.25h-2l-4.43-6.76v6.76H84.21Z"/><path class="cls-1" d="M96.68,18.2H93.87V16.06h7.93V18.2H99v9.05h-2.3Z"/><path class="cls-1" d="M0,10.78,1.51,8.91a4.68,4.68,0,0,0,3.05,1.38c1,0,1.58-.49,1.58-1.21h0c0-.62-.35-1-2.11-1.67C1.86,6.56.51,5.73.51,3.63v0C.51,1.46,2.16,0,4.52,0a5.85,5.85,0,0,1,4,1.51L7.07,3.44A4.33,4.33,0,0,0,4.45,2.3C3.58,2.3,3,2.74,3,3.37H3c0,.71.42,1,2.34,1.83C7.5,6.05,8.66,7,8.66,8.87v0c0,2.28-1.73,3.68-4.12,3.68A6.56,6.56,0,0,1,0,10.78Z"/><path class="cls-1" d="M9.73,7.66V.16h2.54V7.68c0,1.74.83,2.6,2.14,2.6s2.14-.85,2.14-2.55V.16h2.53V7.61c0,3.38-1.86,5-4.7,5S9.73,11,9.73,7.66Z"/><path class="cls-1" d="M19.83,10.78l1.51-1.87a4.68,4.68,0,0,0,3.05,1.38c1,0,1.58-.49,1.58-1.21h0c0-.62-.35-1-2.11-1.67-2.17-.84-3.52-1.67-3.52-3.77v0C20.34,1.46,22,0,24.35,0a5.85,5.85,0,0,1,4,1.51L26.9,3.44A4.31,4.31,0,0,0,24.28,2.3c-.87,0-1.42.44-1.42,1.07h0c0,.71.42,1,2.34,1.83,2.13.84,3.29,1.75,3.29,3.66v0c0,2.28-1.73,3.68-4.12,3.68A6.56,6.56,0,0,1,19.83,10.78Z"/><path class="cls-1" d="M31.81,2.51H28.72V.16h8.7V2.51H34.33v9.92H31.81Z"/><path class="cls-1" d="M40.69.09h2.42l4.41,12.34H44.89L44,9.77H39.75l-.9,2.66H36.29ZM43.2,7.52l-1.33-4-1.35,4Z"/><path class="cls-1" d="M48.48.16H51V12.43H48.48Z"/><path class="cls-1" d="M52.91.16h2.34L60,7.31V.16h2.49V12.43H60.26L55.4,5v7.42H52.91Z"/><path class="cls-1" d="M67.71.09h2.42l4.4,12.34H71.9L71,9.77H66.77l-.9,2.66H63.31Zm2.51,7.43-1.33-4-1.35,4Z"/><path class="cls-1" d="M75.41.16H80a4.49,4.49,0,0,1,3.21,1.07A2.83,2.83,0,0,1,84,3.31v.06a2.88,2.88,0,0,1-1.66,2.68A2.92,2.92,0,0,1,84.53,9v.09c0,2.21-1.77,3.36-4.44,3.36H75.41Zm6.08,3.61c0-.89-.63-1.37-1.71-1.37h-1.9V5.17h1.77c1.13,0,1.84-.45,1.84-1.38ZM80.11,7.31H77.88v2.88h2.28C81.3,10.19,82,9.7,82,8.75v0C82,7.86,81.37,7.31,80.11,7.31Z"/><path class="cls-1" d="M85.72.16h2.54V10.1h5v2.33h-7.5Z"/><path class="cls-1" d="M94.28.16h7.9V2.45H96.8V5.1h4.74V7.4H96.8v2.74h5.45v2.29h-8Z"/><g id="_Group_" data-name="&lt;Group&gt;"><path id="_Compound_Path_" data-name="&lt;Compound Path&gt;" class="cls-2" d="M12.56,41.37H23.41c-.19,8.72-5,13.1-11.48,13.1C5,54.47.48,48.59.48,42.27S5,30.08,11.93,30.08c7.72,0,9.85,4.81,10.73,7.31l-4.91.32c-.85-2.07-2.54-3.44-5.82-3.44-3.69,0-6.57,3-6.57,8,0,4.22,2.66,8,6.88,8a5.79,5.79,0,0,0,5.94-4.91H12.56Z"/><path id="_Compound_Path_2" data-name="&lt;Compound Path&gt;" class="cls-2" d="M69.77,30.58h4.68V49.67h9V54H69.77Z"/><path id="_Compound_Path_3" data-name="&lt;Compound Path&gt;" class="cls-2" d="M96.59,36.75c0-1.62-1.56-2.62-3.43-2.62-2.34,0-3.74,1-3.74,2.59s1.56,2.4,2.71,2.78l4.31,1.37c3.12,1,5.33,2.81,5.33,6.43,0,2.87-2.06,7.17-8.55,7.17-8.14,0-8.88-5.27-8.88-7.36L89,47c0,2.49,2,3.46,4.24,3.46,1.6,0,3.84-.78,3.84-2.59,0-1.25-.53-1.9-2.84-2.75L89.14,43.3a6.35,6.35,0,0,1-4.4-5.86c0-3,2.06-7.3,8.14-7.3,7.24,0,8.39,4.81,8.39,6.52Z"/><g id="_Group_2" data-name="&lt;Group&gt;"><path id="_Path_" data-name="&lt;Path&gt;" class="cls-3" d="M30.88,39.39a6.44,6.44,0,0,1,1-1.33l-3.4-3.73a11.2,11.2,0,0,0-2.16,2.81Z"/><path id="_Path_2" data-name="&lt;Path&gt;" class="cls-4" d="M39.22,36.75a6.39,6.39,0,0,1,1.43.9l3.41-3.73A11.77,11.77,0,0,0,41,32Z"/><path id="_Path_3" data-name="&lt;Path&gt;" class="cls-5" d="M47,37.88l-4.52,2.25a7,7,0,0,1,.45,1.6l5-.48a11.57,11.57,0,0,0-1-3.37"/><path id="_Path_4" data-name="&lt;Path&gt;" class="cls-6" d="M42.19,39.48l4.52-2.26a11.58,11.58,0,0,0-2.11-2.8l-3.41,3.72a6.59,6.59,0,0,1,1,1.34"/><path id="_Path_5" data-name="&lt;Path&gt;" class="cls-7" d="M30,42.69v-.3l-5-.46c0,.25,0,.51,0,.76a11.79,11.79,0,0,0,.34,2.8l4.86-1.4a6.46,6.46,0,0,1-.15-1.4"/><path id="_Path_6" data-name="&lt;Path&gt;" class="cls-8" d="M41.56,46.82A6.44,6.44,0,0,1,40.33,48L43,52.28a11.71,11.71,0,0,0,2.6-2.42Z"/><path id="_Path_7" data-name="&lt;Path&gt;" class="cls-9" d="M43,42.69a6.37,6.37,0,0,1-.15,1.39l4.86,1.39a11.57,11.57,0,0,0,.34-2.78c0-.24,0-.48,0-.71l-5,.47a1.93,1.93,0,0,1,0,.24"/><path id="_Path_8" data-name="&lt;Path&gt;" class="cls-10" d="M31.55,46.92l-4,3.06a11.87,11.87,0,0,0,2.62,2.38l2.66-4.3a6.5,6.5,0,0,1-1.26-1.14"/><path id="_Path_9" data-name="&lt;Path&gt;" class="cls-11" d="M30.07,41.66A6.32,6.32,0,0,1,30.55,40L26,37.79a11.55,11.55,0,0,0-1,3.42Z"/><path id="_Path_10" data-name="&lt;Path&gt;" class="cls-12" d="M42.37,52.67l-2.65-4.3a6.16,6.16,0,0,1-1.55.63l.93,5a11.53,11.53,0,0,0,3.27-1.3"/><path id="_Path_11" data-name="&lt;Path&gt;" class="cls-13" d="M42.69,44.78a6.34,6.34,0,0,1-.7,1.46l4,3a11.34,11.34,0,0,0,1.53-3.1Z"/><path id="_Path_12" data-name="&lt;Path&gt;" class="cls-14" d="M37.45,49.15a7.16,7.16,0,0,1-.94.07,6.47,6.47,0,0,1-.76,0l-.93,5a11.8,11.8,0,0,0,1.69.12,11.63,11.63,0,0,0,1.88-.15Z"/><path id="_Path_13" data-name="&lt;Path&gt;" class="cls-15" d="M36.93,36.18a6.13,6.13,0,0,1,1.61.31l1.82-4.72a11.79,11.79,0,0,0-3.43-.65Z"/><path id="_Path_14" data-name="&lt;Path&gt;" class="cls-16" d="M35,49.05a6.87,6.87,0,0,1-1.6-.61l-2.66,4.3A11.66,11.66,0,0,0,34.1,54Z"/><path id="_Path_15" data-name="&lt;Path&gt;" class="cls-17" d="M34.55,36.47a6.5,6.5,0,0,1,1.65-.3V31.12a11.52,11.52,0,0,0-3.48.63Z"/><path id="_Path_16" data-name="&lt;Path&gt;" class="cls-18" d="M31.11,46.34a6.17,6.17,0,0,1-.77-1.54l-4.86,1.39a11.62,11.62,0,0,0,1.6,3.21Z"/><path id="_Path_17" data-name="&lt;Path&gt;" class="cls-19" d="M32.47,37.57a6.88,6.88,0,0,1,1.4-.85L32,32a11.83,11.83,0,0,0-3,1.83Z"/></g><g id="_Group_3" data-name="&lt;Group&gt;"><path id="_Compound_Path_4" data-name="&lt;Compound Path&gt;" class="cls-2" d="M62.1,49.06H53.41l-1.55,5H46.74L55.4,30.25h5L68.93,54H63.71ZM57.8,36h-.06l-3,9.24h6.11Z"/></g></g></svg>