<svg width="652" height="220" xmlns="http://www.w3.org/2000/svg">

 <g>
  <title>Layer 1</title>
  <path id="svg_1" d="m233.2,170.9l0,-7l17.1,-27.8c1,-1.6 2,-3 3.1,-4.5c-1.7,0.1 -3.9,0.1 -8.6,0.1l-11,0l0,-8.2l30.6,0l0,7.3l-18.1,28.5c-0.7,1.1 -1.3,2.2 -2.2,3.3c1.2,-0.1 4.4,-0.1 10.3,-0.1l10.3,0l0,8.4l-31.5,0zm60.5,0c0,-1.6 0.1,-4.4 0.4,-6.2l-0.1,-0.1c-2.1,4.1 -6.1,7 -11.9,7c-7.9,0 -10.4,-5.1 -10.4,-11.2l0,-24.4l8.9,0l0,22.3c0,3.7 1,5.8 4.4,5.8c4.6,0 8.1,-5.2 8.1,-11.3l0,-16.8l9,0l0,34.9l-8.4,0zm36.8,-26.8c-6.5,-1.3 -9.7,2.9 -9.7,12.6l0,14.3l-9,0l0,-35l8.5,0c0,1.8 -0.2,4.6 -0.6,7l0.1,0c1.7,-4.4 5.1,-8.3 11.1,-7.8l-0.4,8.9zm11.4,-12.6c-3.1,0 -5.6,-2.5 -5.6,-5.5c0,-2.9 2.5,-5.4 5.6,-5.4s5.6,2.4 5.6,5.4c0.1,3 -2.5,5.5 -5.6,5.5zm-4.5,39.4l0,-34.9l9,0l0,34.9l-9,0zm31.3,0.6c-9.7,0 -15.7,-5.1 -15.7,-16.9c0,-10.9 5.7,-19.2 18.1,-19.2c2.4,0 4.9,0.4 7.2,1l-0.9,7.8c-1.9,-0.7 -4.1,-1.3 -6.3,-1.3c-5.7,0 -8.6,4.2 -8.6,10.8c0,6 2.3,10 8.3,10c2.4,0 5,-0.5 6.9,-1.5l0.7,7.7c-2.5,0.9 -5.9,1.6 -9.7,1.6zm38,-0.6l0,-22.3c0,-3.7 -1,-5.8 -4.3,-5.8c-4.6,0 -8.1,5.2 -8.1,11.3l0,16.9l-9,0l0,-51.3l9,0l0,15c0,2.1 -0.1,5.1 -0.6,7.1l0.1,0.1c2,-3.9 6,-6.5 11.5,-6.5c7.9,0 10.4,5.1 10.4,11.2l0,24.5c0,-0.2 -9,-0.2 -9,-0.2zm22.9,-33.1c-5.7,0 -7.1,-3.1 -7.1,-6.7l0,-11.6l4.1,0l0,11.3c0,2.1 0.7,3.4 3.2,3.4c2.3,0 3.2,-1 3.2,-3.7l0,-11.1l4.1,0l0,10.9c0.1,5.2 -2.8,7.5 -7.5,7.5zm11,-0.3l0,-3.2l5.7,-9.6c0.3,-0.5 0.6,-0.9 1,-1.4c-0.5,0 -1.1,0.1 -2.8,0.1l-3.7,0l0,-3.7l11.6,0l0,3.4l-6.1,9.8c-0.2,0.3 -0.4,0.6 -0.7,1c0.3,-0.1 1.3,-0.1 3.5,-0.1l3.4,0l0,3.8l-11.9,-0.1l0,0zm26.3,0l0,-7.5l-6.5,0l0,7.4l-4.1,0l0,-17.9l4.1,0l0,6.9l6.5,0l0,-6.9l4.1,0l0,17.9l-4.1,0l0,0.1zm-213.6,-40.1c-15,0 -18.3,-8.1 -18.3,-17.2l0,-31l9.1,0l0,30.4c0,6 2,10.2 9.8,10.2c7,0 10,-3 10,-11l0,-29.6l9.1,0l0,29c-0.1,13.1 -7.2,19.2 -19.7,19.2zm50.8,-0.7l0,-22.3c0,-3.7 -1,-5.8 -4.3,-5.8c-4.6,0 -8.1,5.2 -8.1,11.3l0,16.9l-9,0l0,-34.9l8.5,0c0,1.6 -0.1,4.4 -0.5,6.2l0.1,0.1c2.1,-4.1 6.2,-7 11.9,-7c7.9,0 10.4,5.1 10.4,11.2l0,24.5l-9,0l0,-0.2zm23.2,-39.4c-3.1,0 -5.5,-2.5 -5.5,-5.5c0,-3 2.5,-5.4 5.5,-5.4c3.1,0 5.6,2.4 5.6,5.4c0,3 -2.5,5.5 -5.6,5.5zm-4.5,39.4l0,-34.9l9,0l0,34.9l-9,0zm36.1,0l-9.1,0l-12.9,-34.9l9.8,0l5.5,15.7c0.8,2.4 1.7,5.2 2.3,7.7l0.1,0c0.6,-2.4 1.3,-5.1 2.1,-7.4l5.6,-16l9.6,0l-13,34.9zm45.2,-16.1l-21.6,0c-0.1,6.5 3.2,9.7 9.6,9.7c3.4,0 7.2,-0.8 10.2,-2.2l0.8,7c-3.7,1.5 -8.2,2.2 -12.5,2.2c-11.1,0 -17.3,-5.6 -17.3,-17.8c0,-10.7 5.9,-18.6 16.4,-18.6c10.2,0 14.7,7 14.7,15.6c0,1.3 -0.1,2.7 -0.3,4.1zm-14.7,-13c-3.7,0 -6.3,2.7 -6.8,7l12.9,0c0.1,-4.4 -2.3,-7 -6.1,-7zm41.2,2.2c-6.5,-1.3 -9.7,2.9 -9.7,12.6l0,14.3l-9,0l0,-34.9l8.5,0c0,1.8 -0.2,4.6 -0.6,7l0.1,0c1.7,-4.4 5.1,-8.3 11.1,-7.8l-0.4,8.8zm12.3,27.6c-2.5,0 -5.1,-0.3 -7.3,-0.6l0.2,-7.4c2.2,0.6 4.8,1.1 7.5,1.1c3.4,0 5.7,-1.4 5.7,-3.7c0,-6.2 -14.1,-2.7 -14.1,-14.5c0,-6.1 5,-11.2 14.8,-11.2c2,0 4.3,0.3 6.4,0.6l-0.3,7.1c-2,-0.6 -4.3,-0.9 -6.5,-0.9c-3.5,0 -5.2,1.4 -5.2,3.6c0,5.7 14.3,3.2 14.3,14.5c0.1,6.7 -6,11.4 -15.5,11.4zm27.7,-40.1c-3.1,0 -5.6,-2.5 -5.6,-5.5c0,-3 2.5,-5.4 5.6,-5.4s5.6,2.4 5.6,5.4c0,3 -2.5,5.5 -5.6,5.5zm-4.5,39.4l0,-34.9l9,0l0,34.9l-9,0zm31.7,0.7c-7.7,0 -10.2,-2.8 -10.2,-11l0,-17.7l-6,0l0,-7l6,0l0,-10.7l9,-2.4l0,13.1l8.5,0l0,7l-8.5,0l0,15.3c0,4.5 1.1,5.8 4.1,5.8c1.5,0 3.1,-0.2 4.4,-0.6l0,7.2c-2.2,0.6 -4.9,1 -7.3,1zm31.2,2.5c-4.1,10.9 -7.8,14.2 -15.8,14.2c-1.5,0 -3.4,-0.2 -4.9,-0.6l0.6,-7.7c1.6,0.5 3.1,0.8 4.8,0.8c3,0 4.9,-1.3 6.7,-6.5l1.2,-3.4l-12.9,-34.9l10,0l4.7,13.3c1.1,3 2,6.5 2.7,9.6l0.1,0c0.8,-3.2 2.2,-7.8 3.4,-11.1l4.1,-11.9l9.6,0l-14.3,38.2zm43.2,-2.5c-9.9,0 -16.3,-5.1 -16.3,-17.6c0,-10.9 7.2,-18.8 17.8,-18.8c9.9,0 16.3,5.5 16.3,17.5c0,11 -7.3,18.9 -17.8,18.9zm0.9,-28.8c-4,0 -7.9,3.1 -7.9,10.3s2.6,10.8 7.8,10.8c4.4,0 7.8,-3.6 7.8,-10.7c-0.1,-6.7 -2.4,-10.4 -7.7,-10.4zm45.2,-15.8c-1.4,-0.5 -3,-0.6 -4.4,-0.6c-3.9,0 -5.7,2 -5.7,6.7l0,3l8.1,0l0,7l-8.1,0l0,28l-8.9,0l0,-28l-6.1,0l0,-7l6.1,0l0,-2.8c0,-9.5 4.4,-14.1 13.9,-14.1c1.9,0 3.9,0.1 5.7,0.6l-0.6,7.2z"/>
  <path id="svg_2" d="m45.5,141.7c-2,0.9 -2.4,1 -2.8,1.2c-0.4,0.2 -0.6,0.4 -0.5,0.9c0,0.1 0.1,0.4 0.2,0.5c0.1,0.1 0.1,0.2 0,0.3c-0.1,0 -0.2,0 -0.2,-0.2c-0.3,-0.7 -0.6,-1.6 -0.8,-2c-0.1,-0.3 -0.5,-1.1 -0.7,-1.6c-0.1,-0.2 -0.1,-0.3 0,-0.3c0.1,0 0.2,0 0.2,0.2c0.1,0.1 0.1,0.2 0.2,0.4c0.2,0.3 0.5,0.3 1,0.2c0.4,-0.2 0.8,-0.3 2.9,-1.2l1.9,-0.8c1.9,-0.8 2.6,-1.6 2.8,-2.5c0.2,-0.8 0,-1.5 -0.2,-1.9c-0.2,-0.6 -0.7,-1.2 -1.5,-1.5c-1.1,-0.4 -2.3,0.1 -3.7,0.6l-1.7,0.7c-2,0.9 -2.4,1 -2.8,1.2c-0.4,0.2 -0.6,0.4 -0.5,0.9c0,0.1 0.1,0.4 0.2,0.5c0.1,0.1 0.1,0.2 0,0.3c-0.1,0 -0.2,0 -0.2,-0.2c-0.3,-0.7 -0.6,-1.5 -0.6,-1.5c-0.1,-0.2 -0.5,-1 -0.7,-1.5c-0.1,-0.2 -0.1,-0.3 0,-0.3c0.1,0 0.2,0 0.2,0.2c0.1,0.1 0.1,0.2 0.2,0.4c0.2,0.3 0.5,0.3 1,0.2c0.4,-0.2 0.8,-0.3 2.8,-1.2l1.4,-0.6c1.5,-0.6 3.1,-1.2 4.6,-0.5c1.2,0.6 1.8,1.5 2.2,2.4c0.3,0.7 0.8,2 0.4,3.4c-0.3,0.9 -1.1,1.9 -3,2.7l-2.3,0.6zm-0.5,-14.9c1.1,-0.3 1.4,-0.5 1.5,-0.8c0,-0.3 0,-0.5 -0.1,-0.8c0,-0.2 0,-0.2 0.1,-0.3c0.1,0 0.2,0.1 0.2,0.3c0.2,0.9 0.3,1.5 0.3,1.8c0,0.1 0.2,0.8 0.4,1.5c0,0.2 0.1,0.3 -0.1,0.3c-0.1,0 -0.1,-0.1 -0.2,-0.2c0,-0.2 -0.1,-0.4 -0.2,-0.6c-0.2,-0.3 -0.6,-0.3 -1.9,-0.1l-8.5,1.7c-0.3,0.1 -0.5,0.1 -0.5,-0.1c0,-0.2 0.1,-0.3 0.3,-0.6c0.1,-0.2 2,-2.9 3.6,-5.4c0.8,-1.2 2.4,-3.6 2.6,-3.8l0,-0.1l-6.4,1.5c-0.9,0.2 -1.1,0.4 -1.2,0.8c0,0.2 0,0.6 0.1,0.8c0,0.2 0,0.2 -0.1,0.2c-0.1,0 -0.2,-0.1 -0.2,-0.3c-0.2,-0.7 -0.3,-1.4 -0.3,-1.7c0,-0.2 -0.2,-0.7 -0.4,-1.4c0,-0.2 -0.1,-0.3 0.1,-0.4c0.1,0 0.1,0.1 0.2,0.2c0,0.1 0.1,0.3 0.1,0.4c0.2,0.4 0.5,0.4 1.3,0.3l9,-1.8c0.3,-0.1 0.5,0 0.5,0.1c0,0.2 -0.1,0.4 -0.2,0.6c-0.7,1.1 -2.1,3.3 -3.3,5.1c-1.2,1.9 -2.6,3.9 -2.8,4.2l0,0l6.1,-1.4zm-7.1,-13c-2.2,0.1 -2.6,0.2 -3.1,0.2c-0.5,0.1 -0.7,0.2 -0.8,0.5c0,0.2 0,0.4 0,0.5c0,0.1 0,0.2 -0.1,0.2c-0.1,0 -0.1,-0.1 -0.1,-0.3c0,-0.6 -0.1,-1.5 -0.1,-1.9c0,-0.4 -0.1,-1.2 -0.2,-1.8c0,-0.2 0,-0.3 0.1,-0.3c0.1,0 0.2,0.1 0.2,0.2c0,0.1 0,0.3 0.1,0.4c0.1,0.4 0.4,0.5 0.9,0.5c0.5,0 0.9,0 3.1,-0.2l2.6,-0.2c1.4,-0.1 2.6,-0.2 3.2,-0.3c0.4,-0.1 0.6,-0.2 0.7,-0.6c0,-0.2 0,-0.5 0,-0.7c0,-0.2 0,-0.2 0.1,-0.2c0.1,0 0.2,0.1 0.2,0.3c0.1,1 0.1,1.9 0.1,2.3c0,0.3 0.1,1.2 0.2,1.8c0,0.2 0,0.3 -0.1,0.3c-0.1,0 -0.1,-0.1 -0.1,-0.2c0,-0.2 -0.1,-0.4 -0.1,-0.5c-0.1,-0.3 -0.3,-0.4 -0.8,-0.4c-0.6,0 -1.8,0 -3.2,0.1l-2.8,0.3zm-3.1,-6.5c-0.8,0.3 -1,0.5 -1.2,1c-0.1,0.2 -0.1,0.4 -0.1,0.6c0,0.1 -0.1,0.2 -0.1,0.2c-0.1,0 -0.1,-0.2 -0.1,-0.4c0.1,-0.8 0.1,-1.6 0.2,-2.1c0,-0.4 0,-1.1 0.1,-1.8c0,-0.2 0.1,-0.3 0.2,-0.3c0.1,0 0.1,0.1 0.1,0.2c0,0.2 0,0.5 0.1,0.6c0.1,0.1 0.2,0.2 0.3,0.2c0.2,0 0.6,-0.1 1.1,-0.3l6.8,-2.1l0,-0.1c-1.6,-0.7 -6.1,-2.9 -7.1,-3.3c-0.2,-0.1 -0.4,-0.2 -0.5,-0.2c-0.1,0 -0.2,0 -0.3,0.2c-0.1,0.2 -0.1,0.4 -0.1,0.6c0,0.1 0,0.2 -0.1,0.2c-0.1,0 -0.1,-0.1 -0.1,-0.4c0.1,-0.7 0.1,-1.3 0.1,-1.5c0,-0.2 0,-0.9 0,-1.4c0,-0.2 0.1,-0.3 0.2,-0.3c0.1,0 0.1,0.1 0.1,0.2c0,0.1 0,0.4 0.1,0.7c0.1,0.2 0.4,0.4 1.3,0.9c1.3,0.7 2.1,1.1 3.8,2c2.1,1.1 3.6,1.9 4.3,2.2c0.8,0.4 1,0.5 1,0.7c0,0.2 -0.2,0.3 -0.9,0.5l-9.2,3.2zm4.1,-12.9c-2.2,-0.5 -2.6,-0.6 -3,-0.6c-0.5,-0.1 -0.7,0 -0.9,0.4c-0.1,0.1 -0.1,0.3 -0.2,0.5c0,0.2 -0.1,0.2 -0.2,0.2c-0.1,0 -0.1,-0.1 -0.1,-0.3c0.1,-0.4 0.2,-0.8 0.3,-1.1c0.1,-0.4 0.2,-0.7 0.2,-0.9c0.1,-0.5 0.7,-3.3 0.7,-3.6c0,-0.3 0.1,-0.5 0.1,-0.6c0,-0.1 0,-0.2 0,-0.2c0,-0.1 0.1,-0.1 0.1,-0.1c0.1,0 0.2,0.1 0.9,0.3c0.1,0 0.8,0.2 0.9,0.3c0.1,0 0.1,0.1 0.1,0.2c0,0.1 -0.1,0.1 -0.2,0.1c-0.1,0 -0.3,-0.1 -0.5,0c-0.3,0 -0.5,0.2 -0.7,0.8c-0.1,0.2 -0.4,1.7 -0.5,2c0,0.1 0,0.1 0.1,0.1l3.6,0.8c0.1,0 0.2,0 0.2,-0.1c0.1,-0.3 0.4,-2 0.5,-2.3c0,-0.3 0.1,-0.6 -0.1,-0.7c-0.1,-0.1 -0.2,-0.2 -0.1,-0.3c0,-0.1 0.1,-0.1 0.1,-0.1c0.1,0 0.3,0.1 1,0.3c0.3,0.1 0.8,0.2 0.9,0.3c0.1,0 0.3,0.1 0.2,0.2c0,0.1 -0.1,0.1 -0.2,0.1c-0.1,0 -0.3,-0.1 -0.5,-0.1c-0.3,0 -0.6,0.2 -0.7,0.7c-0.1,0.3 -0.4,1.7 -0.5,2c0,0.1 0,0.1 0.1,0.1l1.1,0.2c0.5,0.1 1.8,0.4 2.2,0.5c1,0.2 1.3,0 1.6,-1.5c0.1,-0.4 0.2,-1 0.1,-1.4c-0.1,-0.4 -0.4,-0.6 -0.9,-0.9c-0.1,-0.1 -0.2,-0.1 -0.2,-0.2c0,-0.1 0.1,-0.1 0.3,-0.1c0.3,0.1 1.3,0.4 1.5,0.5c0.3,0.2 0.3,0.3 0.2,0.8c-0.2,1.1 -0.4,1.8 -0.6,2.5c-0.2,0.6 -0.3,1.1 -0.4,1.5c0,0.2 -0.1,0.5 -0.2,0.8c-0.1,0.3 -0.1,0.7 -0.2,1c0,0.2 -0.1,0.3 -0.2,0.3c-0.1,0 -0.1,-0.1 -0.1,-0.3c0,-0.2 0.1,-0.4 0.1,-0.5c0,-0.3 -0.3,-0.4 -0.7,-0.6c-0.6,-0.2 -1.7,-0.4 -3,-0.7l-2.2,-0.3zm2.8,-10.5c-2.1,-0.8 -2.4,-0.9 -2.9,-1.1c-0.5,-0.2 -0.7,-0.1 -1,0.3c-0.1,0.1 -0.2,0.3 -0.2,0.5c-0.1,0.1 -0.1,0.2 -0.2,0.2c-0.1,0 -0.1,-0.1 0,-0.4c0.3,-0.7 0.7,-1.6 0.8,-1.8c0.2,-0.5 0.5,-1.5 0.7,-1.9c0.3,-0.9 0.8,-1.7 1.5,-2.3c0.4,-0.3 1.3,-0.6 2.2,-0.2c1,0.4 1.8,1.2 2.4,3c2,-0.6 3.6,-1.1 4.7,-1.6c1.1,-0.5 1.4,-1 1.5,-1.2c0.1,-0.1 0.1,-0.3 0.2,-0.4s0.1,-0.1 0.2,-0.1c0.1,0 0.1,0.1 0,0.3l-0.5,1.3c-0.3,0.8 -0.5,1.1 -0.8,1.4c-0.5,0.5 -1.4,0.7 -2.7,1.1c-1,0.3 -2.1,0.5 -2.4,0.6c-0.1,0 -0.2,0.1 -0.2,0.2l-0.5,1.2c0,0.1 0,0.1 0.1,0.2l0.2,0.1c1.3,0.5 2.3,0.9 2.9,1.1c0.4,0.1 0.7,0.1 0.9,-0.2c0.1,-0.2 0.2,-0.5 0.3,-0.6c0,-0.1 0.1,-0.1 0.2,-0.1c0.1,0 0.1,0.1 0,0.3c-0.3,0.8 -0.7,1.8 -0.8,2c-0.1,0.3 -0.4,1.1 -0.6,1.7c-0.1,0.2 -0.1,0.2 -0.2,0.2c-0.1,0 -0.1,-0.1 0,-0.3c0.1,-0.2 0.1,-0.4 0.1,-0.5c0.1,-0.3 -0.2,-0.5 -0.6,-0.7c-0.5,-0.3 -1.6,-0.7 -2.9,-1.2l-2.4,-1.1zm1.6,-1.2c0.1,0.1 0.2,0.1 0.3,0c0.2,-0.2 0.4,-0.6 0.5,-1c0.2,-0.5 0.2,-0.7 0.1,-1.1c-0.1,-0.5 -0.6,-1.2 -1.7,-1.6c-1.9,-0.7 -3,0.3 -3.3,1.1c-0.1,0.3 -0.2,0.6 -0.2,0.7c0,0.1 0,0.2 0.1,0.2l4.2,1.7zm8.6,-6.1c-0.2,0.1 -0.3,0.2 -0.6,0c-0.7,-0.4 -1.4,-0.9 -1.6,-1c-0.2,-0.1 -0.3,-0.2 -0.2,-0.3c0.1,-0.1 0.2,-0.1 0.3,0c0.2,0.1 0.5,0.2 0.7,0.2c1.1,0.2 1.9,-0.3 2.3,-1.1c0.6,-1.1 0.2,-2.1 -0.5,-2.5c-0.6,-0.4 -1.3,-0.5 -2.7,0.1l-0.8,0.3c-1.9,0.8 -3,0.8 -4.1,0.2c-1.4,-0.8 -1.7,-2.5 -0.7,-4.3c0.5,-0.8 0.9,-1.3 1.2,-1.6c0.1,-0.1 0.2,-0.1 0.3,-0.1c0.2,0.1 0.5,0.4 1.5,0.9c0.3,0.2 0.4,0.3 0.3,0.4c-0.1,0.1 -0.1,0.1 -0.3,0c-0.1,-0.1 -0.5,-0.2 -1,-0.1c-0.4,0.1 -0.9,0.2 -1.4,1c-0.5,0.9 -0.3,1.8 0.4,2.2c0.6,0.3 1.2,0.3 2.6,-0.3l0.5,-0.2c2,-0.9 3.2,-0.9 4.4,-0.2c0.7,0.4 1.5,1.2 1.5,2.4c0,0.9 -0.2,1.6 -0.6,2.3c-0.5,0.8 -0.9,1.3 -1.5,1.7zm-0.3,-12c-1.8,-1.3 -2.1,-1.5 -2.5,-1.8c-0.4,-0.3 -0.7,-0.3 -1,-0.1c-0.1,0.1 -0.2,0.2 -0.4,0.4c-0.1,0.1 -0.2,0.2 -0.3,0.1c-0.1,-0.1 0,-0.2 0.1,-0.4c0.3,-0.4 0.9,-1.2 1.2,-1.5c0.2,-0.3 0.7,-1 1,-1.5c0.1,-0.2 0.2,-0.2 0.3,-0.2c0.1,0.1 0.1,0.2 0,0.3c-0.1,0.1 -0.1,0.2 -0.2,0.4c-0.2,0.4 0,0.6 0.4,0.9c0.4,0.3 0.7,0.5 2.5,1.8l2.1,1.5c1.1,0.8 2.1,1.5 2.6,1.8c0.3,0.2 0.6,0.3 0.9,-0.1c0.1,-0.1 0.4,-0.4 0.5,-0.6c0.1,-0.1 0.2,-0.2 0.2,-0.1c0.1,0.1 0.1,0.2 0,0.3c-0.6,0.8 -1.1,1.5 -1.4,1.8c-0.2,0.3 -0.7,1 -1,1.5c-0.1,0.2 -0.2,0.2 -0.3,0.2c-0.1,0 -0.1,-0.1 0,-0.3c0.1,-0.2 0.2,-0.3 0.3,-0.5c0.1,-0.3 0,-0.5 -0.3,-0.8c-0.5,-0.4 -1.4,-1.1 -2.5,-1.9l-2.2,-1.2zm3.6,-9.9l-1.5,1.6c-0.6,0.6 -0.7,0.9 -0.7,1.3c0.1,0.3 0.1,0.4 0.2,0.5c0.1,0.1 0.1,0.2 0,0.2c-0.1,0.1 -0.1,0 -0.3,-0.1c-0.2,-0.2 -0.9,-1.3 -1,-1.4c-0.1,-0.2 -0.1,-0.3 -0.1,-0.3c0.1,-0.1 0.3,-0.1 0.6,-0.3c0.3,-0.3 0.7,-0.7 1.1,-1l4,-4.2c0.3,-0.3 0.5,-0.6 0.6,-0.8c0.1,-0.2 0.2,-0.3 0.2,-0.3c0.1,-0.1 0.1,0 0.3,0.1c0.2,0.2 0.9,0.9 1.2,1.2c0.1,0.1 0.1,0.2 0.1,0.3c-0.1,0.1 -0.2,0.1 -0.3,-0.1l-0.1,-0.1c-0.3,-0.2 -0.9,-0.2 -1.8,0.7l-1.3,1.3l4.3,4.1c1,0.9 1.8,1.7 2.3,2.1c0.3,0.2 0.6,0.4 1,0.1c0.2,-0.1 0.4,-0.3 0.6,-0.5c0.1,-0.1 0.2,-0.1 0.2,-0.1c0.1,0.1 0,0.2 -0.1,0.3c-0.7,0.7 -1.3,1.3 -1.6,1.6c-0.2,0.2 -0.8,0.9 -1.2,1.4c-0.1,0.1 -0.2,0.2 -0.3,0.1c-0.1,-0.1 -0.1,-0.1 0.1,-0.2c0.2,-0.2 0.2,-0.3 0.3,-0.4c0.2,-0.3 0,-0.5 -0.3,-0.9c-0.4,-0.5 -1.2,-1.3 -2.2,-2.2l-4.3,-4zm11.1,-1.7c-0.1,0 -0.1,0.1 0,0.2l0.7,2.1c0.1,0.4 0.3,0.7 0.4,0.8c0.2,0.2 0.4,0.3 0.7,0l0.2,-0.1c0.1,-0.1 0.2,-0.1 0.2,0c0.1,0.1 0,0.2 -0.1,0.3c-0.4,0.3 -0.9,0.6 -1.2,0.9c-0.1,0.1 -0.7,0.6 -1.3,1.1c-0.1,0.1 -0.2,0.2 -0.3,0.1c-0.1,-0.1 0,-0.1 0.1,-0.2c0.1,-0.1 0.2,-0.2 0.3,-0.3c0.5,-0.5 0.4,-1 0.2,-1.8l-2.8,-9.4c-0.1,-0.4 -0.2,-0.6 0,-0.7c0.1,-0.1 0.2,0 0.6,0.1c0.8,0.4 6.3,3.6 8.4,4.8c1.3,0.7 1.7,0.6 2,0.4c0.2,-0.1 0.4,-0.2 0.5,-0.3c0.1,-0.1 0.2,-0.1 0.2,0c0.1,0.1 0,0.2 -0.4,0.5c-0.4,0.3 -1.2,1 -2.2,1.7c-0.2,0.2 -0.4,0.3 -0.4,0.2c-0.1,-0.1 0,-0.1 0.1,-0.2c0.1,-0.1 0.1,-0.3 -0.1,-0.3l-2.8,-1.7c-0.1,0 -0.1,0 -0.2,0l-2.8,1.8zm1.8,-2.5c0.1,0 0,-0.1 0,-0.1l-3.3,-2c0,0 -0.1,-0.1 -0.1,-0.1c0,0 0,0.1 0,0.2l1.2,3.6c0,0.1 0.1,0.1 0.1,0l2.1,-1.6zm7.6,-0.1c-0.2,0 -0.3,0 -0.5,-0.3c-0.4,-0.7 -0.8,-1.5 -0.9,-1.7c-0.1,-0.2 -0.1,-0.4 0,-0.4c0.1,-0.1 0.2,0 0.2,0.1c0.1,0.2 0.3,0.4 0.5,0.6c0.8,0.8 1.8,0.7 2.5,0.2c1.1,-0.7 1.2,-1.8 0.8,-2.4c-0.4,-0.6 -0.9,-1.1 -2.4,-1.3l-0.8,-0.1c-2,-0.3 -3,-0.9 -3.6,-1.9c-0.8,-1.4 -0.2,-3 1.5,-4.1c0.8,-0.5 1.4,-0.7 1.8,-0.8c0.1,0 0.2,0 0.3,0.1c0.1,0.2 0.3,0.6 0.8,1.5c0.2,0.3 0.2,0.4 0.1,0.5c-0.1,0.1 -0.2,0 -0.3,-0.2c-0.1,-0.1 -0.4,-0.5 -0.8,-0.6c-0.3,-0.1 -0.9,-0.3 -1.7,0.2c-0.9,0.6 -1.2,1.4 -0.7,2.2c0.3,0.6 0.9,0.8 2.4,1l0.5,0.1c2.2,0.2 3.2,0.8 4,2c0.4,0.7 0.7,1.8 0.1,2.9c-0.4,0.8 -1,1.3 -1.7,1.7c-0.8,0.4 -1.4,0.7 -2.1,0.7zm76.1,-10.6l-1.9,-1.1c-0.7,-0.4 -1.1,-0.5 -1.4,-0.4c-0.2,0.1 -0.4,0.2 -0.5,0.3c-0.1,0.1 -0.2,0.1 -0.2,0.1c-0.1,-0.1 -0.1,-0.1 0,-0.3c0.1,-0.2 1,-1.2 1.1,-1.3c0.1,-0.1 0.2,-0.2 0.3,-0.1c0.1,0.1 0.2,0.3 0.4,0.5c0.3,0.2 0.8,0.6 1.2,0.8l5,2.9c0.4,0.2 0.7,0.4 0.9,0.4c0.2,0.1 0.3,0.1 0.4,0.1c0.1,0.1 0.1,0.1 -0.1,0.3c-0.2,0.3 -0.7,1.1 -0.9,1.4c-0.1,0.1 -0.2,0.2 -0.2,0.1c-0.1,-0.1 -0.1,-0.1 0,-0.3l0.1,-0.1c0.2,-0.3 0,-0.9 -1.1,-1.6l-1.6,-1l-3,5.2c-0.7,1.2 -1.3,2.2 -1.5,2.7c-0.2,0.4 -0.3,0.7 0.1,1c0.2,0.1 0.4,0.3 0.6,0.4c0.1,0.1 0.2,0.2 0.1,0.2c-0.1,0.1 -0.2,0.1 -0.3,0c-0.8,-0.5 -1.6,-1 -1.9,-1.2c-0.3,-0.2 -1.1,-0.6 -1.6,-0.9c-0.2,-0.1 -0.2,-0.2 -0.2,-0.3c0,-0.1 0.1,-0.1 0.3,0c0.2,0.1 0.4,0.2 0.5,0.2c0.3,0.1 0.5,-0.1 0.8,-0.5c0.4,-0.5 1,-1.5 1.6,-2.6l3,-4.9zm6.6,8.3c1.4,-1.7 1.7,-2 2,-2.4c0.3,-0.4 0.4,-0.6 0.1,-1c-0.1,-0.1 -0.2,-0.3 -0.4,-0.4c-0.1,-0.1 -0.2,-0.2 -0.1,-0.3c0.1,-0.1 0.2,0 0.3,0.1c0.6,0.5 1.3,1.1 1.6,1.4c0.3,0.2 1,0.8 1.4,1.1c0.2,0.1 0.2,0.2 0.2,0.3c-0.1,0.1 -0.2,0 -0.3,-0.1c-0.1,-0.1 -0.2,-0.2 -0.4,-0.2c-0.3,-0.2 -0.6,-0.1 -0.9,0.3c-0.3,0.3 -0.6,0.6 -2,2.3l-1.3,1.5c-1.4,1.6 -1.6,2.6 -1.5,3.5c0.1,0.8 0.6,1.3 1,1.6c0.5,0.4 1.2,0.8 2,0.7c1.1,-0.1 2,-1.1 3,-2.2l1.2,-1.4c1.4,-1.7 1.7,-2 2,-2.4c0.3,-0.4 0.4,-0.7 0.1,-1c-0.1,-0.1 -0.2,-0.3 -0.4,-0.4c-0.1,-0.1 -0.2,-0.2 -0.1,-0.3c0.1,-0.1 0.2,0 0.3,0.1c0.6,0.5 1.2,1.1 1.2,1.1c0.1,0.1 0.9,0.7 1.3,1c0.2,0.1 0.2,0.2 0.1,0.3c-0.1,0.1 -0.1,0 -0.3,-0.1c-0.1,-0.1 -0.2,-0.2 -0.3,-0.2c-0.4,-0.2 -0.6,-0.1 -1,0.3c-0.3,0.3 -0.6,0.6 -2,2.3l-1,1.2c-1.1,1.2 -2.3,2.4 -3.9,2.4c-1.4,0 -2.3,-0.6 -3,-1.2c-0.6,-0.5 -1.6,-1.5 -1.8,-2.9c-0.1,-1 0.2,-2.2 1.5,-3.8l1.4,-1.2zm11.1,10.4c1.7,-1.4 2,-1.6 2.4,-2c0.4,-0.3 0.5,-0.6 0.3,-1c-0.1,-0.1 -0.2,-0.3 -0.3,-0.5c-0.1,-0.1 -0.1,-0.2 -0.1,-0.3c0.1,-0.1 0.2,0 0.3,0.2c0.5,0.6 1,1.3 1.2,1.6c0.3,0.4 1,1.2 1.3,1.6c0.6,0.7 1.1,1.5 1.2,2.5c0,0.5 -0.2,1.4 -0.9,2c-0.8,0.7 -1.9,0.9 -3.8,0.5c-0.5,2 -0.8,3.6 -1,4.9c-0.1,1.2 0.1,1.7 0.2,1.9c0.1,0.1 0.1,0.2 0.2,0.3c0.1,0.1 0.1,0.2 0,0.2c-0.1,0.1 -0.2,0 -0.3,-0.1l-0.9,-1.1c-0.5,-0.6 -0.7,-1 -0.8,-1.4c-0.1,-0.7 0.1,-1.6 0.4,-2.9c0.3,-1 0.6,-2.1 0.7,-2.4c0,-0.1 0,-0.2 -0.1,-0.3l-0.8,-1c-0.1,-0.1 -0.1,-0.1 -0.2,0l-0.2,0.1c-1.1,0.9 -2,1.6 -2.4,2c-0.3,0.3 -0.5,0.6 -0.3,0.9c0.1,0.2 0.3,0.5 0.4,0.6c0.1,0.1 0.1,0.2 0,0.2c-0.1,0.1 -0.2,0 -0.3,-0.1c-0.5,-0.7 -1.2,-1.5 -1.3,-1.7c-0.2,-0.2 -0.8,-0.9 -1.1,-1.4c-0.1,-0.1 -0.1,-0.3 -0.1,-0.3c0.1,0 0.1,0 0.2,0.1c0.1,0.2 0.3,0.3 0.4,0.4c0.2,0.2 0.5,0 0.9,-0.2c0.5,-0.3 1.4,-1.1 2.5,-1.9l2.3,-1.4zm0.1,2.1c-0.1,0.1 -0.1,0.2 -0.1,0.3c0.1,0.3 0.4,0.7 0.6,1c0.4,0.5 0.5,0.6 0.8,0.7c0.5,0.1 1.3,0.1 2.2,-0.7c1.6,-1.3 1.2,-2.7 0.7,-3.4c-0.2,-0.3 -0.4,-0.5 -0.5,-0.6c-0.1,-0.1 -0.1,0 -0.2,0l-3.5,2.7zm7.6,8.6c1.9,-1.1 2.3,-1.3 2.6,-1.6c0.4,-0.3 0.6,-0.5 0.5,-0.8c0,-0.2 -0.1,-0.3 -0.2,-0.5c-0.1,-0.1 -0.1,-0.2 0,-0.3c0.1,0 0.2,0 0.3,0.2c0.3,0.5 0.7,1.3 0.9,1.7c0.2,0.3 0.7,1 0.9,1.5c0.1,0.2 0.1,0.3 0.1,0.3c-0.1,0.1 -0.2,0 -0.2,-0.1c-0.1,-0.1 -0.1,-0.2 -0.3,-0.4c-0.3,-0.3 -0.5,-0.3 -1,0c-0.4,0.2 -0.8,0.4 -2.7,1.5l-2.2,1.3c-1.2,0.7 -2.2,1.3 -2.7,1.7c-0.3,0.2 -0.5,0.5 -0.3,0.9c0.1,0.2 0.2,0.5 0.3,0.7c0.1,0.1 0.1,0.2 0,0.3c-0.1,0.1 -0.2,0 -0.3,-0.2c-0.5,-0.8 -0.9,-1.6 -1.1,-2c-0.2,-0.3 -0.7,-1.1 -1,-1.6c-0.1,-0.2 -0.1,-0.3 0,-0.3c0.1,0 0.1,0 0.2,0.1c0.1,0.2 0.2,0.3 0.3,0.4c0.2,0.2 0.5,0.2 0.8,0c0.6,-0.2 1.6,-0.8 2.8,-1.5l2.3,-1.3zm-1.1,9.3c0.6,-1.8 2,-2.8 3.3,-3.3c0.9,-0.4 2.6,-0.8 4.3,0.1c1.3,0.6 2.4,1.7 3.2,3.7c0.3,0.8 0.5,1.4 0.7,2c0.1,0.5 0.2,1 0.3,1.4c0,0.2 0,0.2 -0.1,0.3c-0.1,0 -0.3,0.1 -0.8,0.2c-0.5,0.2 -1.2,0.5 -1.5,0.6c-0.2,0.1 -0.3,0.1 -0.4,0c0,-0.1 0.1,-0.2 0.2,-0.3c0.4,-0.2 0.8,-0.6 1,-1c0.3,-0.6 0.2,-1.8 -0.3,-3.1c-0.5,-1.2 -1.1,-1.8 -1.9,-2.2c-1.3,-0.6 -2.7,-0.3 -4,0.2c-3.2,1.3 -3.8,4.4 -3,6.2c0.5,1.2 0.9,1.9 1.8,2.2c0.4,0.1 0.8,0.1 1.1,0.1c0.2,0 0.3,0 0.3,0.1c0,0.1 0,0.2 -0.2,0.2c-0.2,0.1 -1.4,0.4 -1.9,0.4c-0.3,0 -0.3,0 -0.5,-0.2c-0.4,-0.4 -1,-1.4 -1.3,-2.3c-0.6,-1.9 -0.8,-3.7 -0.3,-5.3zm9.6,10.9c2.2,-0.5 2.6,-0.6 3,-0.7c0.5,-0.1 0.7,-0.3 0.7,-0.8c0,-0.1 0,-0.4 -0.1,-0.6c0,-0.2 0,-0.2 0.1,-0.3c0.1,0 0.2,0.1 0.2,0.3c0.1,0.4 0.2,0.8 0.2,1.2c0.1,0.4 0.1,0.7 0.2,0.9c0.1,0.5 0.7,3.3 0.8,3.6c0.1,0.3 0.2,0.5 0.2,0.6c0,0.1 0.1,0.1 0.1,0.2s0,0.1 -0.1,0.1c-0.1,0 -0.3,0 -1,0.1c-0.1,0 -0.8,0.1 -1,0.1c-0.1,0 -0.2,0 -0.2,-0.1c0,-0.1 0,-0.1 0.2,-0.2c0.1,0 0.3,-0.1 0.5,-0.2c0.2,-0.2 0.4,-0.3 0.3,-1.1c0,-0.2 -0.3,-1.7 -0.4,-2c0,-0.1 -0.1,-0.1 -0.2,-0.1l-3.6,0.8c-0.1,0 -0.2,0.1 -0.1,0.1c0.1,0.3 0.4,1.9 0.5,2.3c0.1,0.3 0.2,0.5 0.4,0.6c0.1,0.1 0.2,0.1 0.2,0.2c0,0.1 0,0.1 -0.1,0.1c-0.1,0 -0.3,0 -1.1,0.1c-0.3,0.1 -0.9,0.1 -1,0.2c-0.1,0 -0.3,0.1 -0.3,-0.1c0,-0.1 0,-0.1 0.1,-0.2c0.1,0 0.3,-0.1 0.5,-0.2c0.3,-0.1 0.4,-0.4 0.4,-0.9c0,-0.3 -0.3,-1.7 -0.4,-2c0,-0.1 -0.1,-0.1 -0.2,-0.1l-1.1,0.3c-0.5,0.1 -1.8,0.4 -2.2,0.5c-1,0.2 -1.1,0.5 -0.8,2c0.1,0.4 0.2,1 0.5,1.3c0.2,0.3 0.6,0.4 1.2,0.4c0.2,0 0.2,0 0.2,0.1c0,0.1 -0.1,0.1 -0.2,0.2c-0.3,0.1 -1.3,0.2 -1.6,0.2c-0.4,0 -0.4,-0.1 -0.5,-0.7c-0.2,-1.1 -0.4,-1.9 -0.5,-2.5c-0.1,-0.6 -0.2,-1.1 -0.3,-1.5c0,-0.2 -0.1,-0.5 -0.2,-0.8c-0.1,-0.3 -0.2,-0.7 -0.2,-1c0,-0.2 0,-0.3 0.1,-0.3c0.1,0 0.1,0 0.2,0.2c0,0.2 0.1,0.4 0.2,0.5c0.1,0.3 0.4,0.3 0.9,0.2c0.6,-0.1 1.7,-0.3 3,-0.6l2.5,-0.4zm-2.7,12.4c-1.1,0.1 -1.5,0.3 -1.6,0.6c-0.1,0.2 -0.1,0.5 -0.1,0.8c0,0.2 0,0.2 -0.1,0.2c-0.1,0 -0.2,-0.1 -0.2,-0.3c0,-0.9 0,-1.5 0,-1.8c0,-0.1 -0.1,-0.8 -0.1,-1.6c0,-0.2 0,-0.3 0.1,-0.3c0.1,0 0.1,0.1 0.1,0.2c0,0.2 0,0.5 0.1,0.7c0.1,0.4 0.6,0.4 1.8,0.4l8.6,-0.2c0.3,0 0.5,0 0.5,0.2c0,0.2 -0.2,0.3 -0.4,0.6c-0.2,0.2 -2.5,2.5 -4.5,4.7c-1,1 -3,3.1 -3.2,3.3l0,0.1l6.5,-0.4c0.9,0 1.2,-0.2 1.3,-0.5c0.1,-0.2 0.1,-0.6 0.1,-0.8c0,-0.2 0,-0.2 0.1,-0.2c0.1,0 0.1,0.2 0.1,0.4c0,0.8 0,1.5 0,1.8c0,0.2 0.1,0.7 0.1,1.4c0,0.2 0,0.3 -0.1,0.3c-0.1,0 -0.1,-0.1 -0.1,-0.3c0,-0.1 0,-0.3 -0.1,-0.4c-0.1,-0.4 -0.4,-0.5 -1.3,-0.5l-9.2,0.2c-0.3,0 -0.5,0 -0.5,-0.2c0,-0.2 0.1,-0.3 0.3,-0.5c0.8,-0.9 2.7,-2.9 4.1,-4.5c1.5,-1.6 3.3,-3.3 3.5,-3.6l0,0l-5.8,0.2zm-1.9,13.5c0.1,-0.2 0.2,-0.2 0.5,-0.2c0.8,0.1 1.7,0.3 1.9,0.4c0.2,0 0.4,0.1 0.4,0.2c0,0.1 -0.1,0.1 -0.3,0.1c-0.2,0 -0.5,0 -0.8,0c-1.1,0.2 -1.6,1 -1.8,1.9c-0.2,1.3 0.6,2.1 1.4,2.2c0.7,0.1 1.4,0 2.5,-1.1l0.6,-0.6c1.5,-1.4 2.6,-1.8 3.7,-1.6c1.6,0.2 2.5,1.7 2.2,3.7c-0.1,0.9 -0.4,1.5 -0.5,1.9c0,0.1 -0.1,0.2 -0.2,0.2c-0.2,0 -0.6,-0.1 -1.7,-0.3c-0.3,0 -0.4,-0.1 -0.4,-0.2c0,-0.1 0.1,-0.1 0.3,-0.1c0.1,0 0.6,0 1,-0.2c0.3,-0.2 0.8,-0.5 0.9,-1.5c0.2,-1.1 -0.4,-1.8 -1.2,-1.9c-0.7,-0.1 -1.2,0.2 -2.3,1.2l-0.4,0.4c-1.6,1.6 -2.6,2 -4,1.8c-0.8,-0.1 -1.8,-0.6 -2.3,-1.7c-0.4,-0.8 -0.4,-1.6 -0.3,-2.4c0.2,-1 0.4,-1.6 0.8,-2.2zm4.3,12.4c2.1,0.6 2.5,0.7 3,0.8c0.5,0.1 0.8,0 0.9,-0.3c0.1,-0.1 0.2,-0.3 0.2,-0.5c0,-0.1 0.1,-0.2 0.2,-0.2c0.1,0 0.1,0.1 0,0.4c-0.2,0.5 -0.4,1.4 -0.6,1.8c-0.1,0.4 -0.3,1.2 -0.4,1.7c-0.1,0.2 -0.1,0.3 -0.2,0.3c-0.1,0 -0.1,-0.1 -0.1,-0.3c0,-0.1 0.1,-0.2 0.1,-0.4c0,-0.4 -0.2,-0.6 -0.7,-0.7c-0.4,-0.2 -0.8,-0.3 -3,-0.9l-2.5,-0.7c-1.4,-0.4 -2.5,-0.7 -3.1,-0.8c-0.4,-0.1 -0.7,0 -0.8,0.4c-0.1,0.2 -0.2,0.5 -0.3,0.7c0,0.2 -0.1,0.2 -0.2,0.2c-0.1,0 -0.1,-0.2 -0.1,-0.3c0.3,-0.9 0.6,-1.8 0.7,-2.2c0.1,-0.3 0.3,-1.2 0.5,-1.8c0.1,-0.2 0.1,-0.3 0.2,-0.2c0.1,0 0.1,0.1 0.1,0.3c-0.1,0.2 -0.1,0.4 -0.1,0.5c0,0.3 0.2,0.4 0.6,0.6c0.6,0.2 1.7,0.5 3,0.9l2.6,0.7zm-8.6,5.1c0.2,-0.2 0.3,-0.2 0.6,-0.1c0.7,0.3 1.5,0.7 1.7,0.8c0.2,0.1 0.3,0.2 0.3,0.3c-0.1,0.1 -0.2,0.1 -0.3,0c-0.2,-0.1 -0.5,-0.1 -0.7,-0.2c-1.1,-0.1 -1.8,0.5 -2.2,1.3c-0.5,1.2 0,2.1 0.7,2.5c0.7,0.3 1.4,0.4 2.7,-0.4l0.7,-0.4c1.8,-1 2.9,-1.1 4,-0.6c1.5,0.6 2,2.3 1.2,4.2c-0.4,0.9 -0.8,1.4 -1,1.7c-0.1,0.1 -0.1,0.2 -0.2,0.1c-0.2,-0.1 -0.5,-0.3 -1.6,-0.7c-0.3,-0.1 -0.4,-0.2 -0.3,-0.3c0,-0.1 0.1,-0.1 0.3,0c0.1,0.1 0.6,0.2 1,0c0.3,-0.1 0.9,-0.3 1.3,-1.2c0.4,-1 0.1,-1.8 -0.7,-2.2c-0.6,-0.3 -1.2,-0.2 -2.5,0.6l-0.4,0.2c-1.9,1.1 -3.1,1.3 -4.4,0.7c-0.8,-0.3 -1.6,-1 -1.8,-2.3c-0.1,-0.9 0.1,-1.7 0.4,-2.4c0.4,-0.6 0.7,-1.1 1.2,-1.6zm-104.1,44.2c-0.1,0 -0.2,0 -0.4,-0.1c-0.2,-0.1 -0.3,-0.2 -0.4,-0.7l-0.7,-4.9c0,-0.2 -0.1,-0.3 -0.2,-0.3c-0.1,0 -0.2,0.1 -0.3,0.2l-2.1,4.3l-2.1,-4.3c-0.1,-0.2 -0.2,-0.3 -0.3,-0.3c-0.1,0 -0.2,0.1 -0.2,0.3l-0.8,5.1c0,0.3 -0.1,0.5 -0.3,0.6c-0.1,0 -0.2,0 -0.2,0c-0.1,0 -0.2,0 -0.2,0.1c0,0.1 0.1,0.2 0.2,0.2c0.3,0 0.7,0 0.8,0c0.1,0 0.5,0 0.9,0c0.1,0 0.2,0 0.3,-0.2c0,-0.1 -0.1,-0.1 -0.2,-0.1c-0.1,0 -0.1,0 -0.3,0c-0.1,0 -0.2,-0.1 -0.2,-0.2c0,-0.1 0,-0.2 0,-0.4l0.4,-2.9c0.3,0.6 0.7,1.4 0.7,1.5c0.1,0.2 0.7,1.4 0.9,1.8c0.1,0.2 0.2,0.4 0.4,0.4c0.2,0 0.2,-0.1 0.4,-0.5l1.7,-3.4l0.4,3.2c0,0.1 0,0.1 0,0.2c0,0.1 0,0.1 0,0.1c-0.1,0 -0.1,0.1 -0.1,0.1c0,0.1 0.1,0.2 0.3,0.2c0.3,0 1.5,0.1 1.7,0.1c0.1,0 0.3,0 0.3,-0.2c-0.2,0.1 -0.3,0.1 -0.4,0.1zm6.7,-4.9c-0.9,-0.9 -2.3,-0.9 -3.3,-0.9c-0.5,0 -1.1,0 -1.3,0c-0.2,0 -0.8,0 -1.2,0c-0.1,0 -0.2,0 -0.3,0.1c0,0.1 0.1,0.2 0.2,0.2c0.1,0 0.3,0 0.3,0c0.2,0.1 0.3,0.1 0.3,0.4c0,0.2 0,0.5 0,1.7l0,1.4c0,0.7 0,1.3 0,1.7c0,0.2 -0.1,0.3 -0.2,0.4c-0.1,0 -0.2,0 -0.3,0s-0.2,0.1 -0.2,0.2c0,0.1 0.1,0.1 0.2,0.1c0.2,0 0.4,0 0.6,0c0.2,0 0.4,0 0.5,0c0.2,0 0.5,0 0.8,0.1c0.3,0 0.7,0 1,0c1.5,0 2.4,-0.6 2.8,-0.9c0.5,-0.5 0.9,-1.2 0.9,-2.2c0,-1.2 -0.4,-1.8 -0.8,-2.3zm-0.5,2.3c0,0.8 -0.2,1.5 -0.7,1.9c-0.5,0.4 -1,0.5 -1.7,0.5c-0.6,0 -0.9,-0.2 -1,-0.3c0,0 -0.1,-0.3 -0.1,-0.5c0,-0.2 0,-0.8 0,-1.6l0,-1c0,-0.6 0,-1.3 0,-1.5c0,-0.1 0,-0.1 0.1,-0.1c0,0 0.3,-0.1 0.5,-0.1c0.6,0 1.5,0.1 2.2,0.7c0.3,0.4 0.7,1 0.7,2zm7.7,1.3c-0.1,0 -0.2,0.1 -0.2,0.2c0,0.1 -0.1,0.4 -0.3,0.5c-0.3,0.3 -0.7,0.4 -1.4,0.4c-1.1,0 -2.5,-0.9 -2.5,-2.7c0,-0.8 0.1,-1.5 0.7,-2c0.4,-0.3 0.8,-0.4 1.5,-0.4c0.7,0 1.3,0.2 1.5,0.4c0.2,0.2 0.3,0.5 0.3,0.7c0,0.1 0,0.2 0.2,0.2c0.1,0 0.2,-0.1 0.2,-0.3c0,-0.2 0,-0.6 0,-0.9c0,-0.3 0,-0.4 0,-0.4c0,-0.1 -0.1,-0.2 -0.2,-0.2c-0.2,0 -0.5,-0.1 -0.8,-0.1c-0.4,0 -0.7,-0.1 -1.2,-0.1c-1.2,0 -2,0.3 -2.6,0.9c-0.8,0.7 -1,1.7 -1,2.2c0,0.8 0.2,1.7 1,2.4c0.8,0.6 1.7,0.9 2.8,0.9c0.5,0 1.2,0 1.5,-0.2c0.1,-0.1 0.2,-0.1 0.2,-0.3c0.1,-0.3 0.2,-1 0.2,-1.1c0.3,0 0.2,-0.1 0.1,-0.1zm6.5,0c-0.1,0 -0.2,0.1 -0.2,0.2c0,0.1 -0.1,0.4 -0.3,0.5c-0.3,0.3 -0.7,0.4 -1.4,0.4c-1.1,0 -2.5,-0.9 -2.5,-2.7c0,-0.8 0.1,-1.5 0.7,-2c0.4,-0.3 0.8,-0.4 1.5,-0.4c0.7,0 1.3,0.2 1.5,0.4c0.2,0.2 0.3,0.5 0.3,0.7c0,0.1 0,0.2 0.2,0.2c0.1,0 0.2,-0.1 0.2,-0.3c0,-0.2 0,-0.6 0,-0.9c0,-0.3 0,-0.4 0,-0.4c0,-0.1 -0.1,-0.2 -0.2,-0.2c-0.2,0 -0.5,-0.1 -0.8,-0.1c-0.4,0 -0.7,-0.1 -1.2,-0.1c-1.2,0 -2,0.3 -2.6,0.9c-0.8,0.7 -1,1.7 -1,2.2c0,0.8 0.2,1.7 1,2.4c0.8,0.6 1.7,0.9 2.8,0.9c0.5,0 1.2,0 1.5,-0.2c0.1,-0.1 0.2,-0.1 0.2,-0.3c0.1,-0.3 0.2,-1 0.2,-1.1c0.3,0 0.3,-0.1 0.1,-0.1zm6.6,0c-0.1,0 -0.2,0.1 -0.2,0.2c0,0.1 -0.1,0.4 -0.3,0.5c-0.3,0.3 -0.7,0.4 -1.4,0.4c-1.1,0 -2.5,-0.9 -2.5,-2.7c0,-0.8 0.1,-1.5 0.7,-2c0.4,-0.3 0.8,-0.4 1.5,-0.4c0.7,0 1.3,0.2 1.5,0.4c0.2,0.2 0.3,0.5 0.3,0.7c0,0.1 0,0.2 0.2,0.2c0.1,0 0.2,-0.1 0.2,-0.3c0,-0.2 0,-0.6 0,-0.9c0,-0.3 0,-0.4 0,-0.4c0,-0.1 -0.1,-0.2 -0.2,-0.2c-0.2,0 -0.5,-0.1 -0.8,-0.1c-0.4,0 -0.7,-0.1 -1.2,-0.1c-1.2,0 -2,0.3 -2.6,0.9c-0.8,0.7 -1,1.7 -1,2.2c0,0.8 0.2,1.7 1,2.4c0.8,0.6 1.7,0.9 2.8,0.9c0.5,0 1.2,0 1.5,-0.2c0.1,-0.1 0.2,-0.1 0.3,-0.3c0.1,-0.3 0.2,-1 0.2,-1.1c0.1,0 0.1,-0.1 0,-0.1zm31.5,1.3c-0.1,0 -0.2,0 -0.3,0c-0.2,-0.1 -0.3,-0.1 -0.4,-0.3c-0.2,-0.2 -1.5,-2.3 -1.8,-2.7l1.3,-1.8c0.2,-0.3 0.4,-0.5 0.5,-0.6c0.1,0 0.2,0 0.3,0c0.1,0 0.2,-0.1 0.2,-0.2c0,-0.1 -0.1,-0.1 -0.2,-0.1c-0.3,0 -0.6,0 -0.8,0c-0.2,0 -0.5,0 -0.9,0c-0.1,0 -0.2,0 -0.2,0.1c0,0.1 0.1,0.2 0.2,0.2c0.1,0 0.2,0 0.2,0c0.1,0 0.1,0.1 0.1,0.1c0,0.1 0,0.2 -0.1,0.2c-0.1,0.2 -0.8,1.1 -1,1.6c-0.3,-0.5 -0.6,-1 -1,-1.6c0,-0.1 -0.1,-0.2 -0.1,-0.2c0,0 0,0 0.1,-0.1c0.1,0 0.1,0 0.2,0c0.1,0 0.2,0 0.2,-0.2c0,-0.1 -0.1,-0.1 -0.2,-0.1c-0.3,0 -0.8,0 -0.9,0c-0.4,0 -1,0 -1.2,0c-0.1,0 -0.2,0 -0.2,0.1c0,0.1 0.1,0.2 0.1,0.2c0.1,0 0.2,0 0.3,0.1c0.3,0.1 0.4,0.2 0.6,0.6l1.4,2.2l-1.6,2.1c-0.3,0.4 -0.4,0.5 -0.6,0.6c-0.1,0 -0.2,0 -0.3,0c-0.1,0 -0.2,0.1 -0.2,0.2c0,0.1 0.1,0.1 0.2,0.1l0.1,0c0.1,0 0.5,0 0.7,0c0.2,0 0.7,0 0.8,0l0.1,0c0.1,0 0.2,0 0.2,-0.1c0,-0.1 -0.1,-0.2 -0.2,-0.2c-0.1,0 -0.1,0 -0.2,0c-0.1,0 -0.1,0 -0.1,-0.1c0,0 0,0 0,0c0,-0.1 0,-0.2 0.1,-0.3l1.1,-1.8c0.4,0.6 0.8,1.3 1.2,2c0,0 0,0 0,0.1c0,0 0,0 0,0c-0.1,0 -0.2,0.1 -0.2,0.2c0,0.1 0.1,0.1 0.4,0.1c0.7,0 1.3,0 1.5,0l0.2,0c0.1,0 0.2,0 0.2,-0.1c0.4,-0.2 0.3,-0.3 0.2,-0.3zm7,0c-0.1,0 -0.2,0 -0.3,0c-0.2,-0.1 -0.3,-0.1 -0.4,-0.3c-0.2,-0.2 -1.5,-2.3 -1.8,-2.7l1.3,-1.8c0.2,-0.3 0.4,-0.5 0.6,-0.6c0.1,0 0.2,0 0.3,0c0.1,0 0.2,-0.1 0.2,-0.2c0,-0.1 -0.1,-0.1 -0.2,-0.1c-0.3,0 -0.6,0 -0.8,0c-0.2,0 -0.5,0 -0.9,0c-0.1,0 -0.2,0 -0.2,0.1c0,0.1 0.1,0.2 0.2,0.2c0.1,0 0.2,0 0.2,0c0.1,0 0.1,0.1 0.1,0.1c0,0.1 0,0.2 -0.1,0.2c-0.1,0.2 -0.8,1.1 -1,1.6c-0.3,-0.5 -0.6,-1 -1,-1.6c0,-0.1 -0.1,-0.2 -0.1,-0.2c0,0 0,0 0.1,-0.1c0.1,0 0.1,0 0.2,0c0.1,0 0.2,0 0.2,-0.2c0,-0.1 -0.1,-0.1 -0.2,-0.1c-0.3,0 -0.8,0 -0.9,0c-0.4,0 -1,0 -1.2,0c-0.1,0 -0.2,0 -0.2,0.1c0,0.1 0.1,0.2 0.1,0.2c0.1,0 0.2,0 0.3,0.1c0.3,0.1 0.4,0.2 0.6,0.6l1.4,2.2l-1.6,2.1c-0.3,0.4 -0.4,0.5 -0.6,0.6c-0.1,0 -0.2,0 -0.3,0c-0.1,0 -0.2,0.1 -0.2,0.2c0,0.1 0.1,0.1 0.2,0.1l0.1,0c0.1,0 0.5,0 0.7,0c0.2,0 0.7,0 0.8,0l0.1,0c0.1,0 0.2,0 0.2,-0.1c0,-0.1 -0.1,-0.2 -0.2,-0.2c-0.1,0 -0.1,0 -0.2,0c-0.1,0 -0.1,0 -0.1,-0.1c0,0 0,0 0,0c0,-0.1 0,-0.2 0.1,-0.3l1.1,-1.8c0.4,0.6 0.8,1.3 1.2,2c0,0 0,0 0,0.1c0,0 0,0 0,0c-0.1,0 -0.2,0.1 -0.2,0.2c0,0.1 0.1,0.1 0.4,0.1c0.7,0 1.3,0 1.5,0l0.2,0c0.1,0 0.2,0 0.2,-0.1c0.2,-0.2 0.2,-0.3 0.1,-0.3zm6.9,0c-0.1,0 -0.2,0 -0.3,0c-0.2,-0.1 -0.3,-0.1 -0.4,-0.3c-0.2,-0.2 -1.5,-2.3 -1.8,-2.7l1.3,-1.8c0.2,-0.3 0.4,-0.5 0.6,-0.6c0.1,0 0.2,0 0.3,0c0.1,0 0.2,-0.1 0.2,-0.2c0,-0.1 -0.1,-0.1 -0.2,-0.1c-0.3,0 -0.6,0 -0.8,0c-0.2,0 -0.5,0 -0.9,0c-0.1,0 -0.2,0 -0.2,0.1c0,0.1 0.1,0.2 0.2,0.2c0.1,0 0.2,0 0.2,0c0.1,0 0.1,0.1 0.1,0.1c0,0.1 0,0.2 -0.1,0.2c-0.1,0.2 -0.8,1.1 -1,1.6c-0.3,-0.5 -0.6,-1 -1,-1.6c0,-0.1 -0.1,-0.2 -0.1,-0.2c0,0 0,0 0.1,-0.1s0.1,0 0.2,0c0.1,0 0.2,0 0.2,-0.2c0,-0.1 -0.1,-0.1 -0.2,-0.1c-0.3,0 -0.8,0 -0.9,0c-0.4,0 -1,0 -1.2,0c-0.1,0 -0.2,0 -0.2,0.1c0,0.1 0.1,0.2 0.1,0.2c0.1,0 0.2,0 0.3,0.1c0.3,0.1 0.4,0.2 0.6,0.6l1.4,2.2l-1.6,2.1c-0.3,0.4 -0.4,0.5 -0.6,0.6c-0.1,0 -0.2,0 -0.3,0c-0.1,0 -0.2,0.1 -0.2,0.2c0,0.1 0.1,0.1 0.2,0.1l0.1,0c0.1,0 0.5,0 0.7,0c0.2,0 0.7,0 0.8,0l0.1,0c0.1,0 0.2,0 0.2,-0.1c0,-0.1 -0.1,-0.2 -0.2,-0.2c-0.1,0 -0.1,0 -0.2,0c-0.1,0 -0.1,0 -0.1,-0.1l0,0c0,-0.1 0,-0.2 0.1,-0.3l1.1,-1.8c0.4,0.6 0.8,1.3 1.2,2c0,0 0,0 0,0.1c0,0 0,0 0,0c-0.1,0 -0.2,0.1 -0.2,0.2c0,0.1 0.1,0.1 0.4,0.1c0.7,0 1.3,0 1.5,0l0.2,0c0.1,0 0.2,0 0.2,-0.1c0.3,-0.2 0.2,-0.3 0.1,-0.3zm4.3,0c-0.1,0 -0.3,0 -0.4,0c-0.2,0 -0.2,-0.1 -0.3,-0.3c0,-0.3 0,-1 0,-1.7l0,-1.4c0,-1.2 0,-1.4 0,-1.7c0,-0.3 0.1,-0.3 0.2,-0.4c0.1,0 0.2,0 0.2,0c0.1,0 0.2,0 0.2,-0.2c0,-0.1 -0.1,-0.1 -0.2,-0.1c-0.3,0 -0.8,0 -1,0c-0.2,0 -0.8,0 -1.1,0c-0.1,0 -0.2,0 -0.3,0.1c0,0.1 0.1,0.2 0.2,0.2c0.1,0 0.2,0 0.3,0c0.2,0.1 0.2,0.1 0.2,0.4c0,0.2 0,0.5 0,1.7l0,1.4c0,0.8 0,1.4 0,1.7c0,0.2 -0.1,0.3 -0.2,0.3c-0.1,0 -0.2,0 -0.3,0c-0.1,0 -0.2,0.1 -0.2,0.2c0,0.1 0.1,0.1 0.2,0.1c0.3,0 0.9,0 1.1,0c0.2,0 0.8,0 1.3,0c0.1,0 0.2,0 0.2,-0.1c0.1,-0.1 0,-0.2 -0.1,-0.2zm4.9,0c-0.1,0 -0.3,0 -0.4,0c-0.2,0 -0.2,-0.1 -0.3,-0.3c0,-0.3 0,-1 0,-1.7l0,-1.4c0,-1.2 0,-1.4 0,-1.7c0,-0.3 0.1,-0.3 0.2,-0.4c0.1,0 0.2,0 0.2,0c0.1,0 0.2,0 0.2,-0.2c0,-0.1 -0.1,-0.1 -0.2,-0.1c-0.3,0 -0.9,0 -1.1,0c-0.2,0 -0.8,0 -1.1,0c-0.1,0 -0.2,0 -0.3,0.1c0,0.1 0.1,0.2 0.2,0.2c0.1,0 0.2,0 0.3,0c0.2,0.1 0.2,0.1 0.2,0.4c0,0.2 0,0.5 0,1.7l0,1.4c0,0.8 0,1.4 0,1.7c0,0.2 -0.1,0.3 -0.2,0.3c-0.1,0 -0.2,0 -0.3,0c-0.1,0 -0.2,0.1 -0.2,0.2c0,0.1 0.1,0.1 0.2,0.1c0.3,0 0.9,0 1.1,0c0.2,0 0.8,0 1.3,0c0.1,0 0.2,0 0.2,-0.1c0.2,-0.1 0.1,-0.2 0,-0.2zm5,0c-0.1,0 -0.3,0 -0.4,0c-0.2,0 -0.2,-0.1 -0.3,-0.3c0,-0.3 0,-1 0,-1.7l0,-1.4c0,-1.2 0,-1.4 0,-1.7c0,-0.3 0.1,-0.3 0.2,-0.4c0.1,0 0.2,0 0.2,0c0.1,0 0.2,0 0.2,-0.2c0,-0.1 -0.1,-0.1 -0.2,-0.1c-0.3,0 -0.8,0 -1,0c-0.2,0 -0.8,0 -1.1,0c-0.1,0 -0.2,0 -0.3,0.1c0,0.1 0.1,0.2 0.2,0.2c0.1,0 0.2,0 0.3,0c0.2,0.1 0.2,0.1 0.2,0.4c0,0.2 0,0.5 0,1.7l0,1.4c0,0.8 0,1.4 0,1.7c0,0.2 -0.1,0.3 -0.2,0.3c-0.1,0 -0.2,0 -0.3,0c-0.1,0 -0.2,0.1 -0.2,0.2c0,0.1 0.1,0.1 0.2,0.1c0.3,0 0.9,0 1.1,0c0.2,0 0.8,0 1.3,0c0.1,0 0.2,0 0.2,-0.1c0.1,-0.1 0,-0.2 -0.1,-0.2zm-49.1,-38.2l0,-4.6c0,-0.9 -0.7,-1.6 -1.6,-1.6c-0.9,0 -1.6,0.7 -1.6,1.6l0,4.6l3.2,0zm8.5,0l0,-4.6c0,-0.9 -0.7,-1.6 -1.6,-1.6c-0.9,0 -1.6,0.7 -1.6,1.6l0,4.6l3.2,0zm-5.8,-93.1c-0.9,0 -1.6,0.7 -1.6,1.6c0,0.9 0.7,1.6 1.6,1.6s1.6,-0.7 1.6,-1.6c0,-0.9 -0.7,-1.6 -1.6,-1.6zm-0.9,45.9l1.7,0l0,-3.6l-1.7,0l0,3.6l0,0zm-15.7,90c-0.9,0 -1.6,0.7 -1.6,1.6c0,0.9 0.7,1.6 1.6,1.6s1.6,-0.7 1.6,-1.6c0,-0.9 -0.7,-1.6 -1.6,-1.6zm-1,-90l0,-5.2c0,-1.2 -0.6,-2.1 -1.5,-2.5c-0.9,0.4 -1.5,1.2 -1.5,2.5l0,5.2l3,0zm0,-16.8l0,-3.4c0,-1.2 -0.6,-2.1 -1.5,-2.5c-0.9,0.4 -1.5,1.3 -1.5,2.5l0,3.4l3,0l0,0zm-0.7,35l0,-4.4c0,-0.5 -0.4,-0.8 -0.8,-0.8c-0.4,0 -0.8,0.4 -0.8,0.8l0,4.4l1.6,0zm0,13.3l0,-4.4c0,-0.5 -0.4,-0.8 -0.8,-0.8c-0.4,0 -0.8,0.4 -0.8,0.8l0,4.4l1.6,0zm0.5,14.7l0,-3.9c0,-0.7 -0.6,-1.3 -1.3,-1.3c-0.7,0 -1.3,0.6 -1.3,1.3l0,3.9l2.6,0zm-1.3,-110.3c-0.9,0 -1.6,0.7 -1.6,1.6c0,0.9 0.7,1.6 1.6,1.6c0.9,0 1.6,-0.7 1.6,-1.6c0,-0.9 -0.7,-1.6 -1.6,-1.6zm39.7,64.1l0,-5.2c0,-1.2 -0.6,-2.1 -1.5,-2.5c-0.9,0.4 -1.5,1.2 -1.5,2.5l0,5.2l3,0zm0,-16.8l0,-3.4c0,-1.2 -0.6,-2.1 -1.5,-2.5c-0.9,0.4 -1.5,1.3 -1.5,2.5l0,3.4l3,0l0,0zm-0.7,35l0,-4.4c0,-0.5 -0.4,-0.8 -0.8,-0.8c-0.4,0 -0.8,0.4 -0.8,0.8l0,4.4l1.6,0zm0,13.3l0,-4.4c0,-0.5 -0.4,-0.8 -0.8,-0.8c-0.4,0 -0.8,0.4 -0.8,0.8l0,4.4l1.6,0zm0.4,14.7l0,-3.9c0,-0.7 -0.6,-1.3 -1.3,-1.3c-0.7,0 -1.3,0.6 -1.3,1.3l0,3.9l2.6,0zm-1.3,-110.3c-0.9,0 -1.6,0.7 -1.6,1.6c0,0.9 0.7,1.6 1.6,1.6s1.6,-0.7 1.6,-1.6c0.1,-0.9 -0.6,-1.6 -1.6,-1.6zm272.5,49.1c0,1.2 -0.1,2.6 -0.3,4.1l-21.6,0c-0.1,6.5 3.2,9.7 9.6,9.7c3.4,0 7.2,-0.8 10.2,-2.2l0.8,7c-3.7,1.5 -8.1,2.2 -12.5,2.2c-11.1,0 -17.3,-5.5 -17.3,-17.8c0,-10.7 5.9,-18.5 16.4,-18.5m-0.3,6.5c-3.7,0 -6.3,2.7 -6.8,7l12.9,0c0.1,-4.4 -2.3,-7 -6.1,-7zm81.2,-10.3c-3.1,0 -5.6,-2.5 -5.6,-5.5c0,-3 2.5,-5.4 5.6,-5.4s5.6,2.4 5.6,5.4c0,3 -2.5,5.5 -5.6,5.5zm-4.5,39.4l0,-34.9l9,0l0,34.9l-9,0zm31.8,0.7c-7.7,0 -10.2,-2.8 -10.2,-11l0,-17.7l-6,0l0,-7l6,0l0,-10.7l9,-2.4l0,13.1l8.5,0l0,7l-8.5,0l0,15.3c0,4.5 1.1,5.8 4.1,5.8c1.5,0 3.1,-0.2 4.4,-0.6l0,7.2c-2.3,0.6 -4.9,1 -7.3,1zm-478.9,10.7c0,-51.9 42,-93.9 93.9,-93.9l0,0c51.9,0 93.9,42 93.9,93.9l0,0c0,51.9 -42,93.9 -93.9,93.9l0,0c-51.9,0 -93.9,-42 -93.9,-93.9l0,0zm29.1,-64.8c-16.6,16.6 -26.8,39.5 -26.8,64.8l0,0c0,25.3 10.2,48.2 26.8,64.8l0,0c16.6,16.6 39.5,26.8 64.8,26.8l0,0c25.3,0 48.2,-10.2 64.8,-26.8l0,0c16.6,-16.6 26.8,-39.5 26.8,-64.8l0,0c0,-25.3 -10.2,-48.2 -26.8,-64.8l0,0c-16.6,-16.6 -39.5,-26.8 -64.8,-26.8l0,0c-25.3,0 -48.2,10.2 -64.8,26.8l0,0zm66.2,123.8l0.8,0l0,-1.3l-1.8,0l0,2.9l1.1,0l-0.1,-1.6zm-1.4,-146.8c-48.5,0 -87.8,39.3 -87.8,87.8c0,48.5 39.3,87.8 87.8,87.8c48.5,0 87.8,-39.3 87.8,-87.8c-0.1,-48.5 -39.4,-87.8 -87.8,-87.8zm-9.7,162.2l-4,0l0,1.3l4,0l0,9.9c-19.9,-2.2 -37.8,-11.3 -51.2,-24.7c-1.9,-1.9 -3.8,-4 -5.5,-6.1c0.4,-2.1 2.2,-3.8 4.4,-3.8c2.5,0 4.5,2 4.5,4.5l0,4.3l5.7,0l0,0l0,0l0,-4.3c0,-2.5 2,-4.5 4.5,-4.5c2.5,0 4.5,2 4.5,4.5l0,4.3l5.7,0l0,0l0,0l0,-4.3c0,-2.5 2,-4.5 4.5,-4.5c2.5,0 4.5,2 4.5,4.5l0,4.3l5.7,0l0,0l0,0l0,-4.3c0,-2.5 2,-4.5 4.5,-4.5c2.5,0 4.5,2 4.5,4.5l0,4.3l3.6,0l0.1,14.6l0,0zm16.3,11.5c-2.2,0.2 -4.4,0.3 -6.6,0.3c-2.2,0 -4.4,-0.1 -6.6,-0.2l-1.6,-10.2l1.9,0c-0.5,-1.1 -1.3,-3.1 -1.6,-3.9c-0.5,-1.3 -0.1,-2.1 0.7,-2.4c0.8,-0.3 1.8,0.1 2,1.2l0.8,3.1l1.2,0l0,2l0,0l0,0.4l-2.8,0l0,1.3l4.2,0l0,-1.7l5,0l0,-2l1.2,0l0.8,-3.1c0.3,-1.1 1.2,-1.5 2.1,-1.2c0.8,0.3 1.2,1.2 0.7,2.4c-0.1,0.3 -0.4,0.9 -0.6,1.5l-1.1,2.7l-3,0l0,1.3l3.9,0l0.7,-1.7l0.4,0l-1.7,10.2zm-9.4,-29l5.5,0c0.2,0.5 0.7,1.8 1.1,2.5c0.2,0.5 0.5,1.1 0.2,1.6c-0.4,0.7 -1,0.6 -1.3,0.5c0,0 0,0 -0.1,0c-0.4,1 -1.4,1.8 -2.5,1.8c-1.2,0 -2.2,-0.7 -2.5,-1.8c0,0 0,0 -0.1,0c-0.4,0 -0.9,0.1 -1.3,-0.5c-0.3,-0.6 -0.1,-1.1 0.2,-1.6c0.1,-0.8 0.6,-2 0.8,-2.5zm-0.8,-5.7l1.7,2.5l1.8,-3.4l1.8,3.4l1.7,-2.5l-0.7,4.3l-5.6,0l-0.7,-4.3zm2.1,12.3c0.4,1.1 1.5,2 2.8,2c1.4,0 2.6,-1 2.9,-2.3c0.9,0 1.7,0.3 2.6,1c0.8,0.7 1.1,1.9 1.3,2.5l-16,0c0.1,-0.6 0.4,-1.8 1.3,-2.5c1.6,-1.5 3.4,-1 5.1,-0.7zm6.6,4.5c-0.6,2.3 -2.7,4 -5.2,4s-4.5,-1.7 -5.2,-4l10.4,0zm55.8,-7.1c-13.4,13.4 -31.3,22.5 -51.2,24.7l0,-9.9l3.6,0c6.8,0 11.6,-0.6 11.6,-0.6s-5,-0.8 -11.6,-0.8l-3.6,0l0,-14.4l4.4,0l0,0l0,0l0,-4.3c0,-2.5 2,-4.5 4.5,-4.5c2.5,0 4.5,2 4.5,4.5l0,4.3l5.7,0l0,0l0,0l0,-4.3c0,-2.5 2,-4.5 4.5,-4.5c2.5,0 4.5,2 4.5,4.5l0,4.3l5.7,0l0,0l0,0l0,-4.3c0,-2.5 2,-4.5 4.5,-4.5s4.5,2 4.5,4.5l0,4.3l5.7,0l0,0l0,0l0,-4.3c0,-2.5 2,-4.5 4.5,-4.5c2,0 3.6,1.3 4.3,3c-1.9,2.4 -3.9,4.7 -6.1,6.8zm7.1,-8c-1,-2.1 -3.2,-3.6 -5.6,-3.6c-3.4,0 -6.2,2.8 -6.2,6.2l0,2l-2.3,0l0,-2c0,-3.4 -2.8,-6.2 -6.2,-6.2c-3.4,0 -6.2,2.8 -6.2,6.2l0,2l-2.4,0l0,-2c0,-3.4 -2.8,-6.2 -6.2,-6.2c-3.4,0 -6.2,2.8 -6.2,6.2l0,2l-2.3,0l0,-2c0,-3.4 -2.8,-6.2 -6.2,-6.2s-6.2,2.8 -6.2,6.2l0,2l-2.3,0c-0.7,-4.7 -4.7,-8.3 -9.6,-8.3s-8.9,3.6 -9.6,8.3l-2.4,0l0,-2c0,-3.4 -2.8,-6.2 -6.2,-6.2c-3.4,0 -6.2,2.8 -6.2,6.2l0,2l-2.3,0l0,-2c0,-3.4 -2.8,-6.2 -6.2,-6.2c-3.4,0 -6.2,2.8 -6.2,6.2l0,2l-2.3,0l0,-2c0,-3.4 -2.8,-6.2 -6.2,-6.2s-6.2,2.8 -6.2,6.2l0,2l-2.2,0l0,-2c0,-3.4 -2.8,-6.2 -6.2,-6.2c-2.5,0 -4.6,1.4 -5.6,3.5c-1.5,-2 -3,-4 -4.3,-6.1l144.7,0c-1.7,2.2 -3.2,4.3 -4.7,6.2zm5.8,-8.4l-147.6,0c-0.4,-0.7 -0.8,-1.4 -1.3,-2.2l150.1,0c-0.4,0.8 -0.8,1.5 -1.2,2.2zm-88.7,-110.8l0,0.7c0,0.1 -0.1,0.4 -0.1,0.6c-0.1,0.3 -0.4,0.9 -0.8,1.5c-0.2,0.2 -0.4,0.7 -0.7,1.3c-0.4,-0.6 -0.7,-1 -1,-1.2c-0.3,-0.3 -0.6,-0.6 -0.9,-1c-0.6,-0.7 -0.6,-1.2 -0.6,-1.2l0,0c0,0 0,0.4 -0.6,1.2c-0.3,0.3 -0.6,0.7 -0.9,1c-0.2,0.2 -0.6,0.7 -1,1.3c-0.3,-0.6 -0.6,-1.1 -0.7,-1.3c-0.4,-0.6 -0.7,-1.2 -0.8,-1.5c-0.1,-0.3 -0.2,-0.7 -0.2,-0.7l0,-0.6l8.3,0l0,-0.1zm-8.4,-1.3c0.1,-1.1 0.4,-3.1 1.4,-4.5c0.8,-1.1 1.6,-1.7 2.2,-2.1c0.3,-0.2 0.5,-0.3 0.6,-0.4c0.2,0.1 0.4,0.2 0.6,0.4c0.6,0.4 1.4,1 2.2,2.1c1.1,1.4 1.3,3.5 1.4,4.5l-8.4,0zm8.7,4.8c0.2,0.3 0.5,0.8 0.8,1.4c0.4,0.9 0.5,1.8 0.5,2.5l0,9.7l-2.6,0c0,-2.1 0,-6.8 0,-9.7c0,-0.7 0.1,-1.6 0.5,-2.5c0.3,-0.7 0.6,-1.1 0.8,-1.4zm-2.6,3.9l0,9.7l-3.8,0c0,-2.7 0,-9.7 0,-9.7c0,-0.6 0.1,-1.5 0.5,-2.4c0.5,-0.9 1.4,-1.5 1.4,-1.5l0,0c0,0 0.9,0.6 1.3,1.5c0.5,1 0.6,1.8 0.6,2.4zm-5.6,-2.5c0.4,0.9 0.4,1.8 0.4,2.5l0,9.7l-2.5,0l0,-9.7c0,-0.7 0.1,-1.5 0.5,-2.5c0.3,-0.6 0.5,-1.1 0.8,-1.4c0.2,0.4 0.5,0.8 0.8,1.4zm11.4,13.8l0,3.1l-15.4,0l0,-3.1l15.4,0zm0,4.4l0,12.2l-3.7,0l0,-5.5c0,-1.8 -0.7,-3.4 -1.8,-4.4c-0.6,-0.6 -1.3,-1 -2.1,-1.3c-0.1,0 -0.1,0 -0.1,0s0,0 -0.1,0c-0.8,0.3 -1.5,0.7 -2.1,1.3c-1.1,1.1 -1.8,2.6 -1.8,4.4l0,5.5l-3.7,0l0,-12.2l15.4,0l0,0zm-5.1,6.8l0,5.5l-5.3,0l0,-5.5c0,-2.1 1.1,-3.6 2.6,-4.3c1.6,0.7 2.7,2.1 2.7,4.3zm5.1,6.8l0,15.6l-3.5,0l0,-7.8c0,-1.8 -0.7,-3.4 -1.8,-4.5c-0.6,-0.6 -1.3,-1 -2.1,-1.3c0,0 -0.3,-0.1 -0.3,-0.1s-0.2,0.1 -0.3,0.1c-0.8,0.3 -1.5,0.7 -2.2,1.3c-1.1,1.1 -1.8,2.7 -1.8,4.5l0,7.8l-3.4,0l0,-15.6l15.4,0l0,0zm-4.8,7.8l0,7.8l-5.9,0l0,-7.8c0,-1.5 0.6,-2.7 1.4,-3.5c0.4,-0.4 0.9,-0.7 1.5,-0.9l0,0c0.6,0.2 1.1,0.5 1.5,0.9c1,0.8 1.5,2 1.5,3.5l0,0zm4.8,9.1l0,18.5l-15.4,0l0,-18.5c0,0 15.4,0 15.4,0zm0,19.9l0,12.1l-15.4,0l0,-12.1l15.4,0zm0,13.4l0,20.5l-15.4,0l0,-20.5c0,0 15.4,0 15.4,0zm13.5,-50.1l0,5.5l-2.1,-2.1l-2.1,2.1l0,-5.5c0,0 4.2,0 4.2,0zm-4.2,-1.5l1.5,-6.6l0.6,-11.1l0.4,11l1.5,6.6l-4,0l0,0.1zm2.1,7.2l9.8,9.8l-19.6,0l9.8,-9.8zm9.8,11.1l0,7.5l-19.7,0l0,-7.5l19.7,0zm0,9.8l0,8.7l-6.1,0l0,-2.2c0,-2 -1.6,-3.7 -3.7,-3.7c-2,0 -3.7,1.6 -3.7,3.7l0,2.2l-6.2,0l0,-8.7l19.7,0zm-13.5,10.1l0,7.8l7.3,0l0,-7.8l6.1,0l0,12.1l-19.6,0l0,-12.1l6.2,0zm13.5,13.4l0,20.5l-19.7,0l0,-20.5c0,0 19.7,0 19.7,0zm13.5,-86.9l0,0.7c0,0.1 -0.1,0.4 -0.1,0.6c-0.1,0.3 -0.4,0.9 -0.8,1.5c-0.2,0.2 -0.4,0.7 -0.7,1.3c-0.4,-0.6 -0.7,-1 -1,-1.2c-0.3,-0.3 -0.6,-0.6 -0.9,-1c-0.6,-0.7 -0.6,-1.2 -0.6,-1.2l0,0c0,0 0,0.4 -0.6,1.2c-0.3,0.3 -0.6,0.7 -0.9,1c-0.2,0.2 -0.6,0.7 -1,1.3c-0.3,-0.6 -0.6,-1.1 -0.7,-1.3c-0.4,-0.6 -0.7,-1.2 -0.8,-1.5c-0.1,-0.3 -0.2,-0.7 -0.2,-0.7l0,-0.5l8.3,0l0,-0.2zm-8.5,-1.3c0.1,-1.1 0.4,-3.1 1.4,-4.5c0.8,-1.1 1.6,-1.7 2.2,-2.1c0.3,-0.2 0.5,-0.3 0.6,-0.4c0.2,0.1 0.4,0.2 0.6,0.4c0.6,0.4 1.4,1 2.2,2.1c1.1,1.4 1.3,3.5 1.4,4.5l-8.4,0zm8.8,4.8c0.2,0.3 0.5,0.8 0.8,1.4c0.4,0.9 0.5,1.8 0.5,2.5l0,9.7l-2.5,0c0,-2.1 0,-6.8 0,-9.7c0,-0.7 0.1,-1.6 0.5,-2.5c0.2,-0.7 0.4,-1.1 0.7,-1.4zm-2.6,3.9l0,9.7l-3.8,0c0,-2.7 0,-9.7 0,-9.7c0,-0.6 0.1,-1.5 0.5,-2.4c0.5,-0.9 1.4,-1.5 1.4,-1.5l0,0c0,0 0.9,0.6 1.3,1.5c0.5,1 0.5,1.8 0.6,2.4zm-5.7,-2.5c0.4,0.9 0.4,1.8 0.4,2.5l0,9.7l-2.5,0l0,-9.7c0,-0.7 0.1,-1.5 0.5,-2.5c0.3,-0.6 0.5,-1.1 0.8,-1.4c0.3,0.4 0.6,0.8 0.8,1.4zm11.4,13.8l0,3.1l-15.4,0l0,-3.1l15.4,0zm0,4.4l0,12.2l-3.7,0l0,-5.5c0,-1.8 -0.7,-3.4 -1.8,-4.4c-0.6,-0.6 -1.3,-1 -2.1,-1.3c-0.1,0 -0.1,0 -0.1,0s0,0 -0.1,0c-0.8,0.3 -1.5,0.7 -2.1,1.3c-1.1,1.1 -1.8,2.6 -1.8,4.4l0,5.5l-3.7,0l0,-12.2l15.4,0l0,0zm-5,6.8l0,5.5l-5.3,0l0,-5.5c0,-2.1 1.1,-3.6 2.6,-4.3c1.6,0.7 2.7,2.1 2.7,4.3zm5,6.8l0,15.6l-3.4,0l0,-7.8c0,-1.8 -0.7,-3.4 -1.8,-4.5c-0.6,-0.6 -1.3,-1 -2.1,-1.3c0,0 -0.3,-0.1 -0.3,-0.1s-0.2,0.1 -0.3,0.1c-0.8,0.3 -1.5,0.7 -2.2,1.3c-1.1,1.1 -1.8,2.7 -1.8,4.5l0,7.8l-3.4,0l0,-15.6l15.3,0l0,0zm-4.7,7.8l0,7.8l-5.9,0l0,-7.8c0,-1.5 0.6,-2.7 1.4,-3.5c0.4,-0.4 0.9,-0.7 1.5,-0.9l0,0c0.6,0.2 1.1,0.5 1.5,0.9c0.9,0.8 1.5,2 1.5,3.5l0,0zm4.7,9.1l0,18.5l-15.4,0l0,-18.5c0.1,0 15.4,0 15.4,0zm0,19.9l0,12.1l-15.4,0l0,-12.1l15.4,0zm0,13.4l0,20.5l-15.4,0l0,-20.5c0.1,0 15.4,0 15.4,0zm2.4,20.4l0,-90.3l-1.9,0l0,-9.9c0,-1.2 -0.2,-2 -0.7,-3.3c-0.1,-0.3 -0.3,-0.7 -0.6,-1l0,-3.6c0,0 0,-2.8 -1.2,-5c-1.3,-2.3 -3.7,-3.6 -4.9,-4.1c-0.3,-0.1 -0.5,-0.2 -0.5,-0.2l-0.2,-0.1l-0.2,0.1c-0.1,0 -2.1,0.7 -3.9,3.2c-1.7,2.3 -1.7,5.3 -1.8,6.1c0,0.1 0,0.2 0,0.2l0,3.3c-0.2,0.3 -0.5,0.8 -0.9,1.6c-0.5,1.3 -0.6,2.4 -0.6,3.1l0,9.6l-1.9,0l0,32.9l-5.3,-5.3l0,-9.4l-1.8,-6.1l-2.6,-20.8l0,0l-2,19.9l-1.8,6.9l0,8.7l-5.3,5.3l0,-32.2l-1.9,0l0,-9.9c0,-1.2 -0.2,-2 -0.7,-3.3c-0.1,-0.3 -0.3,-0.7 -0.6,-1l0,-3.5c0,0 0,-2.8 -1.2,-5c-1.3,-2.3 -3.7,-3.6 -4.9,-4.1c-0.3,-0.1 -0.5,-0.2 -0.5,-0.2l-0.2,-0.1l-0.2,0.1c-0.1,0 -2.1,0.7 -3.9,3.2c-1.7,2.3 -1.7,5.3 -1.8,6.1c0,0.1 0,0.2 0,0.2l0,3.3c-0.2,0.3 -0.5,0.8 -0.9,1.6c-0.5,1.3 -0.6,2.4 -0.6,3.1l0,9.6l-1.9,0l0,90.2l-47.5,0c-6.6,-12.2 -10.4,-26.2 -10.4,-41.1c0,-23.8 9.7,-45.4 25.3,-61c15.6,-15.6 37.1,-25.3 61,-25.3s45.4,9.7 61,25.3c15.6,15.6 25.3,37.2 25.3,61c0,14.9 -3.8,28.9 -10.4,41.1l-46.9,0.1l0,0z"/>
 </g>
</svg>