<?xml version="1.0" encoding="utf-8"?>
<!-- Generator: Adobe Illustrator 19.2.1, SVG Export Plug-In . SVG Version: 6.00 Build 0)  -->
<svg version="1.1" id="layer" xmlns="http://www.w3.org/2000/svg" xmlns:xlink="http://www.w3.org/1999/xlink" x="0px" y="0px"
	 viewBox="0 0 652 652" style="enable-background:new 0 0 652 652;" xml:space="preserve">
<path d="M235.2,383.9v-7l17.1-27.8c1-1.6,2-3,3.1-4.5c-1.7,0.1-3.9,0.1-8.6,0.1h-11v-8.2h30.6v7.3l-18.1,28.5
	c-0.7,1.1-1.3,2.2-2.2,3.3c1.2-0.1,4.4-0.1,10.3-0.1h10.3v8.4H235.2z M295.7,383.9c0-1.6,0.1-4.4,0.4-6.2l-0.1-0.1
	c-2.1,4.1-6.1,7-11.9,7c-7.9,0-10.4-5.1-10.4-11.2V349h8.9v22.3c0,3.7,1,5.8,4.4,5.8c4.6,0,8.1-5.2,8.1-11.3V349h9v34.9H295.7z
	 M332.5,357.1c-6.5-1.3-9.7,2.9-9.7,12.6v14.3h-9V349h8.5c0,1.8-0.2,4.6-0.6,7h0.1c1.7-4.4,5.1-8.3,11.1-7.8L332.5,357.1z
	 M343.9,344.5c-3.1,0-5.6-2.5-5.6-5.5c0-2.9,2.5-5.4,5.6-5.4s5.6,2.4,5.6,5.4C349.6,342,347,344.5,343.9,344.5z M339.4,383.9V349h9
	v34.9H339.4z M370.7,384.5c-9.7,0-15.7-5.1-15.7-16.9c0-10.9,5.7-19.2,18.1-19.2c2.4,0,4.9,0.4,7.2,1l-0.9,7.8
	c-1.9-0.7-4.1-1.3-6.3-1.3c-5.7,0-8.6,4.2-8.6,10.8c0,6,2.3,10,8.3,10c2.4,0,5-0.5,6.9-1.5l0.7,7.7
	C377.9,383.8,374.5,384.5,370.7,384.5z M408.7,383.9v-22.3c0-3.7-1-5.8-4.3-5.8c-4.6,0-8.1,5.2-8.1,11.3v16.9h-9v-51.3h9v15
	c0,2.1-0.1,5.1-0.6,7.1l0.1,0.1c2-3.9,6-6.5,11.5-6.5c7.9,0,10.4,5.1,10.4,11.2v24.5C417.7,383.9,408.7,383.9,408.7,383.9z
	 M431.6,350.8c-5.7,0-7.1-3.1-7.1-6.7v-11.6h4.1v11.3c0,2.1,0.7,3.4,3.2,3.4c2.3,0,3.2-1,3.2-3.7v-11.1h4.1v10.9
	C439.2,348.5,436.3,350.8,431.6,350.8z M442.6,350.5v-3.2l5.7-9.6c0.3-0.5,0.6-0.9,1-1.4c-0.5,0-1.1,0.1-2.8,0.1h-3.7v-3.7h11.6v3.4
	l-6.1,9.8c-0.2,0.3-0.4,0.6-0.7,1c0.3-0.1,1.3-0.1,3.5-0.1h3.4v3.8L442.6,350.5L442.6,350.5z M468.9,350.5V343h-6.5v7.4h-4.1v-17.9
	h4.1v6.9h6.5v-6.9h4.1v17.9H468.9z M255.3,310.4c-15,0-18.3-8.1-18.3-17.2v-31h9.1v30.4c0,6,2,10.2,9.8,10.2c7,0,10-3,10-11v-29.6
	h9.1v29C274.9,304.3,267.8,310.4,255.3,310.4z M306.1,309.7v-22.3c0-3.7-1-5.8-4.3-5.8c-4.6,0-8.1,5.2-8.1,11.3v16.9h-9v-34.9h8.5
	c0,1.6-0.1,4.4-0.5,6.2l0.1,0.1c2.1-4.1,6.2-7,11.9-7c7.9,0,10.4,5.1,10.4,11.2v24.5H306.1z M329.3,270.3c-3.1,0-5.5-2.5-5.5-5.5
	c0-3,2.5-5.4,5.5-5.4c3.1,0,5.6,2.4,5.6,5.4C334.9,267.8,332.4,270.3,329.3,270.3z M324.8,309.7v-34.9h9v34.9H324.8z M360.9,309.7
	h-9.1l-12.9-34.9h9.8l5.5,15.7c0.8,2.4,1.7,5.2,2.3,7.7h0.1c0.6-2.4,1.3-5.1,2.1-7.4l5.6-16h9.6L360.9,309.7z M406.1,293.6h-21.6
	c-0.1,6.5,3.2,9.7,9.6,9.7c3.4,0,7.2-0.8,10.2-2.2l0.8,7c-3.7,1.5-8.2,2.2-12.5,2.2c-11.1,0-17.3-5.6-17.3-17.8
	c0-10.7,5.9-18.6,16.4-18.6c10.2,0,14.7,7,14.7,15.6C406.4,290.8,406.3,292.2,406.1,293.6z M391.4,280.6c-3.7,0-6.3,2.7-6.8,7h12.9
	C397.6,283.2,395.2,280.6,391.4,280.6z M432.6,282.8c-6.5-1.3-9.7,2.9-9.7,12.6v14.3h-9v-34.9h8.5c0,1.8-0.2,4.6-0.6,7h0.1
	c1.7-4.4,5.1-8.3,11.1-7.8L432.6,282.8z M444.9,310.4c-2.5,0-5.1-0.3-7.3-0.6l0.2-7.4c2.2,0.6,4.8,1.1,7.5,1.1
	c3.4,0,5.7-1.4,5.7-3.7c0-6.2-14.1-2.7-14.1-14.5c0-6.1,5-11.2,14.8-11.2c2,0,4.3,0.3,6.4,0.6l-0.3,7.1c-2-0.6-4.3-0.9-6.5-0.9
	c-3.5,0-5.2,1.4-5.2,3.6c0,5.7,14.3,3.2,14.3,14.5C460.5,305.7,454.4,310.4,444.9,310.4z M472.6,270.3c-3.1,0-5.6-2.5-5.6-5.5
	c0-3,2.5-5.4,5.6-5.4s5.6,2.4,5.6,5.4C478.2,267.8,475.7,270.3,472.6,270.3z M468.1,309.7v-34.9h9v34.9H468.1z M499.8,310.4
	c-7.7,0-10.2-2.8-10.2-11v-17.7h-6v-7h6V264l9-2.4v13.1h8.5v7h-8.5V297c0,4.5,1.1,5.8,4.1,5.8c1.5,0,3.1-0.2,4.4-0.6v7.2
	C504.9,310,502.2,310.4,499.8,310.4z M531,312.9c-4.1,10.9-7.8,14.2-15.8,14.2c-1.5,0-3.4-0.2-4.9-0.6l0.6-7.7
	c1.6,0.5,3.1,0.8,4.8,0.8c3,0,4.9-1.3,6.7-6.5l1.2-3.4l-12.9-34.9h10l4.7,13.3c1.1,3,2,6.5,2.7,9.6h0.1c0.8-3.2,2.2-7.8,3.4-11.1
	l4.1-11.9h9.6L531,312.9z M574.2,310.4c-9.9,0-16.3-5.1-16.3-17.6c0-10.9,7.2-18.8,17.8-18.8c9.9,0,16.3,5.5,16.3,17.5
	C592,302.5,584.7,310.4,574.2,310.4z M575.1,281.6c-4,0-7.9,3.1-7.9,10.3s2.6,10.8,7.8,10.8c4.4,0,7.8-3.6,7.8-10.7
	C582.7,285.3,580.4,281.6,575.1,281.6z M620.3,265.8c-1.4-0.5-3-0.6-4.4-0.6c-3.9,0-5.7,2-5.7,6.7v3h8.1v7h-8.1v28h-8.9v-28h-6.1v-7
	h6.1v-2.8c0-9.5,4.4-14.1,13.9-14.1c1.9,0,3.9,0.1,5.7,0.6L620.3,265.8z"/>
<path d="M47.5,354.7c-2,0.9-2.4,1-2.8,1.2c-0.4,0.2-0.6,0.4-0.5,0.9c0,0.1,0.1,0.4,0.2,0.5c0.1,0.1,0.1,0.2,0,0.3
	c-0.1,0-0.2,0-0.2-0.2c-0.3-0.7-0.6-1.6-0.8-2c-0.1-0.3-0.5-1.1-0.7-1.6c-0.1-0.2-0.1-0.3,0-0.3c0.1,0,0.2,0,0.2,0.2
	c0.1,0.1,0.1,0.2,0.2,0.4c0.2,0.3,0.5,0.3,1,0.2c0.4-0.2,0.8-0.3,2.9-1.2l1.9-0.8c1.9-0.8,2.6-1.6,2.8-2.5c0.2-0.8,0-1.5-0.2-1.9
	c-0.2-0.6-0.7-1.2-1.5-1.5c-1.1-0.4-2.3,0.1-3.7,0.6l-1.7,0.7c-2,0.9-2.4,1-2.8,1.2c-0.4,0.2-0.6,0.4-0.5,0.9c0,0.1,0.1,0.4,0.2,0.5
	c0.1,0.1,0.1,0.2,0,0.3c-0.1,0-0.2,0-0.2-0.2c-0.3-0.7-0.6-1.5-0.6-1.5c-0.1-0.2-0.5-1-0.7-1.5c-0.1-0.2-0.1-0.3,0-0.3
	c0.1,0,0.2,0,0.2,0.2c0.1,0.1,0.1,0.2,0.2,0.4c0.2,0.3,0.5,0.3,1,0.2c0.4-0.2,0.8-0.3,2.8-1.2l1.4-0.6c1.5-0.6,3.1-1.2,4.6-0.5
	c1.2,0.6,1.8,1.5,2.2,2.4c0.3,0.7,0.8,2,0.4,3.4c-0.3,0.9-1.1,1.9-3,2.7L47.5,354.7z M47,339.8c1.1-0.3,1.4-0.5,1.5-0.8
	c0-0.3,0-0.5-0.1-0.8c0-0.2,0-0.2,0.1-0.3c0.1,0,0.2,0.1,0.2,0.3c0.2,0.9,0.3,1.5,0.3,1.8c0,0.1,0.2,0.8,0.4,1.5
	c0,0.2,0.1,0.3-0.1,0.3c-0.1,0-0.1-0.1-0.2-0.2c0-0.2-0.1-0.4-0.2-0.6c-0.2-0.3-0.6-0.3-1.9-0.1l-8.5,1.7c-0.3,0.1-0.5,0.1-0.5-0.1
	c0-0.2,0.1-0.3,0.3-0.6c0.1-0.2,2-2.9,3.6-5.4c0.8-1.2,2.4-3.6,2.6-3.8l0-0.1l-6.4,1.5c-0.9,0.2-1.1,0.4-1.2,0.8
	c0,0.2,0,0.6,0.1,0.8c0,0.2,0,0.2-0.1,0.2c-0.1,0-0.2-0.1-0.2-0.3c-0.2-0.7-0.3-1.4-0.3-1.7c0-0.2-0.2-0.7-0.4-1.4
	c0-0.2-0.1-0.3,0.1-0.4c0.1,0,0.1,0.1,0.2,0.2c0,0.1,0.1,0.3,0.1,0.4c0.2,0.4,0.5,0.4,1.3,0.3l9-1.8c0.3-0.1,0.5,0,0.5,0.1
	c0,0.2-0.1,0.4-0.2,0.6c-0.7,1.1-2.1,3.3-3.3,5.1c-1.2,1.9-2.6,3.9-2.8,4.2l0,0L47,339.8z M39.9,326.8c-2.2,0.1-2.6,0.2-3.1,0.2
	c-0.5,0.1-0.7,0.2-0.8,0.5c0,0.2,0,0.4,0,0.5c0,0.1,0,0.2-0.1,0.2c-0.1,0-0.1-0.1-0.1-0.3c0-0.6-0.1-1.5-0.1-1.9
	c0-0.4-0.1-1.2-0.2-1.8c0-0.2,0-0.3,0.1-0.3c0.1,0,0.2,0.1,0.2,0.2c0,0.1,0,0.3,0.1,0.4c0.1,0.4,0.4,0.5,0.9,0.5
	c0.5,0,0.9,0,3.1-0.2l2.6-0.2c1.4-0.1,2.6-0.2,3.2-0.3c0.4-0.1,0.6-0.2,0.7-0.6c0-0.2,0-0.5,0-0.7c0-0.2,0-0.2,0.1-0.2
	c0.1,0,0.2,0.1,0.2,0.3c0.1,1,0.1,1.9,0.1,2.3c0,0.3,0.1,1.2,0.2,1.8c0,0.2,0,0.3-0.1,0.3c-0.1,0-0.1-0.1-0.1-0.2
	c0-0.2-0.1-0.4-0.1-0.5c-0.1-0.3-0.3-0.4-0.8-0.4c-0.6,0-1.8,0-3.2,0.1L39.9,326.8z M36.8,320.3c-0.8,0.3-1,0.5-1.2,1
	c-0.1,0.2-0.1,0.4-0.1,0.6c0,0.1-0.1,0.2-0.1,0.2c-0.1,0-0.1-0.2-0.1-0.4c0.1-0.8,0.1-1.6,0.2-2.1c0-0.4,0-1.1,0.1-1.8
	c0-0.2,0.1-0.3,0.2-0.3c0.1,0,0.1,0.1,0.1,0.2c0,0.2,0,0.5,0.1,0.6c0.1,0.1,0.2,0.2,0.3,0.2c0.2,0,0.6-0.1,1.1-0.3l6.8-2.1l0-0.1
	c-1.6-0.7-6.1-2.9-7.1-3.3c-0.2-0.1-0.4-0.2-0.5-0.2c-0.1,0-0.2,0-0.3,0.2c-0.1,0.2-0.1,0.4-0.1,0.6c0,0.1,0,0.2-0.1,0.2
	c-0.1,0-0.1-0.1-0.1-0.4c0.1-0.7,0.1-1.3,0.1-1.5c0-0.2,0-0.9,0-1.4c0-0.2,0.1-0.3,0.2-0.3c0.1,0,0.1,0.1,0.1,0.2
	c0,0.1,0,0.4,0.1,0.7c0.1,0.2,0.4,0.4,1.3,0.9c1.3,0.7,2.1,1.1,3.8,2c2.1,1.1,3.6,1.9,4.3,2.2c0.8,0.4,1,0.5,1,0.7
	c0,0.2-0.2,0.3-0.9,0.5L36.8,320.3z M40.9,307.4c-2.2-0.5-2.6-0.6-3-0.6c-0.5-0.1-0.7,0-0.9,0.4c-0.1,0.1-0.1,0.3-0.2,0.5
	c0,0.2-0.1,0.2-0.2,0.2c-0.1,0-0.1-0.1-0.1-0.3c0.1-0.4,0.2-0.8,0.3-1.1c0.1-0.4,0.2-0.7,0.2-0.9c0.1-0.5,0.7-3.3,0.7-3.6
	c0-0.3,0.1-0.5,0.1-0.6c0-0.1,0-0.2,0-0.2c0-0.1,0.1-0.1,0.1-0.1c0.1,0,0.2,0.1,0.9,0.3c0.1,0,0.8,0.2,0.9,0.3
	c0.1,0,0.1,0.1,0.1,0.2c0,0.1-0.1,0.1-0.2,0.1c-0.1,0-0.3-0.1-0.5,0c-0.3,0-0.5,0.2-0.7,0.8c-0.1,0.2-0.4,1.7-0.5,2
	c0,0.1,0,0.1,0.1,0.1l3.6,0.8c0.1,0,0.2,0,0.2-0.1c0.1-0.3,0.4-2,0.5-2.3c0-0.3,0.1-0.6-0.1-0.7c-0.1-0.1-0.2-0.2-0.1-0.3
	c0-0.1,0.1-0.1,0.1-0.1c0.1,0,0.3,0.1,1,0.3c0.3,0.1,0.8,0.2,0.9,0.3c0.1,0,0.3,0.1,0.2,0.2c0,0.1-0.1,0.1-0.2,0.1
	c-0.1,0-0.3-0.1-0.5-0.1c-0.3,0-0.6,0.2-0.7,0.7c-0.1,0.3-0.4,1.7-0.5,2c0,0.1,0,0.1,0.1,0.1l1.1,0.2c0.5,0.1,1.8,0.4,2.2,0.5
	c1,0.2,1.3,0,1.6-1.5c0.1-0.4,0.2-1,0.1-1.4c-0.1-0.4-0.4-0.6-0.9-0.9c-0.1-0.1-0.2-0.1-0.2-0.2c0-0.1,0.1-0.1,0.3-0.1
	c0.3,0.1,1.3,0.4,1.5,0.5c0.3,0.2,0.3,0.3,0.2,0.8c-0.2,1.1-0.4,1.8-0.6,2.5c-0.2,0.6-0.3,1.1-0.4,1.5c0,0.2-0.1,0.5-0.2,0.8
	c-0.1,0.3-0.1,0.7-0.2,1c0,0.2-0.1,0.3-0.2,0.3c-0.1,0-0.1-0.1-0.1-0.3c0-0.2,0.1-0.4,0.1-0.5c0-0.3-0.3-0.4-0.7-0.6
	c-0.6-0.2-1.7-0.4-3-0.7L40.9,307.4z M43.7,296.9c-2.1-0.8-2.4-0.9-2.9-1.1c-0.5-0.2-0.7-0.1-1,0.3c-0.1,0.1-0.2,0.3-0.2,0.5
	c-0.1,0.1-0.1,0.2-0.2,0.2c-0.1,0-0.1-0.1,0-0.4c0.3-0.7,0.7-1.6,0.8-1.8c0.2-0.5,0.5-1.5,0.7-1.9c0.3-0.9,0.8-1.7,1.5-2.3
	c0.4-0.3,1.3-0.6,2.2-0.2c1,0.4,1.8,1.2,2.4,3c2-0.6,3.6-1.1,4.7-1.6c1.1-0.5,1.4-1,1.5-1.2c0.1-0.1,0.1-0.3,0.2-0.4
	s0.1-0.1,0.2-0.1c0.1,0,0.1,0.1,0,0.3l-0.5,1.3c-0.3,0.8-0.5,1.1-0.8,1.4c-0.5,0.5-1.4,0.7-2.7,1.1c-1,0.3-2.1,0.5-2.4,0.6
	c-0.1,0-0.2,0.1-0.2,0.2l-0.5,1.2c0,0.1,0,0.1,0.1,0.2l0.2,0.1c1.3,0.5,2.3,0.9,2.9,1.1c0.4,0.1,0.7,0.1,0.9-0.2
	c0.1-0.2,0.2-0.5,0.3-0.6c0-0.1,0.1-0.1,0.2-0.1c0.1,0,0.1,0.1,0,0.3c-0.3,0.8-0.7,1.8-0.8,2c-0.1,0.3-0.4,1.1-0.6,1.7
	c-0.1,0.2-0.1,0.2-0.2,0.2c-0.1,0-0.1-0.1,0-0.3c0.1-0.2,0.1-0.4,0.1-0.5c0.1-0.3-0.2-0.5-0.6-0.7c-0.5-0.3-1.6-0.7-2.9-1.2
	L43.7,296.9z M45.3,295.7c0.1,0.1,0.2,0.1,0.3,0c0.2-0.2,0.4-0.6,0.5-1c0.2-0.5,0.2-0.7,0.1-1.1c-0.1-0.5-0.6-1.2-1.7-1.6
	c-1.9-0.7-3,0.3-3.3,1.1c-0.1,0.3-0.2,0.6-0.2,0.7c0,0.1,0,0.2,0.1,0.2L45.3,295.7z M53.9,289.6c-0.2,0.1-0.3,0.2-0.6,0
	c-0.7-0.4-1.4-0.9-1.6-1c-0.2-0.1-0.3-0.2-0.2-0.3c0.1-0.1,0.2-0.1,0.3,0c0.2,0.1,0.5,0.2,0.7,0.2c1.1,0.2,1.9-0.3,2.3-1.1
	c0.6-1.1,0.2-2.1-0.5-2.5c-0.6-0.4-1.3-0.5-2.7,0.1l-0.8,0.3c-1.9,0.8-3,0.8-4.1,0.2c-1.4-0.8-1.7-2.5-0.7-4.3
	c0.5-0.8,0.9-1.3,1.2-1.6c0.1-0.1,0.2-0.1,0.3-0.1c0.2,0.1,0.5,0.4,1.5,0.9c0.3,0.2,0.4,0.3,0.3,0.4c-0.1,0.1-0.1,0.1-0.3,0
	c-0.1-0.1-0.5-0.2-1-0.1c-0.4,0.1-0.9,0.2-1.4,1c-0.5,0.9-0.3,1.8,0.4,2.2c0.6,0.3,1.2,0.3,2.6-0.3l0.5-0.2c2-0.9,3.2-0.9,4.4-0.2
	c0.7,0.4,1.5,1.2,1.5,2.4c0,0.9-0.2,1.6-0.6,2.3C54.9,288.7,54.5,289.2,53.9,289.6z M53.6,277.6c-1.8-1.3-2.1-1.5-2.5-1.8
	c-0.4-0.3-0.7-0.3-1-0.1c-0.1,0.1-0.2,0.2-0.4,0.4c-0.1,0.1-0.2,0.2-0.3,0.1c-0.1-0.1,0-0.2,0.1-0.4c0.3-0.4,0.9-1.2,1.2-1.5
	c0.2-0.3,0.7-1,1-1.5c0.1-0.2,0.2-0.2,0.3-0.2c0.1,0.1,0.1,0.2,0,0.3c-0.1,0.1-0.1,0.2-0.2,0.4c-0.2,0.4,0,0.6,0.4,0.9
	c0.4,0.3,0.7,0.5,2.5,1.8l2.1,1.5c1.1,0.8,2.1,1.5,2.6,1.8c0.3,0.2,0.6,0.3,0.9-0.1c0.1-0.1,0.4-0.4,0.5-0.6
	c0.1-0.1,0.2-0.2,0.2-0.1c0.1,0.1,0.1,0.2,0,0.3c-0.6,0.8-1.1,1.5-1.4,1.8c-0.2,0.3-0.7,1-1,1.5c-0.1,0.2-0.2,0.2-0.3,0.2
	c-0.1,0-0.1-0.1,0-0.3c0.1-0.2,0.2-0.3,0.3-0.5c0.1-0.3,0-0.5-0.3-0.8c-0.5-0.4-1.4-1.1-2.5-1.9L53.6,277.6z M57.2,267.7l-1.5,1.6
	c-0.6,0.6-0.7,0.9-0.7,1.3c0.1,0.3,0.1,0.4,0.2,0.5c0.1,0.1,0.1,0.2,0,0.2c-0.1,0.1-0.1,0-0.3-0.1c-0.2-0.2-0.9-1.3-1-1.4
	c-0.1-0.2-0.1-0.3-0.1-0.3c0.1-0.1,0.3-0.1,0.6-0.3c0.3-0.3,0.7-0.7,1.1-1l4-4.2c0.3-0.3,0.5-0.6,0.6-0.8c0.1-0.2,0.2-0.3,0.2-0.3
	c0.1-0.1,0.1,0,0.3,0.1c0.2,0.2,0.9,0.9,1.2,1.2c0.1,0.1,0.1,0.2,0.1,0.3c-0.1,0.1-0.2,0.1-0.3-0.1l-0.1-0.1
	c-0.3-0.2-0.9-0.2-1.8,0.7l-1.3,1.3l4.3,4.1c1,0.9,1.8,1.7,2.3,2.1c0.3,0.2,0.6,0.4,1,0.1c0.2-0.1,0.4-0.3,0.6-0.5
	c0.1-0.1,0.2-0.1,0.2-0.1c0.1,0.1,0,0.2-0.1,0.3c-0.7,0.7-1.3,1.3-1.6,1.6c-0.2,0.2-0.8,0.9-1.2,1.4c-0.1,0.1-0.2,0.2-0.3,0.1
	c-0.1-0.1-0.1-0.1,0.1-0.2c0.2-0.2,0.2-0.3,0.3-0.4c0.2-0.3,0-0.5-0.3-0.9c-0.4-0.5-1.2-1.3-2.2-2.2L57.2,267.7z M68.3,266
	c-0.1,0-0.1,0.1,0,0.2l0.7,2.1c0.1,0.4,0.3,0.7,0.4,0.8c0.2,0.2,0.4,0.3,0.7,0l0.2-0.1c0.1-0.1,0.2-0.1,0.2,0c0.1,0.1,0,0.2-0.1,0.3
	c-0.4,0.3-0.9,0.6-1.2,0.9c-0.1,0.1-0.7,0.6-1.3,1.1c-0.1,0.1-0.2,0.2-0.3,0.1c-0.1-0.1,0-0.1,0.1-0.2c0.1-0.1,0.2-0.2,0.3-0.3
	c0.5-0.5,0.4-1,0.2-1.8l-2.8-9.4c-0.1-0.4-0.2-0.6,0-0.7c0.1-0.1,0.2,0,0.6,0.1c0.8,0.4,6.3,3.6,8.4,4.8c1.3,0.7,1.7,0.6,2,0.4
	c0.2-0.1,0.4-0.2,0.5-0.3c0.1-0.1,0.2-0.1,0.2,0c0.1,0.1,0,0.2-0.4,0.5c-0.4,0.3-1.2,1-2.2,1.7c-0.2,0.2-0.4,0.3-0.4,0.2
	c-0.1-0.1,0-0.1,0.1-0.2c0.1-0.1,0.1-0.3-0.1-0.3l-2.8-1.7c-0.1,0-0.1,0-0.2,0L68.3,266z M70.1,263.5c0.1,0,0-0.1,0-0.1l-3.3-2
	c0,0-0.1-0.1-0.1-0.1c0,0,0,0.1,0,0.2l1.2,3.6c0,0.1,0.1,0.1,0.1,0L70.1,263.5z M77.7,263.4c-0.2,0-0.3,0-0.5-0.3
	c-0.4-0.7-0.8-1.5-0.9-1.7c-0.1-0.2-0.1-0.4,0-0.4c0.1-0.1,0.2,0,0.2,0.1c0.1,0.2,0.3,0.4,0.5,0.6c0.8,0.8,1.8,0.7,2.5,0.2
	c1.1-0.7,1.2-1.8,0.8-2.4c-0.4-0.6-0.9-1.1-2.4-1.3l-0.8-0.1c-2-0.3-3-0.9-3.6-1.9c-0.8-1.4-0.2-3,1.5-4.1c0.8-0.5,1.4-0.7,1.8-0.8
	c0.1,0,0.2,0,0.3,0.1c0.1,0.2,0.3,0.6,0.8,1.5c0.2,0.3,0.2,0.4,0.1,0.5c-0.1,0.1-0.2,0-0.3-0.2c-0.1-0.1-0.4-0.5-0.8-0.6
	c-0.3-0.1-0.9-0.3-1.7,0.2c-0.9,0.6-1.2,1.4-0.7,2.2c0.3,0.6,0.9,0.8,2.4,1l0.5,0.1c2.2,0.2,3.2,0.8,4,2c0.4,0.7,0.7,1.8,0.1,2.9
	c-0.4,0.8-1,1.3-1.7,1.7C79,263.1,78.4,263.4,77.7,263.4z M153.8,252.8l-1.9-1.1c-0.7-0.4-1.1-0.5-1.4-0.4c-0.2,0.1-0.4,0.2-0.5,0.3
	c-0.1,0.1-0.2,0.1-0.2,0.1c-0.1-0.1-0.1-0.1,0-0.3c0.1-0.2,1-1.2,1.1-1.3c0.1-0.1,0.2-0.2,0.3-0.1c0.1,0.1,0.2,0.3,0.4,0.5
	c0.3,0.2,0.8,0.6,1.2,0.8l5,2.9c0.4,0.2,0.7,0.4,0.9,0.4c0.2,0.1,0.3,0.1,0.4,0.1c0.1,0.1,0.1,0.1-0.1,0.3c-0.2,0.3-0.7,1.1-0.9,1.4
	c-0.1,0.1-0.2,0.2-0.2,0.1c-0.1-0.1-0.1-0.1,0-0.3l0.1-0.1c0.2-0.3,0-0.9-1.1-1.6l-1.6-1l-3,5.2c-0.7,1.2-1.3,2.2-1.5,2.7
	c-0.2,0.4-0.3,0.7,0.1,1c0.2,0.1,0.4,0.3,0.6,0.4c0.1,0.1,0.2,0.2,0.1,0.2c-0.1,0.1-0.2,0.1-0.3,0c-0.8-0.5-1.6-1-1.9-1.2
	c-0.3-0.2-1.1-0.6-1.6-0.9c-0.2-0.1-0.2-0.2-0.2-0.3c0-0.1,0.1-0.1,0.3,0c0.2,0.1,0.4,0.2,0.5,0.2c0.3,0.1,0.5-0.1,0.8-0.5
	c0.4-0.5,1-1.5,1.6-2.6L153.8,252.8z M160.4,261.1c1.4-1.7,1.7-2,2-2.4c0.3-0.4,0.4-0.6,0.1-1c-0.1-0.1-0.2-0.3-0.4-0.4
	c-0.1-0.1-0.2-0.2-0.1-0.3c0.1-0.1,0.2,0,0.3,0.1c0.6,0.5,1.3,1.1,1.6,1.4c0.3,0.2,1,0.8,1.4,1.1c0.2,0.1,0.2,0.2,0.2,0.3
	c-0.1,0.1-0.2,0-0.3-0.1c-0.1-0.1-0.2-0.2-0.4-0.2c-0.3-0.2-0.6-0.1-0.9,0.3c-0.3,0.3-0.6,0.6-2,2.3l-1.3,1.5
	c-1.4,1.6-1.6,2.6-1.5,3.5c0.1,0.8,0.6,1.3,1,1.6c0.5,0.4,1.2,0.8,2,0.7c1.1-0.1,2-1.1,3-2.2l1.2-1.4c1.4-1.7,1.7-2,2-2.4
	c0.3-0.4,0.4-0.7,0.1-1c-0.1-0.1-0.2-0.3-0.4-0.4c-0.1-0.1-0.2-0.2-0.1-0.3c0.1-0.1,0.2,0,0.3,0.1c0.6,0.5,1.2,1.1,1.2,1.1
	c0.1,0.1,0.9,0.7,1.3,1c0.2,0.1,0.2,0.2,0.1,0.3c-0.1,0.1-0.1,0-0.3-0.1c-0.1-0.1-0.2-0.2-0.3-0.2c-0.4-0.2-0.6-0.1-1,0.3
	c-0.3,0.3-0.6,0.6-2,2.3l-1,1.2c-1.1,1.2-2.3,2.4-3.9,2.4c-1.4,0-2.3-0.6-3-1.2c-0.6-0.5-1.6-1.5-1.8-2.9c-0.1-1,0.2-2.2,1.5-3.8
	L160.4,261.1z M171.5,271.5c1.7-1.4,2-1.6,2.4-2c0.4-0.3,0.5-0.6,0.3-1c-0.1-0.1-0.2-0.3-0.3-0.5c-0.1-0.1-0.1-0.2-0.1-0.3
	c0.1-0.1,0.2,0,0.3,0.2c0.5,0.6,1,1.3,1.2,1.6c0.3,0.4,1,1.2,1.3,1.6c0.6,0.7,1.1,1.5,1.2,2.5c0,0.5-0.2,1.4-0.9,2
	c-0.8,0.7-1.9,0.9-3.8,0.5c-0.5,2-0.8,3.6-1,4.9c-0.1,1.2,0.1,1.7,0.2,1.9c0.1,0.1,0.1,0.2,0.2,0.3c0.1,0.1,0.1,0.2,0,0.2
	c-0.1,0.1-0.2,0-0.3-0.1l-0.9-1.1c-0.5-0.6-0.7-1-0.8-1.4c-0.1-0.7,0.1-1.6,0.4-2.9c0.3-1,0.6-2.1,0.7-2.4c0-0.1,0-0.2-0.1-0.3
	l-0.8-1c-0.1-0.1-0.1-0.1-0.2,0l-0.2,0.1c-1.1,0.9-2,1.6-2.4,2c-0.3,0.3-0.5,0.6-0.3,0.9c0.1,0.2,0.3,0.5,0.4,0.6
	c0.1,0.1,0.1,0.2,0,0.2c-0.1,0.1-0.2,0-0.3-0.1c-0.5-0.7-1.2-1.5-1.3-1.7c-0.2-0.2-0.8-0.9-1.1-1.4c-0.1-0.1-0.1-0.3-0.1-0.3
	c0.1,0,0.1,0,0.2,0.1c0.1,0.2,0.3,0.3,0.4,0.4c0.2,0.2,0.5,0,0.9-0.2c0.5-0.3,1.4-1.1,2.5-1.9L171.5,271.5z M171.6,273.6
	c-0.1,0.1-0.1,0.2-0.1,0.3c0.1,0.3,0.4,0.7,0.6,1c0.4,0.5,0.5,0.6,0.8,0.7c0.5,0.1,1.3,0.1,2.2-0.7c1.6-1.3,1.2-2.7,0.7-3.4
	c-0.2-0.3-0.4-0.5-0.5-0.6c-0.1-0.1-0.1,0-0.2,0L171.6,273.6z M179.2,282.2c1.9-1.1,2.3-1.3,2.6-1.6c0.4-0.3,0.6-0.5,0.5-0.8
	c0-0.2-0.1-0.3-0.2-0.5c-0.1-0.1-0.1-0.2,0-0.3c0.1,0,0.2,0,0.3,0.2c0.3,0.5,0.7,1.3,0.9,1.7c0.2,0.3,0.7,1,0.9,1.5
	c0.1,0.2,0.1,0.3,0.1,0.3c-0.1,0.1-0.2,0-0.2-0.1c-0.1-0.1-0.1-0.2-0.3-0.4c-0.3-0.3-0.5-0.3-1,0c-0.4,0.2-0.8,0.4-2.7,1.5l-2.2,1.3
	c-1.2,0.7-2.2,1.3-2.7,1.7c-0.3,0.2-0.5,0.5-0.3,0.9c0.1,0.2,0.2,0.5,0.3,0.7c0.1,0.1,0.1,0.2,0,0.3c-0.1,0.1-0.2,0-0.3-0.2
	c-0.5-0.8-0.9-1.6-1.1-2c-0.2-0.3-0.7-1.1-1-1.6c-0.1-0.2-0.1-0.3,0-0.3c0.1,0,0.1,0,0.2,0.1c0.1,0.2,0.2,0.3,0.3,0.4
	c0.2,0.2,0.5,0.2,0.8,0c0.6-0.2,1.6-0.8,2.8-1.5L179.2,282.2z M178.1,291.5c0.6-1.8,2-2.8,3.3-3.3c0.9-0.4,2.6-0.8,4.3,0.1
	c1.3,0.6,2.4,1.7,3.2,3.7c0.3,0.8,0.5,1.4,0.7,2c0.1,0.5,0.2,1,0.3,1.4c0,0.2,0,0.2-0.1,0.3c-0.1,0-0.3,0.1-0.8,0.2
	c-0.5,0.2-1.2,0.5-1.5,0.6c-0.2,0.1-0.3,0.1-0.4,0c0-0.1,0.1-0.2,0.2-0.3c0.4-0.2,0.8-0.6,1-1c0.3-0.6,0.2-1.8-0.3-3.1
	c-0.5-1.2-1.1-1.8-1.9-2.2c-1.3-0.6-2.7-0.3-4,0.2c-3.2,1.3-3.8,4.4-3,6.2c0.5,1.2,0.9,1.9,1.8,2.2c0.4,0.1,0.8,0.1,1.1,0.1
	c0.2,0,0.3,0,0.3,0.1c0,0.1,0,0.2-0.2,0.2c-0.2,0.1-1.4,0.4-1.9,0.4c-0.3,0-0.3,0-0.5-0.2c-0.4-0.4-1-1.4-1.3-2.3
	C177.8,294.9,177.6,293.1,178.1,291.5z M187.7,302.4c2.2-0.5,2.6-0.6,3-0.7c0.5-0.1,0.7-0.3,0.7-0.8c0-0.1,0-0.4-0.1-0.6
	c0-0.2,0-0.2,0.1-0.3c0.1,0,0.2,0.1,0.2,0.3c0.1,0.4,0.2,0.8,0.2,1.2c0.1,0.4,0.1,0.7,0.2,0.9c0.1,0.5,0.7,3.3,0.8,3.6
	c0.1,0.3,0.2,0.5,0.2,0.6c0,0.1,0.1,0.1,0.1,0.2s0,0.1-0.1,0.1c-0.1,0-0.3,0-1,0.1c-0.1,0-0.8,0.1-1,0.1c-0.1,0-0.2,0-0.2-0.1
	c0-0.1,0-0.1,0.2-0.2c0.1,0,0.3-0.1,0.5-0.2c0.2-0.2,0.4-0.3,0.3-1.1c0-0.2-0.3-1.7-0.4-2c0-0.1-0.1-0.1-0.2-0.1l-3.6,0.8
	c-0.1,0-0.2,0.1-0.1,0.1c0.1,0.3,0.4,1.9,0.5,2.3c0.1,0.3,0.2,0.5,0.4,0.6c0.1,0.1,0.2,0.1,0.2,0.2c0,0.1,0,0.1-0.1,0.1
	c-0.1,0-0.3,0-1.1,0.1c-0.3,0.1-0.9,0.1-1,0.2c-0.1,0-0.3,0.1-0.3-0.1c0-0.1,0-0.1,0.1-0.2c0.1,0,0.3-0.1,0.5-0.2
	c0.3-0.1,0.4-0.4,0.4-0.9c0-0.3-0.3-1.7-0.4-2c0-0.1-0.1-0.1-0.2-0.1l-1.1,0.3c-0.5,0.1-1.8,0.4-2.2,0.5c-1,0.2-1.1,0.5-0.8,2
	c0.1,0.4,0.2,1,0.5,1.3c0.2,0.3,0.6,0.4,1.2,0.4c0.2,0,0.2,0,0.2,0.1c0,0.1-0.1,0.1-0.2,0.2c-0.3,0.1-1.3,0.2-1.6,0.2
	c-0.4,0-0.4-0.1-0.5-0.7c-0.2-1.1-0.4-1.9-0.5-2.5c-0.1-0.6-0.2-1.1-0.3-1.5c0-0.2-0.1-0.5-0.2-0.8c-0.1-0.3-0.2-0.7-0.2-1
	c0-0.2,0-0.3,0.1-0.3c0.1,0,0.1,0,0.2,0.2c0,0.2,0.1,0.4,0.2,0.5c0.1,0.3,0.4,0.3,0.9,0.2c0.6-0.1,1.7-0.3,3-0.6L187.7,302.4z
	 M185,314.8c-1.1,0.1-1.5,0.3-1.6,0.6c-0.1,0.2-0.1,0.5-0.1,0.8c0,0.2,0,0.2-0.1,0.2c-0.1,0-0.2-0.1-0.2-0.3c0-0.9,0-1.5,0-1.8
	c0-0.1-0.1-0.8-0.1-1.6c0-0.2,0-0.3,0.1-0.3c0.1,0,0.1,0.1,0.1,0.2c0,0.2,0,0.5,0.1,0.7c0.1,0.4,0.6,0.4,1.8,0.4l8.6-0.2
	c0.3,0,0.5,0,0.5,0.2c0,0.2-0.2,0.3-0.4,0.6c-0.2,0.2-2.5,2.5-4.5,4.7c-1,1-3,3.1-3.2,3.3v0.1l6.5-0.4c0.9,0,1.2-0.2,1.3-0.5
	c0.1-0.2,0.1-0.6,0.1-0.8c0-0.2,0-0.2,0.1-0.2c0.1,0,0.1,0.2,0.1,0.4c0,0.8,0,1.5,0,1.8c0,0.2,0.1,0.7,0.1,1.4c0,0.2,0,0.3-0.1,0.3
	c-0.1,0-0.1-0.1-0.1-0.3c0-0.1,0-0.3-0.1-0.4c-0.1-0.4-0.4-0.5-1.3-0.5l-9.2,0.2c-0.3,0-0.5,0-0.5-0.2c0-0.2,0.1-0.3,0.3-0.5
	c0.8-0.9,2.7-2.9,4.1-4.5c1.5-1.6,3.3-3.3,3.5-3.6v0L185,314.8z M183.1,328.3c0.1-0.2,0.2-0.2,0.5-0.2c0.8,0.1,1.7,0.3,1.9,0.4
	c0.2,0,0.4,0.1,0.4,0.2c0,0.1-0.1,0.1-0.3,0.1c-0.2,0-0.5,0-0.8,0c-1.1,0.2-1.6,1-1.8,1.9c-0.2,1.3,0.6,2.1,1.4,2.2
	c0.7,0.1,1.4,0,2.5-1.1l0.6-0.6c1.5-1.4,2.6-1.8,3.7-1.6c1.6,0.2,2.5,1.7,2.2,3.7c-0.1,0.9-0.4,1.5-0.5,1.9c0,0.1-0.1,0.2-0.2,0.2
	c-0.2,0-0.6-0.1-1.7-0.3c-0.3,0-0.4-0.1-0.4-0.2c0-0.1,0.1-0.1,0.3-0.1c0.1,0,0.6,0,1-0.2c0.3-0.2,0.8-0.5,0.9-1.5
	c0.2-1.1-0.4-1.8-1.2-1.9c-0.7-0.1-1.2,0.2-2.3,1.2l-0.4,0.4c-1.6,1.6-2.6,2-4,1.8c-0.8-0.1-1.8-0.6-2.3-1.7
	c-0.4-0.8-0.4-1.6-0.3-2.4C182.5,329.5,182.7,328.9,183.1,328.3z M187.4,340.7c2.1,0.6,2.5,0.7,3,0.8c0.5,0.1,0.8,0,0.9-0.3
	c0.1-0.1,0.2-0.3,0.2-0.5c0-0.1,0.1-0.2,0.2-0.2c0.1,0,0.1,0.1,0,0.4c-0.2,0.5-0.4,1.4-0.6,1.8c-0.1,0.4-0.3,1.2-0.4,1.7
	c-0.1,0.2-0.1,0.3-0.2,0.3c-0.1,0-0.1-0.1-0.1-0.3c0-0.1,0.1-0.2,0.1-0.4c0-0.4-0.2-0.6-0.7-0.7c-0.4-0.2-0.8-0.3-3-0.9l-2.5-0.7
	c-1.4-0.4-2.5-0.7-3.1-0.8c-0.4-0.1-0.7,0-0.8,0.4c-0.1,0.2-0.2,0.5-0.3,0.7c0,0.2-0.1,0.2-0.2,0.2c-0.1,0-0.1-0.2-0.1-0.3
	c0.3-0.9,0.6-1.8,0.7-2.2c0.1-0.3,0.3-1.2,0.5-1.8c0.1-0.2,0.1-0.3,0.2-0.2c0.1,0,0.1,0.1,0.1,0.3c-0.1,0.2-0.1,0.4-0.1,0.5
	c0,0.3,0.2,0.4,0.6,0.6c0.6,0.2,1.7,0.5,3,0.9L187.4,340.7z M178.8,345.8c0.2-0.2,0.3-0.2,0.6-0.1c0.7,0.3,1.5,0.7,1.7,0.8
	c0.2,0.1,0.3,0.2,0.3,0.3c-0.1,0.1-0.2,0.1-0.3,0c-0.2-0.1-0.5-0.1-0.7-0.2c-1.1-0.1-1.8,0.5-2.2,1.3c-0.5,1.2,0,2.1,0.7,2.5
	c0.7,0.3,1.4,0.4,2.7-0.4l0.7-0.4c1.8-1,2.9-1.1,4-0.6c1.5,0.6,2,2.3,1.2,4.2c-0.4,0.9-0.8,1.4-1,1.7c-0.1,0.1-0.1,0.2-0.2,0.1
	c-0.2-0.1-0.5-0.3-1.6-0.7c-0.3-0.1-0.4-0.2-0.3-0.3c0-0.1,0.1-0.1,0.3,0c0.1,0.1,0.6,0.2,1,0c0.3-0.1,0.9-0.3,1.3-1.2
	c0.4-1,0.1-1.8-0.7-2.2c-0.6-0.3-1.2-0.2-2.5,0.6l-0.4,0.2c-1.9,1.1-3.1,1.3-4.4,0.7c-0.8-0.3-1.6-1-1.8-2.3
	c-0.1-0.9,0.1-1.7,0.4-2.4C178,346.8,178.3,346.3,178.8,345.8z M74.7,390c-0.1,0-0.2,0-0.4-0.1c-0.2-0.1-0.3-0.2-0.4-0.7l-0.7-4.9
	c0-0.2-0.1-0.3-0.2-0.3c-0.1,0-0.2,0.1-0.3,0.2l-2.1,4.3l-2.1-4.3c-0.1-0.2-0.2-0.3-0.3-0.3c-0.1,0-0.2,0.1-0.2,0.3l-0.8,5.1
	c0,0.3-0.1,0.5-0.3,0.6c-0.1,0-0.2,0-0.2,0c-0.1,0-0.2,0-0.2,0.1c0,0.1,0.1,0.2,0.2,0.2c0.3,0,0.7,0,0.8,0c0.1,0,0.5,0,0.9,0
	c0.1,0,0.2,0,0.3-0.2c0-0.1-0.1-0.1-0.2-0.1c-0.1,0-0.1,0-0.3,0c-0.1,0-0.2-0.1-0.2-0.2c0-0.1,0-0.2,0-0.4l0.4-2.9
	c0.3,0.6,0.7,1.4,0.7,1.5c0.1,0.2,0.7,1.4,0.9,1.8c0.1,0.2,0.2,0.4,0.4,0.4c0.2,0,0.2-0.1,0.4-0.5l1.7-3.4l0.4,3.2
	c0,0.1,0,0.1,0,0.2c0,0.1,0,0.1,0,0.1c-0.1,0-0.1,0.1-0.1,0.1c0,0.1,0.1,0.2,0.3,0.2c0.3,0,1.5,0.1,1.7,0.1c0.1,0,0.3,0,0.3-0.2
	C74.9,390,74.8,390,74.7,390z M81.4,385.1c-0.9-0.9-2.3-0.9-3.3-0.9c-0.5,0-1.1,0-1.3,0c-0.2,0-0.8,0-1.2,0c-0.1,0-0.2,0-0.3,0.1
	c0,0.1,0.1,0.2,0.2,0.2c0.1,0,0.3,0,0.3,0c0.2,0.1,0.3,0.1,0.3,0.4c0,0.2,0,0.5,0,1.7v1.4c0,0.7,0,1.3,0,1.7c0,0.2-0.1,0.3-0.2,0.4
	c-0.1,0-0.2,0-0.3,0s-0.2,0.1-0.2,0.2c0,0.1,0.1,0.1,0.2,0.1c0.2,0,0.4,0,0.6,0c0.2,0,0.4,0,0.5,0c0.2,0,0.5,0,0.8,0.1
	c0.3,0,0.7,0,1,0c1.5,0,2.4-0.6,2.8-0.9c0.5-0.5,0.9-1.2,0.9-2.2C82.2,386.2,81.8,385.6,81.4,385.1z M80.9,387.4
	c0,0.8-0.2,1.5-0.7,1.9c-0.5,0.4-1,0.5-1.7,0.5c-0.6,0-0.9-0.2-1-0.3c0,0-0.1-0.3-0.1-0.5c0-0.2,0-0.8,0-1.6v-1c0-0.6,0-1.3,0-1.5
	c0-0.1,0-0.1,0.1-0.1c0,0,0.3-0.1,0.5-0.1c0.6,0,1.5,0.1,2.2,0.7C80.5,385.8,80.9,386.4,80.9,387.4z M88.6,388.7
	c-0.1,0-0.2,0.1-0.2,0.2c0,0.1-0.1,0.4-0.3,0.5c-0.3,0.3-0.7,0.4-1.4,0.4c-1.1,0-2.5-0.9-2.5-2.7c0-0.8,0.1-1.5,0.7-2
	c0.4-0.3,0.8-0.4,1.5-0.4c0.7,0,1.3,0.2,1.5,0.4c0.2,0.2,0.3,0.5,0.3,0.7c0,0.1,0,0.2,0.2,0.2c0.1,0,0.2-0.1,0.2-0.3
	c0-0.2,0-0.6,0-0.9c0-0.3,0-0.4,0-0.4c0-0.1-0.1-0.2-0.2-0.2c-0.2,0-0.5-0.1-0.8-0.1c-0.4,0-0.7-0.1-1.2-0.1c-1.2,0-2,0.3-2.6,0.9
	c-0.8,0.7-1,1.7-1,2.2c0,0.8,0.2,1.7,1,2.4c0.8,0.6,1.7,0.9,2.8,0.9c0.5,0,1.2,0,1.5-0.2c0.1-0.1,0.2-0.1,0.2-0.3
	c0.1-0.3,0.2-1,0.2-1.1C88.8,388.8,88.7,388.7,88.6,388.7z M95.1,388.7c-0.1,0-0.2,0.1-0.2,0.2c0,0.1-0.1,0.4-0.3,0.5
	c-0.3,0.3-0.7,0.4-1.4,0.4c-1.1,0-2.5-0.9-2.5-2.7c0-0.8,0.1-1.5,0.7-2c0.4-0.3,0.8-0.4,1.5-0.4c0.7,0,1.3,0.2,1.5,0.4
	c0.2,0.2,0.3,0.5,0.3,0.7c0,0.1,0,0.2,0.2,0.2c0.1,0,0.2-0.1,0.2-0.3c0-0.2,0-0.6,0-0.9c0-0.3,0-0.4,0-0.4c0-0.1-0.1-0.2-0.2-0.2
	c-0.2,0-0.5-0.1-0.8-0.1c-0.4,0-0.7-0.1-1.2-0.1c-1.2,0-2,0.3-2.6,0.9c-0.8,0.7-1,1.7-1,2.2c0,0.8,0.2,1.7,1,2.4
	c0.8,0.6,1.7,0.9,2.8,0.9c0.5,0,1.2,0,1.5-0.2c0.1-0.1,0.2-0.1,0.2-0.3c0.1-0.3,0.2-1,0.2-1.1C95.3,388.8,95.3,388.7,95.1,388.7z
	 M101.7,388.7c-0.1,0-0.2,0.1-0.2,0.2c0,0.1-0.1,0.4-0.3,0.5c-0.3,0.3-0.7,0.4-1.4,0.4c-1.1,0-2.5-0.9-2.5-2.7c0-0.8,0.1-1.5,0.7-2
	c0.4-0.3,0.8-0.4,1.5-0.4c0.7,0,1.3,0.2,1.5,0.4c0.2,0.2,0.3,0.5,0.3,0.7c0,0.1,0,0.2,0.2,0.2c0.1,0,0.2-0.1,0.2-0.3
	c0-0.2,0-0.6,0-0.9c0-0.3,0-0.4,0-0.4c0-0.1-0.1-0.2-0.2-0.2c-0.2,0-0.5-0.1-0.8-0.1c-0.4,0-0.7-0.1-1.2-0.1c-1.2,0-2,0.3-2.6,0.9
	c-0.8,0.7-1,1.7-1,2.2c0,0.8,0.2,1.7,1,2.4c0.8,0.6,1.7,0.9,2.8,0.9c0.5,0,1.2,0,1.5-0.2c0.1-0.1,0.2-0.1,0.3-0.3
	c0.1-0.3,0.2-1,0.2-1.1C101.8,388.8,101.8,388.7,101.7,388.7z M133.2,390c-0.1,0-0.2,0-0.3,0c-0.2-0.1-0.3-0.1-0.4-0.3
	c-0.2-0.2-1.5-2.3-1.8-2.7l1.3-1.8c0.2-0.3,0.4-0.5,0.5-0.6c0.1,0,0.2,0,0.3,0c0.1,0,0.2-0.1,0.2-0.2c0-0.1-0.1-0.1-0.2-0.1
	c-0.3,0-0.6,0-0.8,0c-0.2,0-0.5,0-0.9,0c-0.1,0-0.2,0-0.2,0.1c0,0.1,0.1,0.2,0.2,0.2c0.1,0,0.2,0,0.2,0c0.1,0,0.1,0.1,0.1,0.1
	c0,0.1,0,0.2-0.1,0.2c-0.1,0.2-0.8,1.1-1,1.6c-0.3-0.5-0.6-1-1-1.6c0-0.1-0.1-0.2-0.1-0.2c0,0,0,0,0.1-0.1c0.1,0,0.1,0,0.2,0
	c0.1,0,0.2,0,0.2-0.2c0-0.1-0.1-0.1-0.2-0.1c-0.3,0-0.8,0-0.9,0c-0.4,0-1,0-1.2,0c-0.1,0-0.2,0-0.2,0.1c0,0.1,0.1,0.2,0.1,0.2
	c0.1,0,0.2,0,0.3,0.1c0.3,0.1,0.4,0.2,0.6,0.6l1.4,2.2l-1.6,2.1c-0.3,0.4-0.4,0.5-0.6,0.6c-0.1,0-0.2,0-0.3,0
	c-0.1,0-0.2,0.1-0.2,0.2c0,0.1,0.1,0.1,0.2,0.1h0.1c0.1,0,0.5,0,0.7,0c0.2,0,0.7,0,0.8,0h0.1c0.1,0,0.2,0,0.2-0.1
	c0-0.1-0.1-0.2-0.2-0.2c-0.1,0-0.1,0-0.2,0c-0.1,0-0.1,0-0.1-0.1c0,0,0,0,0,0c0-0.1,0-0.2,0.1-0.3l1.1-1.8c0.4,0.6,0.8,1.3,1.2,2
	c0,0,0,0,0,0.1c0,0,0,0,0,0c-0.1,0-0.2,0.1-0.2,0.2c0,0.1,0.1,0.1,0.4,0.1c0.7,0,1.3,0,1.5,0h0.2c0.1,0,0.2,0,0.2-0.1
	C133.4,390.1,133.3,390,133.2,390z M140.2,390c-0.1,0-0.2,0-0.3,0c-0.2-0.1-0.3-0.1-0.4-0.3c-0.2-0.2-1.5-2.3-1.8-2.7l1.3-1.8
	c0.2-0.3,0.4-0.5,0.6-0.6c0.1,0,0.2,0,0.3,0c0.1,0,0.2-0.1,0.2-0.2c0-0.1-0.1-0.1-0.2-0.1c-0.3,0-0.6,0-0.8,0c-0.2,0-0.5,0-0.9,0
	c-0.1,0-0.2,0-0.2,0.1c0,0.1,0.1,0.2,0.2,0.2c0.1,0,0.2,0,0.2,0c0.1,0,0.1,0.1,0.1,0.1c0,0.1,0,0.2-0.1,0.2c-0.1,0.2-0.8,1.1-1,1.6
	c-0.3-0.5-0.6-1-1-1.6c0-0.1-0.1-0.2-0.1-0.2c0,0,0,0,0.1-0.1c0.1,0,0.1,0,0.2,0c0.1,0,0.2,0,0.2-0.2c0-0.1-0.1-0.1-0.2-0.1
	c-0.3,0-0.8,0-0.9,0c-0.4,0-1,0-1.2,0c-0.1,0-0.2,0-0.2,0.1c0,0.1,0.1,0.2,0.1,0.2c0.1,0,0.2,0,0.3,0.1c0.3,0.1,0.4,0.2,0.6,0.6
	l1.4,2.2l-1.6,2.1c-0.3,0.4-0.4,0.5-0.6,0.6c-0.1,0-0.2,0-0.3,0c-0.1,0-0.2,0.1-0.2,0.2c0,0.1,0.1,0.1,0.2,0.1h0.1
	c0.1,0,0.5,0,0.7,0c0.2,0,0.7,0,0.8,0h0.1c0.1,0,0.2,0,0.2-0.1c0-0.1-0.1-0.2-0.2-0.2c-0.1,0-0.1,0-0.2,0c-0.1,0-0.1,0-0.1-0.1
	c0,0,0,0,0,0c0-0.1,0-0.2,0.1-0.3l1.1-1.8c0.4,0.6,0.8,1.3,1.2,2c0,0,0,0,0,0.1c0,0,0,0,0,0c-0.1,0-0.2,0.1-0.2,0.2
	c0,0.1,0.1,0.1,0.4,0.1c0.7,0,1.3,0,1.5,0h0.2c0.1,0,0.2,0,0.2-0.1C140.3,390.1,140.3,390,140.2,390z M147.1,390c-0.1,0-0.2,0-0.3,0
	c-0.2-0.1-0.3-0.1-0.4-0.3c-0.2-0.2-1.5-2.3-1.8-2.7l1.3-1.8c0.2-0.3,0.4-0.5,0.6-0.6c0.1,0,0.2,0,0.3,0c0.1,0,0.2-0.1,0.2-0.2
	c0-0.1-0.1-0.1-0.2-0.1c-0.3,0-0.6,0-0.8,0c-0.2,0-0.5,0-0.9,0c-0.1,0-0.2,0-0.2,0.1c0,0.1,0.1,0.2,0.2,0.2c0.1,0,0.2,0,0.2,0
	c0.1,0,0.1,0.1,0.1,0.1c0,0.1,0,0.2-0.1,0.2c-0.1,0.2-0.8,1.1-1,1.6c-0.3-0.5-0.6-1-1-1.6c0-0.1-0.1-0.2-0.1-0.2c0,0,0,0,0.1-0.1
	s0.1,0,0.2,0c0.1,0,0.2,0,0.2-0.2c0-0.1-0.1-0.1-0.2-0.1c-0.3,0-0.8,0-0.9,0c-0.4,0-1,0-1.2,0c-0.1,0-0.2,0-0.2,0.1
	c0,0.1,0.1,0.2,0.1,0.2c0.1,0,0.2,0,0.3,0.1c0.3,0.1,0.4,0.2,0.6,0.6l1.4,2.2l-1.6,2.1c-0.3,0.4-0.4,0.5-0.6,0.6c-0.1,0-0.2,0-0.3,0
	c-0.1,0-0.2,0.1-0.2,0.2c0,0.1,0.1,0.1,0.2,0.1h0.1c0.1,0,0.5,0,0.7,0c0.2,0,0.7,0,0.8,0h0.1c0.1,0,0.2,0,0.2-0.1
	c0-0.1-0.1-0.2-0.2-0.2c-0.1,0-0.1,0-0.2,0c-0.1,0-0.1,0-0.1-0.1v0c0-0.1,0-0.2,0.1-0.3l1.1-1.8c0.4,0.6,0.8,1.3,1.2,2
	c0,0,0,0,0,0.1c0,0,0,0,0,0c-0.1,0-0.2,0.1-0.2,0.2c0,0.1,0.1,0.1,0.4,0.1c0.7,0,1.3,0,1.5,0h0.2c0.1,0,0.2,0,0.2-0.1
	C147.3,390.1,147.2,390,147.1,390z M151.4,390c-0.1,0-0.3,0-0.4,0c-0.2,0-0.2-0.1-0.3-0.3c0-0.3,0-1,0-1.7v-1.4c0-1.2,0-1.4,0-1.7
	c0-0.3,0.1-0.3,0.2-0.4c0.1,0,0.2,0,0.2,0c0.1,0,0.2,0,0.2-0.2c0-0.1-0.1-0.1-0.2-0.1c-0.3,0-0.8,0-1,0c-0.2,0-0.8,0-1.1,0
	c-0.1,0-0.2,0-0.3,0.1c0,0.1,0.1,0.2,0.2,0.2c0.1,0,0.2,0,0.3,0c0.2,0.1,0.2,0.1,0.2,0.4c0,0.2,0,0.5,0,1.7v1.4c0,0.8,0,1.4,0,1.7
	c0,0.2-0.1,0.3-0.2,0.3c-0.1,0-0.2,0-0.3,0c-0.1,0-0.2,0.1-0.2,0.2c0,0.1,0.1,0.1,0.2,0.1c0.3,0,0.9,0,1.1,0c0.2,0,0.8,0,1.3,0
	c0.1,0,0.2,0,0.2-0.1C151.6,390.1,151.5,390,151.4,390z M156.3,390c-0.1,0-0.3,0-0.4,0c-0.2,0-0.2-0.1-0.3-0.3c0-0.3,0-1,0-1.7v-1.4
	c0-1.2,0-1.4,0-1.7c0-0.3,0.1-0.3,0.2-0.4c0.1,0,0.2,0,0.2,0c0.1,0,0.2,0,0.2-0.2c0-0.1-0.1-0.1-0.2-0.1c-0.3,0-0.9,0-1.1,0
	c-0.2,0-0.8,0-1.1,0c-0.1,0-0.2,0-0.3,0.1c0,0.1,0.1,0.2,0.2,0.2c0.1,0,0.2,0,0.3,0c0.2,0.1,0.2,0.1,0.2,0.4c0,0.2,0,0.5,0,1.7v1.4
	c0,0.8,0,1.4,0,1.7c0,0.2-0.1,0.3-0.2,0.3c-0.1,0-0.2,0-0.3,0c-0.1,0-0.2,0.1-0.2,0.2c0,0.1,0.1,0.1,0.2,0.1c0.3,0,0.9,0,1.1,0
	c0.2,0,0.8,0,1.3,0c0.1,0,0.2,0,0.2-0.1C156.5,390.1,156.4,390,156.3,390z M161.3,390c-0.1,0-0.3,0-0.4,0c-0.2,0-0.2-0.1-0.3-0.3
	c0-0.3,0-1,0-1.7v-1.4c0-1.2,0-1.4,0-1.7c0-0.3,0.1-0.3,0.2-0.4c0.1,0,0.2,0,0.2,0c0.1,0,0.2,0,0.2-0.2c0-0.1-0.1-0.1-0.2-0.1
	c-0.3,0-0.8,0-1,0c-0.2,0-0.8,0-1.1,0c-0.1,0-0.2,0-0.3,0.1c0,0.1,0.1,0.2,0.2,0.2c0.1,0,0.2,0,0.3,0c0.2,0.1,0.2,0.1,0.2,0.4
	c0,0.2,0,0.5,0,1.7v1.4c0,0.8,0,1.4,0,1.7c0,0.2-0.1,0.3-0.2,0.3c-0.1,0-0.2,0-0.3,0c-0.1,0-0.2,0.1-0.2,0.2c0,0.1,0.1,0.1,0.2,0.1
	c0.3,0,0.9,0,1.1,0c0.2,0,0.8,0,1.3,0c0.1,0,0.2,0,0.2-0.1C161.5,390.1,161.4,390,161.3,390z M112.2,351.8v-4.6
	c0-0.9-0.7-1.6-1.6-1.6c-0.9,0-1.6,0.7-1.6,1.6v4.6H112.2z M120.7,351.8v-4.6c0-0.9-0.7-1.6-1.6-1.6c-0.9,0-1.6,0.7-1.6,1.6v4.6
	H120.7z M114.9,258.7c-0.9,0-1.6,0.7-1.6,1.6c0,0.9,0.7,1.6,1.6,1.6s1.6-0.7,1.6-1.6C116.5,259.4,115.8,258.7,114.9,258.7z
	 M114,304.6h1.7V301H114V304.6L114,304.6z M98.3,394.6c-0.9,0-1.6,0.7-1.6,1.6c0,0.9,0.7,1.6,1.6,1.6s1.6-0.7,1.6-1.6
	C99.9,395.3,99.2,394.6,98.3,394.6z M97.3,304.6v-5.2c0-1.2-0.6-2.1-1.5-2.5c-0.9,0.4-1.5,1.2-1.5,2.5v5.2H97.3z M97.3,287.8v-3.4
	c0-1.2-0.6-2.1-1.5-2.5c-0.9,0.4-1.5,1.3-1.5,2.5v3.4L97.3,287.8L97.3,287.8z M96.6,322.8v-4.4c0-0.5-0.4-0.8-0.8-0.8
	c-0.4,0-0.8,0.4-0.8,0.8v4.4H96.6z M96.6,336.1v-4.4c0-0.5-0.4-0.8-0.8-0.8c-0.4,0-0.8,0.4-0.8,0.8v4.4H96.6z M97.1,350.8v-3.9
	c0-0.7-0.6-1.3-1.3-1.3c-0.7,0-1.3,0.6-1.3,1.3v3.9H97.1z M95.8,240.5c-0.9,0-1.6,0.7-1.6,1.6c0,0.9,0.7,1.6,1.6,1.6
	c0.9,0,1.6-0.7,1.6-1.6C97.4,241.2,96.7,240.5,95.8,240.5z M135.5,304.6v-5.2c0-1.2-0.6-2.1-1.5-2.5c-0.9,0.4-1.5,1.2-1.5,2.5v5.2
	H135.5z M135.5,287.8v-3.4c0-1.2-0.6-2.1-1.5-2.5c-0.9,0.4-1.5,1.3-1.5,2.5v3.4L135.5,287.8L135.5,287.8z M134.8,322.8v-4.4
	c0-0.5-0.4-0.8-0.8-0.8c-0.4,0-0.8,0.4-0.8,0.8v4.4H134.8z M134.8,336.1v-4.4c0-0.5-0.4-0.8-0.8-0.8c-0.4,0-0.8,0.4-0.8,0.8v4.4
	H134.8z M135.2,350.8v-3.9c0-0.7-0.6-1.3-1.3-1.3c-0.7,0-1.3,0.6-1.3,1.3v3.9H135.2z M133.9,240.5c-0.9,0-1.6,0.7-1.6,1.6
	c0,0.9,0.7,1.6,1.6,1.6s1.6-0.7,1.6-1.6C135.6,241.2,134.9,240.5,133.9,240.5z M406.4,289.6c0,1.2-0.1,2.6-0.3,4.1h-21.6
	c-0.1,6.5,3.2,9.7,9.6,9.7c3.4,0,7.2-0.8,10.2-2.2l0.8,7c-3.7,1.5-8.1,2.2-12.5,2.2c-11.1,0-17.3-5.5-17.3-17.8
	c0-10.7,5.9-18.5,16.4-18.5 M391.4,280.6c-3.7,0-6.3,2.7-6.8,7h12.9C397.6,283.2,395.2,280.6,391.4,280.6z M472.6,270.3
	c-3.1,0-5.6-2.5-5.6-5.5c0-3,2.5-5.4,5.6-5.4s5.6,2.4,5.6,5.4C478.2,267.8,475.7,270.3,472.6,270.3z M468.1,309.7v-34.9h9v34.9
	H468.1z M499.9,310.4c-7.7,0-10.2-2.8-10.2-11v-17.7h-6v-7h6V264l9-2.4v13.1h8.5v7h-8.5V297c0,4.5,1.1,5.8,4.1,5.8
	c1.5,0,3.1-0.2,4.4-0.6v7.2C504.9,310,502.3,310.4,499.9,310.4z M21,321.1c0-51.9,42-93.9,93.9-93.9l0,0c51.9,0,93.9,42,93.9,93.9
	l0,0c0,51.9-42,93.9-93.9,93.9l0,0C63,415,21,373,21,321.1L21,321.1z M50.1,256.3c-16.6,16.6-26.8,39.5-26.8,64.8l0,0
	c0,25.3,10.2,48.2,26.8,64.8l0,0c16.6,16.6,39.5,26.8,64.8,26.8l0,0c25.3,0,48.2-10.2,64.8-26.8l0,0c16.6-16.6,26.8-39.5,26.8-64.8
	l0,0c0-25.3-10.2-48.2-26.8-64.8l0,0c-16.6-16.6-39.5-26.8-64.8-26.8l0,0C89.6,229.5,66.7,239.7,50.1,256.3L50.1,256.3z
	 M116.3,380.1h0.8v-1.3h-1.8v2.9h1.1L116.3,380.1z M114.9,233.3c-48.5,0-87.8,39.3-87.8,87.8c0,48.5,39.3,87.8,87.8,87.8
	c48.5,0,87.8-39.3,87.8-87.8C202.6,272.6,163.3,233.3,114.9,233.3z M105.2,395.5h-4v1.3h4v9.9c-19.9-2.2-37.8-11.3-51.2-24.7
	c-1.9-1.9-3.8-4-5.5-6.1c0.4-2.1,2.2-3.8,4.4-3.8c2.5,0,4.5,2,4.5,4.5v4.3h5.7v0l0,0v-4.3c0-2.5,2-4.5,4.5-4.5c2.5,0,4.5,2,4.5,4.5
	v4.3h5.7v0l0,0v-4.3c0-2.5,2-4.5,4.5-4.5c2.5,0,4.5,2,4.5,4.5v4.3h5.7v0l0,0v-4.3c0-2.5,2-4.5,4.5-4.5c2.5,0,4.5,2,4.5,4.5v4.3h3.6
	L105.2,395.5L105.2,395.5z M121.5,407c-2.2,0.2-4.4,0.3-6.6,0.3c-2.2,0-4.4-0.1-6.6-0.2l-1.6-10.2h1.9c-0.5-1.1-1.3-3.1-1.6-3.9
	c-0.5-1.3-0.1-2.1,0.7-2.4c0.8-0.3,1.8,0.1,2,1.2l0.8,3.1h1.2v2l0,0v0.4h-2.8v1.3h4.2l0-1.7h5l0-2h1.2l0.8-3.1
	c0.3-1.1,1.2-1.5,2.1-1.2c0.8,0.3,1.2,1.2,0.7,2.4c-0.1,0.3-0.4,0.9-0.6,1.5l-1.1,2.7h-3v1.3h3.9l0.7-1.7h0.4L121.5,407z M112.1,378
	h5.5c0.2,0.5,0.7,1.8,1.1,2.5c0.2,0.5,0.5,1.1,0.2,1.6c-0.4,0.7-1,0.6-1.3,0.5c0,0,0,0-0.1,0c-0.4,1-1.4,1.8-2.5,1.8
	c-1.2,0-2.2-0.7-2.5-1.8c0,0,0,0-0.1,0c-0.4,0-0.9,0.1-1.3-0.5c-0.3-0.6-0.1-1.1,0.2-1.6C111.4,379.7,111.9,378.5,112.1,378z
	 M111.3,372.3l1.7,2.5l1.8-3.4l1.8,3.4l1.7-2.5l-0.7,4.3H112L111.3,372.3z M113.4,384.6c0.4,1.1,1.5,2,2.8,2c1.4,0,2.6-1,2.9-2.3
	c0.9,0,1.7,0.3,2.6,1c0.8,0.7,1.1,1.9,1.3,2.5h-16c0.1-0.6,0.4-1.8,1.3-2.5C109.9,383.8,111.7,384.3,113.4,384.6z M120,389.1
	c-0.6,2.3-2.7,4-5.2,4s-4.5-1.7-5.2-4H120z M175.8,382c-13.4,13.4-31.3,22.5-51.2,24.7v-9.9h3.6c6.8,0,11.6-0.6,11.6-0.6
	s-5-0.8-11.6-0.8h-3.6V381h4.4v0l0,0v-4.3c0-2.5,2-4.5,4.5-4.5c2.5,0,4.5,2,4.5,4.5v4.3h5.7v0l0,0v-4.3c0-2.5,2-4.5,4.5-4.5
	c2.5,0,4.5,2,4.5,4.5v4.3h5.7v0l0,0v-4.3c0-2.5,2-4.5,4.5-4.5s4.5,2,4.5,4.5v4.3h5.7v0l0,0v-4.3c0-2.5,2-4.5,4.5-4.5
	c2,0,3.6,1.3,4.3,3C180,377.6,178,379.9,175.8,382z M182.9,374c-1-2.1-3.2-3.6-5.6-3.6c-3.4,0-6.2,2.8-6.2,6.2v2h-2.3v-2
	c0-3.4-2.8-6.2-6.2-6.2c-3.4,0-6.2,2.8-6.2,6.2v2H154v-2c0-3.4-2.8-6.2-6.2-6.2c-3.4,0-6.2,2.8-6.2,6.2v2h-2.3v-2
	c0-3.4-2.8-6.2-6.2-6.2s-6.2,2.8-6.2,6.2v2h-2.3c-0.7-4.7-4.7-8.3-9.6-8.3s-8.9,3.6-9.6,8.3h-2.4v-2c0-3.4-2.8-6.2-6.2-6.2
	c-3.4,0-6.2,2.8-6.2,6.2v2h-2.3v-2c0-3.4-2.8-6.2-6.2-6.2c-3.4,0-6.2,2.8-6.2,6.2v2h-2.3v-2c0-3.4-2.8-6.2-6.2-6.2s-6.2,2.8-6.2,6.2
	v2h-2.2v-2c0-3.4-2.8-6.2-6.2-6.2c-2.5,0-4.6,1.4-5.6,3.5c-1.5-2-3-4-4.3-6.1h144.7C185.9,370,184.4,372.1,182.9,374z M188.7,365.6
	H41.1c-0.4-0.7-0.8-1.4-1.3-2.2h150.1C189.5,364.2,189.1,364.9,188.7,365.6z M100,254.8v0.7c0,0.1-0.1,0.4-0.1,0.6
	c-0.1,0.3-0.4,0.9-0.8,1.5c-0.2,0.2-0.4,0.7-0.7,1.3c-0.4-0.6-0.7-1-1-1.2c-0.3-0.3-0.6-0.6-0.9-1c-0.6-0.7-0.6-1.2-0.6-1.2l0,0
	c0,0,0,0.4-0.6,1.2c-0.3,0.3-0.6,0.7-0.9,1c-0.2,0.2-0.6,0.7-1,1.3c-0.3-0.6-0.6-1.1-0.7-1.3c-0.4-0.6-0.7-1.2-0.8-1.5
	c-0.1-0.3-0.2-0.7-0.2-0.7v-0.6H100z M91.6,253.5c0.1-1.1,0.4-3.1,1.4-4.5c0.8-1.1,1.6-1.7,2.2-2.1c0.3-0.2,0.5-0.3,0.6-0.4
	c0.2,0.1,0.4,0.2,0.6,0.4c0.6,0.4,1.4,1,2.2,2.1c1.1,1.4,1.3,3.5,1.4,4.5H91.6z M100.3,258.3c0.2,0.3,0.5,0.8,0.8,1.4
	c0.4,0.9,0.5,1.8,0.5,2.5v9.7H99c0-2.1,0-6.8,0-9.7c0-0.7,0.1-1.6,0.5-2.5C99.8,259,100.1,258.6,100.3,258.3z M97.7,262.2l0,9.7
	h-3.8c0-2.7,0-9.7,0-9.7c0-0.6,0.1-1.5,0.5-2.4c0.5-0.9,1.4-1.5,1.4-1.5h0c0,0,0.9,0.6,1.3,1.5C97.6,260.8,97.7,261.6,97.7,262.2z
	 M92.1,259.7c0.4,0.9,0.4,1.8,0.4,2.5l0,9.7H90v-9.7c0-0.7,0.1-1.5,0.5-2.5c0.3-0.6,0.5-1.1,0.8-1.4
	C91.5,258.7,91.8,259.1,92.1,259.7z M103.5,273.5v3.1H88.1v-3.1H103.5z M103.5,277.9v12.2h-3.7v-5.5c0-1.8-0.7-3.4-1.8-4.4
	c-0.6-0.6-1.3-1-2.1-1.3c-0.1,0-0.1,0-0.1,0s0,0-0.1,0c-0.8,0.3-1.5,0.7-2.1,1.3c-1.1,1.1-1.8,2.6-1.8,4.4v5.5h-3.7v-12.2
	L103.5,277.9L103.5,277.9z M98.4,284.7v5.5h-5.3v-5.5c0-2.1,1.1-3.6,2.6-4.3C97.3,281.1,98.4,282.5,98.4,284.7z M103.5,291.5v15.6
	H100v-7.8c0-1.8-0.7-3.4-1.8-4.5c-0.6-0.6-1.3-1-2.1-1.3c0,0-0.3-0.1-0.3-0.1s-0.2,0.1-0.3,0.1c-0.8,0.3-1.5,0.7-2.2,1.3
	c-1.1,1.1-1.8,2.7-1.8,4.5v7.8h-3.4v-15.6L103.5,291.5L103.5,291.5z M98.7,299.3v7.8h-5.9v-7.8c0-1.5,0.6-2.7,1.4-3.5
	c0.4-0.4,0.9-0.7,1.5-0.9h0c0.6,0.2,1.1,0.5,1.5,0.9C98.2,296.6,98.7,297.8,98.7,299.3L98.7,299.3z M103.5,308.4v18.5H88.1v-18.5
	C88.1,308.4,103.5,308.4,103.5,308.4z M103.5,328.3v12.1H88.1v-12.1H103.5z M103.5,341.7v20.5H88.1v-20.5
	C88.1,341.7,103.5,341.7,103.5,341.7z M117,291.6v5.5l-2.1-2.1l-2.1,2.1v-5.5C112.8,291.6,117,291.6,117,291.6z M112.8,290.1
	l1.5-6.6l0.6-11.1l0.4,11l1.5,6.6H112.8z M114.9,297.3l9.8,9.8h-19.6L114.9,297.3z M124.7,308.4v7.5H105v-7.5H124.7z M124.7,318.2
	v8.7h-6.1v-2.2c0-2-1.6-3.7-3.7-3.7c-2,0-3.7,1.6-3.7,3.7v2.2H105v-8.7H124.7z M111.2,328.3v7.8h7.3v-7.8h6.1v12.1H105v-12.1H111.2z
	 M124.7,341.7v20.5H105v-20.5C105,341.7,124.7,341.7,124.7,341.7z M138.2,254.8v0.7c0,0.1-0.1,0.4-0.1,0.6c-0.1,0.3-0.4,0.9-0.8,1.5
	c-0.2,0.2-0.4,0.7-0.7,1.3c-0.4-0.6-0.7-1-1-1.2c-0.3-0.3-0.6-0.6-0.9-1c-0.6-0.7-0.6-1.2-0.6-1.2l0,0c0,0,0,0.4-0.6,1.2
	c-0.3,0.3-0.6,0.7-0.9,1c-0.2,0.2-0.6,0.7-1,1.3c-0.3-0.6-0.6-1.1-0.7-1.3c-0.4-0.6-0.7-1.2-0.8-1.5c-0.1-0.3-0.2-0.7-0.2-0.7v-0.5
	H138.2z M129.7,253.5c0.1-1.1,0.4-3.1,1.4-4.5c0.8-1.1,1.6-1.7,2.2-2.1c0.3-0.2,0.5-0.3,0.6-0.4c0.2,0.1,0.4,0.2,0.6,0.4
	c0.6,0.4,1.4,1,2.2,2.1c1.1,1.4,1.3,3.5,1.4,4.5H129.7z M138.5,258.3c0.2,0.3,0.5,0.8,0.8,1.4c0.4,0.9,0.5,1.8,0.5,2.5v9.7h-2.5
	c0-2.1,0-6.8,0-9.7c0-0.7,0.1-1.6,0.5-2.5C138,259,138.2,258.6,138.5,258.3z M135.9,262.2l0,9.7h-3.8c0-2.7,0-9.7,0-9.7
	c0-0.6,0.1-1.5,0.5-2.4c0.5-0.9,1.4-1.5,1.4-1.5h0c0,0,0.9,0.6,1.3,1.5C135.8,260.8,135.8,261.6,135.9,262.2z M130.2,259.7
	c0.4,0.9,0.4,1.8,0.4,2.5l0,9.7h-2.5v-9.7c0-0.7,0.1-1.5,0.5-2.5c0.3-0.6,0.5-1.1,0.8-1.4C129.7,258.7,130,259.1,130.2,259.7z
	 M141.6,273.5v3.1h-15.4v-3.1H141.6z M141.6,277.9v12.2h-3.7v-5.5c0-1.8-0.7-3.4-1.8-4.4c-0.6-0.6-1.3-1-2.1-1.3c-0.1,0-0.1,0-0.1,0
	s0,0-0.1,0c-0.8,0.3-1.5,0.7-2.1,1.3c-1.1,1.1-1.8,2.6-1.8,4.4v5.5h-3.7v-12.2L141.6,277.9L141.6,277.9z M136.6,284.7v5.5h-5.3v-5.5
	c0-2.1,1.1-3.6,2.6-4.3C135.5,281.1,136.6,282.5,136.6,284.7z M141.6,291.5v15.6h-3.4v-7.8c0-1.8-0.7-3.4-1.8-4.5
	c-0.6-0.6-1.3-1-2.1-1.3c0,0-0.3-0.1-0.3-0.1s-0.2,0.1-0.3,0.1c-0.8,0.3-1.5,0.7-2.2,1.3c-1.1,1.1-1.8,2.7-1.8,4.5v7.8h-3.4v-15.6
	L141.6,291.5L141.6,291.5z M136.9,299.3v7.8H131v-7.8c0-1.5,0.6-2.7,1.4-3.5c0.4-0.4,0.9-0.7,1.5-0.9h0c0.6,0.2,1.1,0.5,1.5,0.9
	C136.3,296.6,136.9,297.8,136.9,299.3L136.9,299.3z M141.6,308.4v18.5h-15.4v-18.5C126.3,308.4,141.6,308.4,141.6,308.4z
	 M141.6,328.3v12.1h-15.4v-12.1H141.6z M141.6,341.7v20.5h-15.4v-20.5C126.3,341.7,141.6,341.7,141.6,341.7z M144,362.1v-90.3h-1.9
	v-9.9c0-1.2-0.2-2-0.7-3.3c-0.1-0.3-0.3-0.7-0.6-1V254c0,0,0-2.8-1.2-5c-1.3-2.3-3.7-3.6-4.9-4.1c-0.3-0.1-0.5-0.2-0.5-0.2l-0.2-0.1
	l-0.2,0.1c-0.1,0-2.1,0.7-3.9,3.2c-1.7,2.3-1.7,5.3-1.8,6.1c0,0.1,0,0.2,0,0.2v3.3c-0.2,0.3-0.5,0.8-0.9,1.6
	c-0.5,1.3-0.6,2.4-0.6,3.1v9.6h-1.9v32.9l-5.3-5.3v-9.4l-1.8-6.1l-2.6-20.8l0,0l-2,19.9l-1.8,6.9v8.7l-5.3,5.3v-32.2h-1.9v-9.9
	c0-1.2-0.2-2-0.7-3.3c-0.1-0.3-0.3-0.7-0.6-1V254c0,0,0-2.8-1.2-5c-1.3-2.3-3.7-3.6-4.9-4.1c-0.3-0.1-0.5-0.2-0.5-0.2l-0.2-0.1
	l-0.2,0.1c-0.1,0-2.1,0.7-3.9,3.2c-1.7,2.3-1.7,5.3-1.8,6.1c0,0.1,0,0.2,0,0.2v3.3c-0.2,0.3-0.5,0.8-0.9,1.6
	c-0.5,1.3-0.6,2.4-0.6,3.1v9.6h-1.9v90.2H39.1c-6.6-12.2-10.4-26.2-10.4-41.1c0-23.8,9.7-45.4,25.3-61c15.6-15.6,37.1-25.3,61-25.3
	s45.4,9.7,61,25.3c15.6,15.6,25.3,37.2,25.3,61c0,14.9-3.8,28.9-10.4,41.1L144,362.1L144,362.1z"/>
</svg>
