<svg id="Layer_1" data-name="Layer 1" xmlns="http://www.w3.org/2000/svg" viewBox="0 0 114 48"><defs><style>.cls-1{fill:#c5202e;}.cls-2{fill:#15496b;}.cls-3{fill:#f16a2b;}.cls-4{fill:#27bce1;}.cls-5{fill:#5bb947;}.cls-6{fill:#f89c27;}.cls-7{fill:#221f1f;}.cls-8{fill:#c4202e;}</style></defs><title>logo</title><path class="cls-1" d="M7.41,18.89s-9.29,14.49-.78,24C15,52.29,25.3,46,26.56,44.44c0,0-11,3.6-17.16-5.28s1.67-19.42,1.67-19.42a5.34,5.34,0,0,0-3.66-.85"/><path class="cls-1" d="M0,17.19s14.82-2.45,20.47,6S21.91,40.7,20.09,43c0,0,1.57.47,2.1.18,0,0,7.34-12.5.89-22.38C21.62,18,13.12,9.53,0,17.19"/><path class="cls-2" d="M38.52,46.15s-13-6.73-11.3-20.11c.91-6.1,8.9-10.61,12.11-11.5A3.09,3.09,0,0,0,38.61,13s-15.2,3.1-14.27,17.2,8.48,16,14.18,16"/><path class="cls-2" d="M39,10.18s10.31,9.45,5.06,19A17.9,17.9,0,0,1,32,37.48s1.49,2.44,2.36,2.7c0,0,13.51-2.49,15.53-14.15C50.93,17.21,41.91,11.11,39,10.18"/><path class="cls-1" d="M6.13,36.86A1,1,0,0,1,5.7,35l13.6-6.53a1,1,0,0,1,.87,1.81L6.57,36.76a1,1,0,0,1-.44.1"/><path class="cls-2" d="M46,29.43a1.11,1.11,0,0,1-.4-.06L31.29,24.42A1,1,0,1,1,32,22.53l14.26,4.94a1,1,0,0,1-.26,2"/><path class="cls-3" d="M43.12,21.32a.67.67,0,0,1-.28,0L36.1,19.12a.76.76,0,0,1-.49-.95.76.76,0,0,1,1-.49l6.74,2.17a.75.75,0,0,1-.18,1.47"/><path class="cls-4" d="M36.54,33.7a.67.67,0,0,1-.28,0l-6.74-2.18a.74.74,0,0,1-.49-.94.75.75,0,0,1,.95-.49l6.74,2.17a.75.75,0,0,1,.48,1,.74.74,0,0,1-.66.52"/><path class="cls-5" d="M10.57,27.56a.73.73,0,0,1-.66-.4.75.75,0,0,1,.31-1l6.25-3.32a.76.76,0,0,1,1,.32.74.74,0,0,1-.31,1l-6.25,3.32a.8.8,0,0,1-.36.09"/><path class="cls-6" d="M14.19,41.12a.77.77,0,0,1-.67-.4.76.76,0,0,1,.31-1l6.26-3.32a.75.75,0,0,1,1,.31.76.76,0,0,1-.32,1L14.54,41a.73.73,0,0,1-.35.09"/><path class="cls-1" d="M20.48,6.75A5.52,5.52,0,1,1,15,1.24a5.51,5.51,0,0,1,5.51,5.51"/><path class="cls-2" d="M52.4,5.51A5.52,5.52,0,1,1,46.88,0,5.52,5.52,0,0,1,52.4,5.51"/><path class="cls-7" d="M66.4,9.48a3.38,3.38,0,0,1-1.25.43,9.32,9.32,0,0,1-1.56.14,6.26,6.26,0,0,1-1.82-.25A3.86,3.86,0,0,1,60.3,9a3.94,3.94,0,0,1-1-1.54A6.71,6.71,0,0,1,59,5.07a6.1,6.1,0,0,1,.41-2.39,3.94,3.94,0,0,1,1.06-1.52,3.74,3.74,0,0,1,1.51-.8A6.18,6.18,0,0,1,63.64.13a9.94,9.94,0,0,1,1.54.1,8.22,8.22,0,0,1,1.07.25L65.8,2a3.7,3.7,0,0,0-.8-.21,7,7,0,0,0-1.09-.07A2.3,2.3,0,0,0,62,2.53a4,4,0,0,0-.67,2.56,5.37,5.37,0,0,0,.16,1.37A3,3,0,0,0,62,7.53a2.2,2.2,0,0,0,.85.69,2.73,2.73,0,0,0,1.23.25,3.83,3.83,0,0,0,1.09-.13A5.07,5.07,0,0,0,66,8Z"/><path class="cls-7" d="M68.11.32h2.27V9.86H68.11Z"/><path class="cls-7" d="M80.21,1.9h-3v8H75v-8H72V.32h8.24Z"/><path class="cls-7" d="M81.8.32h2.27V9.86H81.8Z"/><path class="cls-7" d="M85.89,8.28l4.22-5.82.76-.56h-5V.32h7.26V1.9L88.92,7.76l-.74.52h5V9.86H85.89Z"/><path class="cls-7" d="M94.78.32h6.31V1.9h-4V4.24h3.66V5.82H97.05V8.28h4.11V9.86H94.78Z"/><path class="cls-7" d="M105.74,5.17l-.83-1.68h-.09l.29,1.65V9.86H103V.25h1.75l3.63,4.8.77,1.65h.11l-.29-1.63V.32h2.15V9.93h-1.75Z"/><path class="cls-7" d="M63.49,20.06a1,1,0,0,0-.34-.74,4.49,4.49,0,0,0-.85-.58l-1.12-.56a6.77,6.77,0,0,1-1.11-.66,3.81,3.81,0,0,1-.85-.9,2.33,2.33,0,0,1-.34-1.27,2.27,2.27,0,0,1,.28-1.18,2.21,2.21,0,0,1,.76-.79,3.29,3.29,0,0,1,1.15-.45,6.35,6.35,0,0,1,1.41-.15,10.2,10.2,0,0,1,1.71.14,5.21,5.21,0,0,1,1.3.37l-.7,1.51a3.59,3.59,0,0,0-.9-.3,5.91,5.91,0,0,0-1.3-.13,2.2,2.2,0,0,0-1.07.21.7.7,0,0,0-.38.65.87.87,0,0,0,.34.67,5,5,0,0,0,.85.57c.34.18.71.37,1.11.56a6.86,6.86,0,0,1,1.11.68,3.53,3.53,0,0,1,.85.92,2.2,2.2,0,0,1,.34,1.24,2.75,2.75,0,0,1-.27,1.26,2.47,2.47,0,0,1-.79.88,3.83,3.83,0,0,1-1.23.52,6.55,6.55,0,0,1-1.59.18,11.13,11.13,0,0,1-2-.16,6.58,6.58,0,0,1-1.28-.37l.74-1.54a5.1,5.1,0,0,0,1,.32,5.29,5.29,0,0,0,1.34.17C62.89,21.13,63.49,20.77,63.49,20.06Z"/><path class="cls-7" d="M74.08,22.14a3.38,3.38,0,0,1-1.25.43,9.11,9.11,0,0,1-1.55.14,6.17,6.17,0,0,1-1.8-.25A3.75,3.75,0,0,1,68,21.62a4,4,0,0,1-1-1.54,7,7,0,0,1-.35-2.35,6.2,6.2,0,0,1,.4-2.4,4.1,4.1,0,0,1,1.06-1.52A3.76,3.76,0,0,1,69.63,13a6.19,6.19,0,0,1,1.71-.24,9.79,9.79,0,0,1,1.53.11,8.42,8.42,0,0,1,1.06.25l-.44,1.51a4,4,0,0,0-.8-.21,7,7,0,0,0-1.09-.07,2.33,2.33,0,0,0-1.9.81A4.08,4.08,0,0,0,69,17.75a5.87,5.87,0,0,0,.15,1.37,3.19,3.19,0,0,0,.49,1.07,2.17,2.17,0,0,0,.84.69,2.73,2.73,0,0,0,1.23.25A4.12,4.12,0,0,0,72.82,21a5.07,5.07,0,0,0,.81-.31Z"/><path class="cls-7" d="M75.35,13h2.26v9.54H75.35Z"/><path class="cls-7" d="M79.42,13h6.27v1.58h-4V16.9h3.64v1.58H81.67v2.46h4.09v1.58H79.42Z"/><path class="cls-7" d="M89.88,17.83l-.82-1.68H89l.28,1.65v4.72H87.12V12.91h1.74l3.6,4.8.77,1.65h.11l-.29-1.63V13h2.13v9.61H93.45Z"/><path class="cls-7" d="M103.91,22.14a3.33,3.33,0,0,1-1.24.43,9.11,9.11,0,0,1-1.55.14,6.07,6.07,0,0,1-1.8-.25,3.72,3.72,0,0,1-1.47-.84,4.12,4.12,0,0,1-1-1.54,6.71,6.71,0,0,1-.36-2.35,6.4,6.4,0,0,1,.4-2.4A4.1,4.1,0,0,1,98,13.81a3.87,3.87,0,0,1,1.5-.79,6.18,6.18,0,0,1,1.7-.24,9.7,9.7,0,0,1,1.53.11,8.64,8.64,0,0,1,1.07.25l-.45,1.51a3.86,3.86,0,0,0-.8-.21,6.74,6.74,0,0,0-1.08-.07,2.31,2.31,0,0,0-1.9.81,4.08,4.08,0,0,0-.66,2.57A5.87,5.87,0,0,0,99,19.12a3,3,0,0,0,.48,1.07,2.17,2.17,0,0,0,.84.69,2.73,2.73,0,0,0,1.23.25,4.2,4.2,0,0,0,1.08-.13,4.94,4.94,0,0,0,.8-.31Z"/><path class="cls-7" d="M105,13h6.27v1.58h-4V16.9h3.64v1.58h-3.64v2.46h4.09v1.58H105Z"/><path class="cls-7" d="M66.36,34.8a3.44,3.44,0,0,1-1.26.43,9.14,9.14,0,0,1-1.56.14,6.54,6.54,0,0,1-1.81-.25,3.72,3.72,0,0,1-1.47-.84,4,4,0,0,1-1-1.54,6.71,6.71,0,0,1-.36-2.35,6.2,6.2,0,0,1,.4-2.4,4.24,4.24,0,0,1,1.07-1.52,3.87,3.87,0,0,1,1.5-.79,6.32,6.32,0,0,1,1.72-.24,9.84,9.84,0,0,1,1.54.11,8.64,8.64,0,0,1,1.07.25l-.45,1.51a4,4,0,0,0-.8-.21A7,7,0,0,0,63.87,27a2.33,2.33,0,0,0-1.91.81,4,4,0,0,0-.67,2.57,5.87,5.87,0,0,0,.15,1.37,3,3,0,0,0,.49,1.07,2.13,2.13,0,0,0,.85.69,2.87,2.87,0,0,0,1.23.25,4.2,4.2,0,0,0,1.08-.13,5.07,5.07,0,0,0,.81-.31Z"/><path class="cls-7" d="M67.87,25.63h6.31v1.59h-4v2.34H73.8v1.58H70.14V33.6h4.11v1.58H67.87Z"/><path class="cls-7" d="M78.83,30.49,78,28.81h-.09l.29,1.65v4.72H76.06V25.57H77.8l3.63,4.8L82.2,32h.11L82,30.39V25.63h2.15v9.62H82.42Z"/><path class="cls-7" d="M93.8,27.22h-3v8H88.55v-8h-3V25.63H93.8Z"/><path class="cls-7" d="M95.19,25.63h6.31v1.59h-4v2.34h3.66v1.58H97.46V33.6h4.11v1.58H95.19Z"/><path class="cls-7" d="M103.37,25.73q.73-.12,1.59-.18c.56,0,1.05-.05,1.46-.05a10.62,10.62,0,0,1,1.51.11,4,4,0,0,1,1.31.43,2.46,2.46,0,0,1,.92.83,2.37,2.37,0,0,1,.35,1.33,3,3,0,0,1-.57,1.89,2.91,2.91,0,0,1-1.56,1l.72.43,2.33,3.66h-2.61l-2.2-3.77-1-.17v3.94h-2.27Zm2.27,4.34h.78a1.87,1.87,0,0,0,1.28-.39,1.54,1.54,0,0,0,.43-1.21,1.41,1.41,0,0,0-.36-1,1.48,1.48,0,0,0-1.14-.39h-.55a2.22,2.22,0,0,0-.44.06Z"/><path class="cls-8" d="M59,46.9l5.2-7.12.62-.55H59v-.94h7.13v.94l-5.22,7.16-.6.51h5.82v.94H59Z"/><path class="cls-8" d="M74.67,38.29H76v6.4a3.07,3.07,0,0,1-.93,2.5,4,4,0,0,1-2.63.77,4.53,4.53,0,0,1-2.89-.75,2.83,2.83,0,0,1-.91-2.3V38.29h1.41v6.08a4.86,4.86,0,0,0,.13,1.24,1.84,1.84,0,0,0,.43.82,1.68,1.68,0,0,0,.75.45,3.82,3.82,0,0,0,1.1.14,2,2,0,0,0,1.71-.63,3.35,3.35,0,0,0,.48-2Z"/><path class="cls-8" d="M79.26,38.39a12.52,12.52,0,0,1,1.35-.16c.5,0,1,0,1.36,0a7.52,7.52,0,0,1,1.38.13,3.58,3.58,0,0,1,1.15.44,2.27,2.27,0,0,1,.77.8,2.41,2.41,0,0,1,.29,1.25,2.54,2.54,0,0,1-.64,1.82,3.29,3.29,0,0,1-1.72.91l.72.5,2.58,3.81H84.87l-2.81-4.16-1.4-.21v4.37h-1.4Zm1.4,4.4h1.12a2.78,2.78,0,0,0,1.69-.47,1.74,1.74,0,0,0,.61-1.46,1.64,1.64,0,0,0-.51-1.24,2.12,2.12,0,0,0-1.53-.5l-.77,0a3.75,3.75,0,0,0-.61.06Z"/><path class="cls-8" d="M89.36,38.29h1.4v9.55h-1.4Z"/><path class="cls-8" d="M101.13,47.47a3.27,3.27,0,0,1-1.18.41,8.9,8.9,0,0,1-1.49.12,6,6,0,0,1-1.84-.27,3.64,3.64,0,0,1-1.45-.87,3.9,3.9,0,0,1-.94-1.53,6.62,6.62,0,0,1-.34-2.27,6.25,6.25,0,0,1,.38-2.3,4.27,4.27,0,0,1,1-1.53,3.86,3.86,0,0,1,1.47-.84,5.86,5.86,0,0,1,1.71-.26,8.78,8.78,0,0,1,1.49.1,7.09,7.09,0,0,1,1,.23l-.34.92a4.48,4.48,0,0,0-.88-.23,7.82,7.82,0,0,0-1.16-.08,3.61,3.61,0,0,0-1.23.21,2.69,2.69,0,0,0-1,.68,3.31,3.31,0,0,0-.71,1.24,5.64,5.64,0,0,0-.26,1.86,4.28,4.28,0,0,0,.93,3,3.25,3.25,0,0,0,2.49,1,4.36,4.36,0,0,0,1.14-.13,4.24,4.24,0,0,0,.86-.31Z"/><path class="cls-8" d="M109.93,43.43H105.1v4.41h-1.41V38.29h1.41v4.2h4.83v-4.2h1.4v9.55h-1.4Z"/></svg>