<svg id="Layer_1" data-name="Layer 1" xmlns="http://www.w3.org/2000/svg" viewBox="0 0 372 160"><defs><style>.cls-1{fill:#c5202e;}.cls-2{fill:#15496b;}.cls-3{fill:#f16a2b;}.cls-4{fill:#27bce1;}.cls-5{fill:#5bb947;}.cls-6{fill:#f89c27;}.cls-7{fill:#221f1f;}.cls-8{fill:#c4202e;}</style></defs><title>Artboard 1</title><path class="cls-1" d="M24.69,63s-31,48.32-2.58,80.15c27.82,31.18,62.22,10.32,66.41,5,0,0-36.83,12-57.2-17.58S36.9,65.82,36.9,65.82C31.39,61.84,24.69,63,24.69,63"/><path class="cls-1" d="M0,57.31s49.39-8.16,68.22,19.88S73,135.68,67,143.42c0,0,5.24,1.57,7,.63,0,0,24.45-41.68,3-74.61C72.06,60.1,43.74,31.78,0,57.31"/><path class="cls-2" d="M128.41,153.82s-43.24-22.43-37.69-67c3-20.35,29.69-35.36,40.39-38.35,0,0-.53-3.67-2.39-5.28,0,0-50.68,10.32-47.6,57.31s28.27,53.26,47.29,53.33"/><path class="cls-2" d="M130.1,33.92S164.47,65.43,147,97.21a59.65,59.65,0,0,1-40.44,27.72s5,8.15,7.87,9c0,0,45-8.29,51.77-47.15C169.78,57.37,139.68,37,130.1,33.92"/><path class="cls-1" d="M20.44,122.88A3.35,3.35,0,0,1,19,116.51L64.33,94.75a3.35,3.35,0,1,1,2.9,6L21.89,122.55a3.41,3.41,0,0,1-1.45.33"/><path class="cls-2" d="M153.16,98.09a3.4,3.4,0,0,1-1.33-.18l-47.52-16.5a3.35,3.35,0,0,1,2.2-6.32L154,91.58a3.35,3.35,0,0,1-.86,6.51"/><path class="cls-3" d="M143.74,71.08a2.54,2.54,0,0,1-.94-.12l-22.47-7.24a2.51,2.51,0,0,1,1.54-4.78l22.47,7.24a2.51,2.51,0,0,1-.6,4.9"/><path class="cls-4" d="M121.8,112.34a2.62,2.62,0,0,1-1-.12L98.39,105a2.51,2.51,0,1,1,1.54-4.78l22.47,7.24a2.51,2.51,0,0,1-.6,4.9"/><path class="cls-5" d="M35.25,91.88a2.51,2.51,0,0,1-1.18-4.73L54.91,76.08a2.51,2.51,0,0,1,2.36,4.44L36.42,91.58a2.45,2.45,0,0,1-1.17.3"/><path class="cls-6" d="M47.29,137.06a2.51,2.51,0,0,1-1.18-4.73L67,121.26a2.51,2.51,0,0,1,2.35,4.44L48.47,136.77a2.64,2.64,0,0,1-1.18.29"/><path class="cls-1" d="M68.26,22.5A18.38,18.38,0,1,1,49.88,4.12,18.37,18.37,0,0,1,68.26,22.5"/><path class="cls-2" d="M174.66,18.38A18.39,18.39,0,1,1,156.28,0a18.38,18.38,0,0,1,18.38,18.38"/><path class="cls-7" d="M221.33,31.59a11.39,11.39,0,0,1-4.18,1.46,30.53,30.53,0,0,1-5.2.45,20.94,20.94,0,0,1-6-.84A12.3,12.3,0,0,1,201,29.87a13.25,13.25,0,0,1-3.31-5.14,22.26,22.26,0,0,1-1.2-7.81,20.55,20.55,0,0,1,1.35-8,13.45,13.45,0,0,1,3.55-5.07,12.77,12.77,0,0,1,5-2.66,21.82,21.82,0,0,1,5.71-.77,32.06,32.06,0,0,1,5.14.36,26.3,26.3,0,0,1,3.58.82l-1.5,5a13.53,13.53,0,0,0-2.68-.7A22.46,22.46,0,0,0,213,5.69a7.77,7.77,0,0,0-6.38,2.73q-2.22,2.72-2.22,8.54a19.08,19.08,0,0,0,.51,4.57,9.87,9.87,0,0,0,1.62,3.56,7.52,7.52,0,0,0,2.83,2.32,9.4,9.4,0,0,0,4.12.82,13.05,13.05,0,0,0,3.6-.43,17.42,17.42,0,0,0,2.71-1Z"/><path class="cls-7" d="M227,1.06h7.57V32.87H227Z"/><path class="cls-7" d="M267.37,6.33h-9.92V32.87h-7.57V6.33h-10V1.06h27.47Z"/><path class="cls-7" d="M272.65,1.06h7.58V32.87h-7.58Z"/><path class="cls-7" d="M286.3,27.59l14.06-19.4,2.53-1.86H286.3V1.06h24.22V6.33L296.39,25.87l-2.46,1.72h16.59v5.28H286.3Z"/><path class="cls-7" d="M315.93,1.06h21V6.33H323.5v7.81h12.2v5.27H323.5v8.18h13.7v5.28H315.93Z"/><path class="cls-7" d="M352.47,17.23l-2.77-5.59h-.3l1,5.5V32.87h-7.15V.83H349l12.08,16,2.59,5.5h.36l-1-5.4V1.06h7.16v32h-5.83Z"/><path class="cls-7" d="M211.62,66.88a3.21,3.21,0,0,0-1.13-2.47,14.07,14.07,0,0,0-2.84-1.94c-1.13-.6-2.37-1.22-3.7-1.86a22.12,22.12,0,0,1-3.71-2.23,11.64,11.64,0,0,1-2.83-3,7.53,7.53,0,0,1-1.14-4.23,7.72,7.72,0,0,1,.93-3.93,7.46,7.46,0,0,1,2.54-2.64,11.73,11.73,0,0,1,3.82-1.5,22.89,22.89,0,0,1,4.72-.47,33.59,33.59,0,0,1,5.67.45,18.2,18.2,0,0,1,4.36,1.23l-2.33,5a12.9,12.9,0,0,0-3-1,19.78,19.78,0,0,0-4.33-.45,7.3,7.3,0,0,0-3.59.72,2.35,2.35,0,0,0-1.25,2.14A2.92,2.92,0,0,0,204.93,53a16.26,16.26,0,0,0,2.84,1.89c1.14.6,2.37,1.23,3.7,1.88A22.29,22.29,0,0,1,215.18,59,12,12,0,0,1,218,62.09a7.43,7.43,0,0,1,1.14,4.16,8.89,8.89,0,0,1-.93,4.18,7.94,7.94,0,0,1-2.63,2.93,12.63,12.63,0,0,1-4.09,1.75,22.3,22.3,0,0,1-5.31.59,33.4,33.4,0,0,1-6.48-.55,20.05,20.05,0,0,1-4.27-1.22l2.44-5.14a21.3,21.3,0,0,0,3.29,1.09,17.4,17.4,0,0,0,4.48.55Q211.62,70.43,211.62,66.88Z"/><path class="cls-7" d="M246.92,73.79a11.12,11.12,0,0,1-4.15,1.45,29.22,29.22,0,0,1-5.17.46,20.62,20.62,0,0,1-6-.84,12.19,12.19,0,0,1-4.87-2.8,13.2,13.2,0,0,1-3.28-5.13,22.28,22.28,0,0,1-1.2-7.82,20.58,20.58,0,0,1,1.35-8,13.39,13.39,0,0,1,3.52-5.06,12.63,12.63,0,0,1,5-2.66,21.06,21.06,0,0,1,5.67-.77,31.75,31.75,0,0,1,5.11.36,24.34,24.34,0,0,1,3.55.82l-1.49,5a12.51,12.51,0,0,0-2.66-.7,22.2,22.2,0,0,0-3.61-.25,7.69,7.69,0,0,0-6.33,2.72c-1.48,1.82-2.21,4.67-2.21,8.55a19,19,0,0,0,.51,4.56,9.73,9.73,0,0,0,1.61,3.57,7.39,7.39,0,0,0,2.81,2.32,9.41,9.41,0,0,0,4.09.82,13.29,13.29,0,0,0,3.58-.43,15.88,15.88,0,0,0,2.69-1Z"/><path class="cls-7" d="M251.16,43.25h7.53V75.06h-7.53Z"/><path class="cls-7" d="M264.72,43.25h20.91v5.27H272.25v7.82h12.12v5.27H272.25v8.18h13.62v5.27H264.72Z"/><path class="cls-7" d="M299.6,59.43l-2.74-5.59h-.3l.95,5.5V75.06H290.4V43h5.8l12,16,2.57,5.5h.36l-1-5.41V43.25h7.11v32h-5.79Z"/><path class="cls-7" d="M346.37,73.79a11.12,11.12,0,0,1-4.15,1.45,29.31,29.31,0,0,1-5.17.46,20.62,20.62,0,0,1-6-.84,12.19,12.19,0,0,1-4.87-2.8,13.2,13.2,0,0,1-3.28-5.13,22.28,22.28,0,0,1-1.2-7.82,20.58,20.58,0,0,1,1.35-8,13.39,13.39,0,0,1,3.52-5.06,12.56,12.56,0,0,1,5-2.66,21.06,21.06,0,0,1,5.67-.77,31.75,31.75,0,0,1,5.11.36,24.34,24.34,0,0,1,3.55.82l-1.49,5a12.51,12.51,0,0,0-2.66-.7,22.2,22.2,0,0,0-3.61-.25,7.69,7.69,0,0,0-6.33,2.72c-1.48,1.82-2.21,4.67-2.21,8.55a19.54,19.54,0,0,0,.5,4.56,9.91,9.91,0,0,0,1.62,3.57,7.39,7.39,0,0,0,2.81,2.32,9.41,9.41,0,0,0,4.09.82,13.34,13.34,0,0,0,3.58-.43,16.22,16.22,0,0,0,2.69-1Z"/><path class="cls-7" d="M350,43.25h20.91v5.27H357.48v7.82h12.13v5.27H357.48v8.18H371.1v5.27H350Z"/><path class="cls-7" d="M221.19,116a11.54,11.54,0,0,1-4.18,1.45,30.61,30.61,0,0,1-5.2.45,20.9,20.9,0,0,1-6-.84,12.34,12.34,0,0,1-4.9-2.79,13.27,13.27,0,0,1-3.3-5.14,22,22,0,0,1-1.21-7.81,20.39,20.39,0,0,1,1.36-8,13.55,13.55,0,0,1,3.54-5.07,12.94,12.94,0,0,1,5-2.66,21.76,21.76,0,0,1,5.71-.77,30.93,30.93,0,0,1,5.14.37,24.85,24.85,0,0,1,3.57.81L219.2,91a13.21,13.21,0,0,0-2.67-.71,23.8,23.8,0,0,0-3.64-.25,7.75,7.75,0,0,0-6.37,2.73q-2.22,2.73-2.22,8.54a19.08,19.08,0,0,0,.51,4.57,9.91,9.91,0,0,0,1.62,3.57,7.34,7.34,0,0,0,2.83,2.31,9.39,9.39,0,0,0,4.11.82,13.13,13.13,0,0,0,3.61-.43,16.91,16.91,0,0,0,2.7-1Z"/><path class="cls-7" d="M226.23,85.45h21v5.27H233.81v7.82H246v5.27h-12.2V112h13.7v5.27H226.23Z"/><path class="cls-7" d="M262.77,101.63,260,96h-.3l1,5.49v15.73h-7.15v-32h5.83l12.08,16,2.58,5.5h.36l-1-5.41V85.45h7.15v32h-5.83Z"/><path class="cls-7" d="M312.66,90.72h-9.92v26.54h-7.57V90.72h-10V85.45h27.47Z"/><path class="cls-7" d="M317.28,85.45h21v5.27H324.86v7.82h12.2v5.27h-12.2V112h13.7v5.27H317.28Z"/><path class="cls-7" d="M344.57,85.77a50.87,50.87,0,0,1,5.29-.59c1.88-.12,3.5-.19,4.87-.19a32.36,32.36,0,0,1,5,.39,13.57,13.57,0,0,1,4.35,1.41,8.45,8.45,0,0,1,3.07,2.77A7.81,7.81,0,0,1,368.37,94a9.94,9.94,0,0,1-1.89,6.29,9.58,9.58,0,0,1-5.2,3.35l2.4,1.45,7.76,12.18h-8.72l-7.33-12.54-3.25-.6v13.14h-7.57Zm7.57,14.45h2.59a6.15,6.15,0,0,0,4.26-1.3,5.1,5.1,0,0,0,1.45-4,4.68,4.68,0,0,0-1.21-3.34,4.94,4.94,0,0,0-3.78-1.29c-.64,0-1.26,0-1.87,0a7.77,7.77,0,0,0-1.44.18Z"/><path class="cls-8" d="M196.51,156.32l17.34-23.72,2.06-1.82h-19.4v-3.14h23.76v3.14l-17.4,23.86-2,1.68h19.4v3.13H196.51Z"/><path class="cls-8" d="M248.9,127.64h4.5V149q0,5.76-3.09,8.34t-8.77,2.56q-6.61,0-9.63-2.5t-3-7.68v-22h4.68v20.27a16.3,16.3,0,0,0,.44,4.14,6,6,0,0,0,1.43,2.72,5.62,5.62,0,0,0,2.5,1.5,12.51,12.51,0,0,0,3.68.46q4.11,0,5.7-2.09t1.59-6.73Z"/><path class="cls-8" d="M264.19,128a43.08,43.08,0,0,1,4.52-.52c1.64-.11,3.15-.16,4.52-.16a24.48,24.48,0,0,1,4.62.43,11.2,11.2,0,0,1,3.8,1.46,7.73,7.73,0,0,1,2.59,2.68,8.18,8.18,0,0,1,1,4.16,8.44,8.44,0,0,1-2.15,6,10.73,10.73,0,0,1-5.71,3l2.37,1.69,8.61,12.67H282.9l-9.36-13.86-4.68-.68v14.54h-4.67Zm4.67,14.68h3.75a9,9,0,0,0,5.61-1.59,5.76,5.76,0,0,0,2.06-4.86,5.46,5.46,0,0,0-1.72-4.14,7.08,7.08,0,0,0-5.08-1.63c-.83,0-1.69,0-2.59.06a16.14,16.14,0,0,0-2,.21Z"/><path class="cls-8" d="M297.87,127.64h4.68v31.81h-4.68Z"/><path class="cls-8" d="M337.1,158.23a11.2,11.2,0,0,1-3.93,1.36,29.56,29.56,0,0,1-5,.41,19.62,19.62,0,0,1-6.11-.91,12.19,12.19,0,0,1-4.83-2.88,13.08,13.08,0,0,1-3.15-5.12,22.38,22.38,0,0,1-1.13-7.54,20.42,20.42,0,0,1,1.28-7.68,14,14,0,0,1,3.4-5.09,12.86,12.86,0,0,1,4.9-2.82,19.27,19.27,0,0,1,5.71-.86,32,32,0,0,1,4.95.32,23.8,23.8,0,0,1,3.4.77l-1.12,3.09a14,14,0,0,0-2.93-.77,24.53,24.53,0,0,0-3.87-.28,11.87,11.87,0,0,0-4.11.71,8.92,8.92,0,0,0-3.43,2.27,11.22,11.22,0,0,0-2.38,4.11,19.46,19.46,0,0,0-.87,6.23q0,6.63,3.12,10a10.8,10.8,0,0,0,8.3,3.34,15,15,0,0,0,6.67-1.45Z"/><path class="cls-8" d="M366.42,144.78H350.33v14.67h-4.68V127.64h4.68v14h16.09v-14h4.68v31.81h-4.68Z"/></svg>
