<svg id="Layer_1" data-name="Layer 1" xmlns="http://www.w3.org/2000/svg" viewBox="0 0 180 142"><defs><style>.cls-1{fill:#fff;}</style></defs><title>Artboard 2</title><path class="cls-1" d="M5.52,79.08V91.41H7.77c3.09,0,5.21-2.17,5.21-6.08v-.14c0-3.92-2.12-6.11-5.21-6.11ZM1.44,75.39H7.8c5.71,0,9.4,3.94,9.4,9.71v.25c0,5.77-3.69,9.74-9.4,9.74H1.44Z"/><polygon class="cls-1" points="19.36 75.39 32.05 75.39 32.05 79.08 23.41 79.08 23.41 83.33 31.01 83.33 31.01 87.02 23.41 87.02 23.41 91.41 32.17 91.41 32.17 95.09 19.36 95.09 19.36 75.39"/><polygon class="cls-1" points="32.84 75.39 37.26 75.39 41.43 88.96 45.59 75.39 49.9 75.39 43.26 95.2 39.48 95.2 32.84 75.39"/><polygon class="cls-1" points="51.3 75.39 64 75.39 64 79.08 55.36 79.08 55.36 83.33 62.96 83.33 62.96 87.02 55.36 87.02 55.36 91.41 64.11 91.41 64.11 95.09 51.3 95.09 51.3 75.39"/><polygon class="cls-1" points="66.28 75.39 70.36 75.39 70.36 91.35 78.32 91.35 78.32 95.09 66.28 95.09 66.28 75.39"/><path class="cls-1" d="M91.89,85.35v-.19c0-3.89-2-6.34-4.7-6.34s-4.7,2.43-4.7,6.31v.2c0,3.88,2,6.33,4.73,6.33s4.67-2.42,4.67-6.31m-13.6.09V85.1c0-5.91,3.72-10,8.93-10s8.89,4.11,8.89,10v.34c0,5.89-3.72,10.05-8.92,10.05s-8.9-4.11-8.9-10"/><path class="cls-1" d="M104.66,85.44a3,3,0,0,0,3.3-3.15v0c0-2.06-1.19-3.18-3.35-3.18h-2.23v6.36Zm-6.36-10h6.56c4.42,0,7.2,2.56,7.2,6.76v0c0,4.53-3.23,6.81-7.37,6.9h-2.31v6H98.3Z"/><polygon class="cls-1" points="113.7 75.39 117.97 75.39 122.36 83.38 126.7 75.39 131.01 75.39 131.01 95.09 127.01 95.09 127.01 82.51 122.36 90.65 122.28 90.65 117.67 82.57 117.67 95.09 113.7 95.09 113.7 75.39"/><polygon class="cls-1" points="133.9 75.39 146.6 75.39 146.6 79.08 137.96 79.08 137.96 83.33 145.56 83.33 145.56 87.02 137.96 87.02 137.96 91.41 146.71 91.41 146.71 95.09 133.9 95.09 133.9 75.39"/><polygon class="cls-1" points="148.87 75.39 152.62 75.39 160.16 86.87 160.16 75.39 164.16 75.39 164.16 95.09 160.67 95.09 152.87 83.19 152.87 95.09 148.87 95.09 148.87 75.39"/><polygon class="cls-1" points="170.83 79.16 165.87 79.16 165.87 75.39 179.83 75.39 179.83 79.16 174.88 79.16 174.88 95.09 170.83 95.09 170.83 79.16"/><path class="cls-1" d="M0,66.1l2.65-3.3A8.34,8.34,0,0,0,8,65.24c1.72,0,2.77-.87,2.77-2.13v0c0-1.08-.61-1.75-3.7-2.93C3.27,58.66.89,57.21.89,53.51v-.07c0-3.76,2.91-6.32,7.07-6.32a10.29,10.29,0,0,1,7,2.65l-2.5,3.4a7.57,7.57,0,0,0-4.6-2c-1.54,0-2.5.77-2.5,1.88v0c0,1.24.74,1.83,4.1,3.21,3.77,1.49,5.81,3.09,5.81,6.46v.06c0,4-3.06,6.48-7.26,6.48A11.62,11.62,0,0,1,0,66.1"/><path class="cls-1" d="M17.13,60.61V47.39H21.6V60.64c0,3,1.46,4.56,3.77,4.56s3.77-1.48,3.77-4.47V47.39h4.44V60.51c0,6-3.27,8.83-8.27,8.83s-8.18-2.9-8.18-8.73"/><path class="cls-1" d="M34.91,66.1l2.65-3.3a8.32,8.32,0,0,0,5.37,2.44c1.73,0,2.78-.87,2.78-2.13v0c0-1.08-.62-1.75-3.7-2.93-3.83-1.48-6.21-2.93-6.21-6.63v-.07c0-3.76,2.9-6.32,7.07-6.32a10.29,10.29,0,0,1,7,2.65l-2.5,3.4a7.59,7.59,0,0,0-4.6-2c-1.55,0-2.5.77-2.5,1.88v0c0,1.24.74,1.83,4.1,3.21,3.77,1.49,5.81,3.09,5.81,6.46v.06c0,4-3.06,6.48-7.26,6.48a11.58,11.58,0,0,1-8-3.18"/><polygon class="cls-1" points="55.99 51.53 50.55 51.53 50.55 47.4 65.86 47.4 65.86 51.53 60.43 51.53 60.43 69 55.99 69 55.99 51.53"/><path class="cls-1" d="M76.05,60.36l-2.35-7-2.37,7ZM71.64,47.27H75.9L83.64,69H79l-1.6-4.69H70L68.39,69h-4.5Z"/><rect class="cls-1" x="85.34" y="47.39" width="4.47" height="21.61"/><polygon class="cls-1" points="93.15 47.39 97.25 47.39 105.53 59.99 105.53 47.39 109.91 47.39 109.91 69 106.08 69 97.53 55.94 97.53 69 93.15 69 93.15 47.39"/><path class="cls-1" d="M123.61,60.36l-2.35-7-2.37,7ZM119.2,47.27h4.26L131.2,69h-4.63L125,64.31h-7.44L116,69h-4.51Z"/><path class="cls-1" d="M141,60H137.1v5.06h4c2,0,3.27-.86,3.27-2.53v0c0-1.55-1.14-2.5-3.36-2.5m2.44-6.24c0-1.57-1.11-2.4-3-2.4H137.1v4.87h3.12c2,0,3.24-.8,3.24-2.44Zm-10.71-6.36h8a7.86,7.86,0,0,1,5.65,1.89A5,5,0,0,1,147.87,53V53a5.08,5.08,0,0,1-2.93,4.73c2.31.89,3.86,2.31,3.86,5.15v.15C148.8,67,145.68,69,141,69h-8.24Z"/><polygon class="cls-1" points="150.89 47.39 155.37 47.39 155.37 64.9 164.1 64.9 164.1 69 150.89 69 150.89 47.39"/><polygon class="cls-1" points="165.96 47.39 179.88 47.39 179.88 51.44 170.4 51.44 170.4 56.1 178.73 56.1 178.73 60.14 170.4 60.14 170.4 64.96 180 64.96 180 69 165.96 69 165.96 47.39"/><path class="cls-1" d="M89.8,27.32l.13.19a17.87,17.87,0,0,1,0,2.07,13,13,0,0,1,2-.29.66.66,0,0,1-.36-.22c-.4,0-.58-.43-.71-.74s.09-.41.18-.61c-.16-.34-.68-.09-1-.21-.08-.07-.14-.17-.26-.19m-9.58-.59,0,.1-1.73,1.74a17,17,0,0,0,9,4.19,13.13,13.13,0,0,1,1.67.2l-.12-.2V30.49l.08-.13-.26.07a13.24,13.24,0,0,1-8.56-3.7m18.63,0,0-.2c-.23.46-.75.75-1.15,1.1-.54.55-1.43.67-1.71,1.46-.29.27-.4.68-.81.84-.15.4-.58.37-.82.67-.7.63-1.16-.41-1.8-.53l-1.28.23a3.85,3.85,0,0,1-1.31,0,19.38,19.38,0,0,1,0,2.64l.16-.1a16.37,16.37,0,0,0,10.54-4.43ZM83.34,25.19c0,.2.32.32.24.58a.71.71,0,0,1-.67.22c-.48-.07-.83.29-1.28.34s-.56-.38-.94-.34a13.26,13.26,0,0,0,8.13,3.49l.24.16-.1-.29V27.13l-.21.09a9.74,9.74,0,0,1-5.41-2m-.06-.07a.35.35,0,0,1-.2-.26ZM83,24.76l0-.06,0,.1Zm13.5-.32-.06-.16a1.25,1.25,0,0,1-.38.48c0,.13,0,.33.12.43.34.11.77.32.85.72-.13.37-.84.71-.4,1.11.14.2-.2.27-.14.44l.11-.16a11,11,0,0,0,1.5-1.25h.06c-.1,0-.23.07-.35,0a.54.54,0,0,1-.28-.56ZM84.85,22.1a12.87,12.87,0,0,1-1.67,1.71c.26,0,.4.3.62.43a10.46,10.46,0,0,0,4.29,1.91l-.4-.18c-.3-.35-.73-.75-.75-1.23.3-.1.27-.43.37-.66a1.69,1.69,0,0,1,.88-.49c-.85.35-1.59-.27-2.29-.6a3.36,3.36,0,0,1-1.05-.89m8.1-.24c-.26,0-.39.2-.59.36s-.35-.25-.54-.16c0,.05.05.06.08.08a.18.18,0,0,1,0,.24c-.28.26-.42-.12-.69-.1v.1c0,.06,0,.15-.1.12-.17-.28-.51-.18-.68-.42-.11-.06-.21,0-.28.08s-.33,0-.26.21c-.21.07-.24.3-.39.43-.26,0-.38.25-.62.25,0,.05,0,.13.08.14a.86.86,0,0,0,.48.06c.25-.41.67-.07,1-.22.22,0,.06.28.22.36.35-.11.61.29.89,0,0-.39.42-.36.67-.46s.8-.53.76-1Zm-1-.63c0,.07-.11.19,0,.23.2-.21.63-.2.65-.5-.29-.05-.45.11-.65.27m-4.87-1.47a12.78,12.78,0,0,1-1.56,1.67,6.4,6.4,0,0,0,3,1.4c.06-.23,0-.51.09-.71S89,22,89.16,22a.14.14,0,0,0,.1-.22c-.25-.05-.14-.32-.22-.47s.15-.07.12-.17.08-.29-.06-.43c.06,0,.1-.14.18-.14-.53.28-1.1-.06-1.57-.27-.22-.12-.53-.25-.58-.52m10.57,0c-.24,0-.53.13-.74,0s-.13,0-.12.1-.17.29-.36.23-.15-.23-.2-.34a.7.7,0,0,1,0,.25,3.88,3.88,0,0,0-.36.57c-.17.19-.46.12-.64.28,0,.41-.48.32-.73.45,0,0,0,.06.06.1a.32.32,0,0,0,.36-.09c.36.1.28-.35.48-.5s.35-.18.53-.06a1.16,1.16,0,0,1,.2.85c-.2.2-.1.53-.24.76,0,.28-.3.41-.26.68a.58.58,0,0,1-.46.15,7.65,7.65,0,0,0-2.1-.48.14.14,0,0,0-.1.16,10.34,10.34,0,0,0,1,.3c.29.08.48.43.84.32s.81.1,1-.22c0-.31.23-.54.37-.8l.1,0a1.72,1.72,0,0,1,.23.63c.24-.25.42-.53.63-.79a7.61,7.61,0,0,0,1.23-2.59,2.47,2.47,0,0,0-.67.11m-4.75,0a.63.63,0,0,0,.14.4c.32,0,.18.4.48.36s0-.19.06-.3-.29-.28-.46-.43c0-.05,0-.09,0-.13s-.18,0-.26.1m-6.63-.69a1.13,1.13,0,0,1-.35.54l0,0c.2-.14.34-.4.6-.42Zm-2.64-.66c.24.43.36.93.61,1.36s.48.69.64,1.07a4.84,4.84,0,0,1,.7-.82.45.45,0,0,0-.07-.33c-.08-.18,0-.43-.15-.58-.22.08.08.29,0,.42a.14.14,0,0,1-.21-.1.55.55,0,0,1-.4-.38c.16-.1,0-.14-.08-.22s-.1,0-.16,0a.2.2,0,0,1-.13,0c0-.48-.54-.19-.74-.44m-4.31-1-.19.09a19.91,19.91,0,0,1-2.33-.06l.1.14.18,1.54a11.06,11.06,0,0,1,.32,1.76c.1-.13,0-.38.26-.4-.09-.19.18-.35,0-.51a1.61,1.61,0,0,1,.48-1.1c.43,0,.46-.58.89-.61.22,0,.35.29.44.39a1.59,1.59,0,0,1-.18-1.24m-3.29,0-.22.09-2.34,0a17.16,17.16,0,0,0,2.06,7.37,28,28,0,0,0,2.23,3.14l1.67-1.73.21-.08a4.62,4.62,0,0,1-.78-.81,1.13,1.13,0,0,1-.71-.54c-.08-.09,0-.26-.1-.32l-.1.12c-.3.15-.4-.16-.61-.28s-.13-.64-.48-.55c-.14,0-.18-.16-.26-.24-.33,0-.41-.33-.59-.51,0,.08,0,.18-.1.23-.34.08-.45-.34-.68-.5-.06,0-.1.09-.19.07a1,1,0,0,1-.34-.7c-.28-.31-.15-.81-.1-1.19,0-.1.19-.16.17-.28s.26-.19.43-.2a.38.38,0,0,1,.17.16c.11-.07.35,0,.26-.24a1.1,1.1,0,0,1,.55-.2,3,3,0,0,0,.38.52l-.12-.18a14.24,14.24,0,0,1-.41-2.56c0-.05-.1-.07,0-.12l0,0a3.32,3.32,0,0,1,0-.47m4,0,.13.2a7,7,0,0,1,.11,1.65c.1-.16.12-.38.32-.48,0-.15-.2-.2-.17-.35.16-.31,0-.81.42-1a1,1,0,0,1-.81-.07m19.59,0a9.64,9.64,0,0,1-.12,1.52l.28.3a.31.31,0,0,1-.06.38.33.33,0,0,1-.39,0A11,11,0,0,1,98,22.69c-.27.35-.54.84-.9,1l.76.67s0-.11,0-.17S97.9,24,98,24c.37,0,.38.39.59.59,0,.32.24.57.14.86a12.41,12.41,0,0,0,3.37-8l.12-.13c-.76.07-1.56,0-2.34,0Zm3.37.06-.15-.1.09.23a13.6,13.6,0,0,1-2.66,7.45,5.81,5.81,0,0,1-1,1.09,17.22,17.22,0,0,1,1.88,1.84l.06-.13a16.15,16.15,0,0,0,4.19-10.25l.1-.2-.12.06Zm-5.75-.12.26.27c.26.17.09.55.36.7s.45.55.59.83a1.13,1.13,0,0,0,.08-.24c.11-.46.1-1,.24-1.44a3.41,3.41,0,0,1-1.53-.12m.52-.82c-.06,0-.16,0-.24,0a.65.65,0,0,1,.24,0m-15.71-.28c-.68.21.11.73-.06,1.15-.09.24-.35,0-.52.11l-.07.45c-.1.26-.43.07-.58.24s0,.35.1.48c-.23.54.53.71.52,1.19.24.31,0,.74.3,1,.08.55-.07,1.29.41,1.71l.08.52c.1.37-.43.27-.36.59.1-.05.13.09.13.12v0a24.87,24.87,0,0,1,2.16-2.2l-.32-.32a8.5,8.5,0,0,1-1.29-2.88l-.24-.12a6.5,6.5,0,0,0-.12.75l-.09.1c-.17,0-.28-.15-.43-.25s-.13-.24,0-.32a.34.34,0,0,1,.2.06c.07-.09,0-.22.08-.34s-.15-.39,0-.56c.15,0,.27.17.34.28s.29-.08.42-.14.2-.34,0-.42a2,2,0,0,0,0-1c-.1-.28-.41-.23-.63-.2m7.29-2.08c-.13-.15-.43-.06-.6,0,.17.17.1.47.2.68a1.6,1.6,0,0,1-1.07.63c-.11.14-.08.43-.34.41-.08.18-.37.29-.26.56a4.28,4.28,0,0,0-.14,1c-.5.31-.36-.41-.61-.56l-.08.14c-.1,0-.17,0-.24-.1s-.2-.05-.27,0-.27.34-.23.59-.3.1-.27.26a4.83,4.83,0,0,0,.85-.12c.19,0,.35-.09.54-.1a.17.17,0,0,1,.12.2h.07a.34.34,0,0,0,.13-.4c0-.18.21-.18.33-.23s0,.16.06.24c.38.15-.09.43-.14.63s0,.52-.32.47a.13.13,0,0,1-.09-.15h0a.42.42,0,0,0,.23.38c.23-.19.24-.52.58-.56.17-.19-.08-.47.18-.62.44,0,.91-.2,1.25.16,0,.15-.08.22,0,.34a1.6,1.6,0,0,1-.3.56.29.29,0,0,1-.08.32c-.12.51-.71.27-1,.45a2.69,2.69,0,0,0,1.86.5c.36,0,.2-.46.38-.66.12-.59.66-.19,1-.35a2.16,2.16,0,0,0,.29-.78.55.55,0,0,1-.23-.63c-.14-.19-.12-.54-.43-.58,0-.06,0-.15,0-.2s.17-.24.23-.38c-.2-.13-.15-.41-.13-.57-.33.1-.36-.33-.6-.42-.06-.2-.27-.23-.44-.26-.4.19-.47-.31-.77-.42,0-.1-.1-.23,0-.31s.35,0,.53,0Zm-4.07-1.39h.19c.2.2.52.16.68.43s-.15.13-.14.26.1,0,.14.1.12-.09.18-.16.24.2.45.2a.31.31,0,0,1,.44.06c.13-.12.42,0,.46-.23.26-.27.12-.7.51-.88.13.08,0,.2,0,.32.26.11.55-.22.76,0A5.27,5.27,0,0,1,89,11a5.73,5.73,0,0,0-3.59,1.69m4.52-1.76A15.76,15.76,0,0,1,90,12.65l.61.2c.18-.29.56-.35.73-.63.11-.09.24,0,.32.1a1.76,1.76,0,0,1-.1.68c-.23.45-.77.51-1.07.84.2.11.3-.1.46-.14a1.07,1.07,0,0,1,.57.38c.15.07.29,0,.42-.08.1-.69,1-.59,1.23-1.25l-.16.06c-.07-.09-.23-.05-.23-.2a1.92,1.92,0,0,1,.51-.4,8.38,8.38,0,0,0-2.4-1.09,8.45,8.45,0,0,1-1-.21m-7.26-.27a9.93,9.93,0,0,0-2.26,4.65,7.4,7.4,0,0,1-.2,1.25,2.19,2.19,0,0,1,1,0c-.19-.1,0-.35-.14-.48s-.06-.47.14-.61c0-.34.35-.52.38-.83s.5-.11.69-.3,0-.18,0-.28c.16-.22.42-.21.63-.34a1.75,1.75,0,0,1,.56-.59c.5,0,.51-.69,1-.7a20.36,20.36,0,0,1-1.86-1.73m13.66-.09,0,.1c-.77.81-1.62,1.64-2.36,2.46a.62.62,0,0,0,.23.25c0-.2.14-.38.16-.59.2-.28.5-.1.76,0a6,6,0,0,1,1.19.08c.31.15.33.54.61.69a.24.24,0,0,1-.09.32c.09.63.39-.17.71,0,.13,0,.3,0,.4.18s.37.21.39.46-.16.16-.24.23c.07.25-.26.41-.15.68.49.09.51-.47.73-.72a4,4,0,0,0-.47-1.27c-.27-.06-.44-.39-.72-.45-.54-.21.09-.54,0-.86a10.16,10.16,0,0,0-1.13-1.5M80.23,8.22v.16l-.91,1.15a13.36,13.36,0,0,0-2.4,7l2.3,0,.22.08c-.1-.06-.07-.16-.1-.24A10.11,10.11,0,0,1,82,10a17.4,17.4,0,0,1-1.77-1.77m9.63-.63.09.18,0,2.28.22,0a7.42,7.42,0,0,1,3.77,1.53l.06.18a19.2,19.2,0,0,1,1.39-1.49l.42-.24-.2-.08a9.8,9.8,0,0,0-3-1.75,14.8,14.8,0,0,0-2.71-.57m-.88,0-.14.09A9.83,9.83,0,0,0,83.24,10,23.57,23.57,0,0,1,85,11.7l.12-.18a7.83,7.83,0,0,1,2.56-1.33A3.88,3.88,0,0,1,89,10.05a11.42,11.42,0,0,1,0-2.48m-11-1.75A16.54,16.54,0,0,0,73.64,15c-.09.5,0,1-.13,1.53a18.66,18.66,0,0,1,2.59,0L76,16.2A13.68,13.68,0,0,1,78.56,9a7,7,0,0,1,1.13-1.28C79.14,7.2,78.57,6.61,78,6ZM101,5.76a19.8,19.8,0,0,1-1.67,1.8l-.29.05c.18,0,.23.26.35.38.61.33.77,1,1.31,1.35.3.63,1,1.12,1,1.84A13.38,13.38,0,0,1,103,16.4l-.07.1a.36.36,0,0,0,.2-.08l2.42,0c-.16-.24-.09-.58-.14-.86A16.55,16.55,0,0,0,101,5.76m-18.66.76c-.52.36-1,.83-1.53,1.15a13.8,13.8,0,0,1,1.69,1.57l.06.16a10.19,10.19,0,0,1,5-2.55A4.6,4.6,0,0,1,89,6.75a15.05,15.05,0,0,1,0-2.42,12.87,12.87,0,0,0-6.57,2.19M97.44,4.27c-.17.16-.32-.16-.48,0a.29.29,0,0,0,.06.24c.35.13.39.64.84.52.14-.15-.08-.31,0-.5a.49.49,0,0,0-.38-.3m-7.59,0,.08.16c0,.78,0,1.61,0,2.34a2.82,2.82,0,0,1,1,0A9.82,9.82,0,0,1,95.37,8.6,1.24,1.24,0,0,1,95,8a.1.1,0,0,1,.1,0c0-.26-.26-.4-.3-.63A.18.18,0,0,1,95,7.25a6,6,0,0,1,.74.87c.18-.08.33,0,.47.14s.09.45.27.62c0,.5.64.78.61,1.27,0,.12.15,0,.2.08l.5.63c-.09.11,0,.26.09.34s.35-.18.58-.14-.05.4,0,.6c.13,0,.28-.1.39,0s-.16.3-.23.42.15.14.28.18a.23.23,0,0,1,.21.3c.42.44-.13.91.07,1.37a.79.79,0,0,1-.22.83c0,.36-.32.59-.46.9l-.43.09c-.22.22.2.5,0,.64l.94,0-.1-.1A1.38,1.38,0,0,1,99,15.15a2.77,2.77,0,0,1,.45-.93c.06,0,.17-.12.22,0a1.82,1.82,0,0,1-.14.87,2.69,2.69,0,0,1,.26,1.37c.83-.05,1.64-.07,2.46-.06l-.08-.16A12.22,12.22,0,0,0,101,11.89c-.18,0-.3.15-.51.1a.18.18,0,0,1-.1-.17,9.85,9.85,0,0,0-.92-1c-.43,0-.62-.46-1-.51s-.11-.69-.6-.54a.81.81,0,0,1-.53-.56A1.38,1.38,0,0,0,96.88,8c-.3-.11-.43.3-.73.23s-.09-.3-.14-.45-.2-.21-.18-.38c.4-.52-.48-.51-.28-1,0-.37-.43-.51-.63-.8a13.64,13.64,0,0,0-4.07-1.17,2.72,2.72,0,0,1-1-.14m2-2.08-1.21.52c-.1,0-.29-.09-.36.05s0,.1,0,.14c.44.57,1.22.25,1.77.14a1.06,1.06,0,0,0,1.09-.28V2.68a1.71,1.71,0,0,0-1.31-.51M88.92.91a16.26,16.26,0,0,0-9,3.2c-.51.35-1,.89-1.49,1.19h.08a13.58,13.58,0,0,1,1.85,1.79l0-.12A13.31,13.31,0,0,1,89,3.36l-.08-.2,0-2Zm.94-.09a11.9,11.9,0,0,1,0,2.32.35.35,0,0,1,.07-.2c.12-.07.22,0,.27.12s.06.32,0,.38c.1,0,.15-.06.24-.06A12.54,12.54,0,0,1,95.73,5V5c.33-.16.75-.37,1.08-.08.41-.15.48.34.81.4a1.78,1.78,0,0,1,.89,1.14c.08.15.31.26.34.42a6.45,6.45,0,0,1,1.27-1.47l.29-.12A15.73,15.73,0,0,0,91.5,1a12.46,12.46,0,0,1-1.64-.2m14.8,8.77a16.65,16.65,0,0,1,1.1,11.8A16.94,16.94,0,0,1,80,30.93,16.93,16.93,0,0,1,81.89,1.81,17.72,17.72,0,0,1,89.53,0a16.89,16.89,0,0,1,15.13,9.59"/><path class="cls-1" d="M105.24,3.18a7.4,7.4,0,0,1,2.15,4l.2.47A18,18,0,0,1,103,2.82l-1.39-1.41a11.79,11.79,0,0,1,3.59,1.77"/><path class="cls-1" d="M74,5.37a25.16,25.16,0,0,1-2.81,2.56c.51-1,.52-2.28,1.24-3.24,1-1.77,2.89-2.39,4.57-3a20.73,20.73,0,0,0-3,3.72"/><path class="cls-1" d="M109.61,7.23c.39,1.76-.18,3.48.18,5.26v0c-1-1.89-3-2.78-4.4-4.29A6,6,0,0,1,104,5.07c.81,1.94,3,2.37,4.21,4a5.49,5.49,0,0,1,.83,1.32l0,0a36.13,36.13,0,0,1-1.45-4.88,3.85,3.85,0,0,0-1.41-1.84,4.91,4.91,0,0,1,3.38,3.6"/><path class="cls-1" d="M72.5,3.93C70.84,5.07,71,7.12,70.42,8.82c-.17.63-.46,1.21-.61,1.86l0,0a5.81,5.81,0,0,1,1.37-2c1.19-1.09,2.93-1.77,3.51-3.39,0,2.25-1.89,4-3.68,5.27a7.38,7.38,0,0,0-1.86,2.22c0-.57.09-1.14,0-1.74-.19-2-.33-4.19,1-5.64A4.18,4.18,0,0,1,72.5,3.93"/><path class="cls-1" d="M110.66,7.61a7.91,7.91,0,0,1,.73,7.54,13.4,13.4,0,0,0-.85,3.1c-.07-.18-.09-.43-.16-.64-.59-2.26-2.73-3.87-3.61-6a10.64,10.64,0,0,1-.64-2.17c.94,1.74,3.25,2.64,3.88,4.55a8.07,8.07,0,0,1,.4,1.61s.07,0,.07-.06a22.16,22.16,0,0,1,.08-6,5,5,0,0,0-.71-2.9c.38.22.55.64.81,1"/><path class="cls-1" d="M69,7c-1.28,1.94-.22,4.38-.28,6.59l-.17,2.25s0,.09.09.06c.07-.25.09-.52.14-.78C69,13.29,70.61,12,72,10.74a3.57,3.57,0,0,0,.7-1.05,9.22,9.22,0,0,1-.77,2.66c-1.08,2.1-3.07,3.82-3.43,6.22-.17-2.3-1.74-4-1.58-6.46A7.75,7.75,0,0,1,68.85,7s.06,0,.1,0"/><path class="cls-1" d="M112.05,20.69c-.88,1.25-2,2.42-2.76,3.69a7.24,7.24,0,0,0-.18-3.21,27.5,27.5,0,0,1-1.47-6.4l0-.87c.51,2.31,2.78,3.9,2.64,6.48A6,6,0,0,1,110,22.1l0,0,.1-.12a25.94,25.94,0,0,1,1-3.78c.75-1.71,1.67-3.43,1.3-5.49a9.32,9.32,0,0,1-.45,7.94"/><path class="cls-1" d="M68.3,19.88A21.31,21.31,0,0,0,69,22.44s.06,0,.08,0c-.86-2.42.38-4.66,1.63-6.55a6.33,6.33,0,0,0,.63-1.67,14.3,14.3,0,0,1-.3,3.48c-.3,1.45-.76,2.82-1.15,4.22a6.5,6.5,0,0,0-.06,2.78l-.13-.1c-.91-1.69-2.72-3-3.26-4.86A10.21,10.21,0,0,1,66,14.93a8.72,8.72,0,0,1,.52-1.83c-.51,2.62,1.25,4.51,1.83,6.78"/><path class="cls-1" d="M108.58,24.66a5.94,5.94,0,0,1-1,3.05h.1A37.72,37.72,0,0,1,110,24.52c1.46-1.42,2.94-2.86,3.14-4.81.49,3.26-1.34,6.12-4.05,8-1.12.73-2.25,1.41-3.32,2.24v-.1c1.64-2.74.83-6.49,1.85-9.49l.38-1c-.21,1.87.6,3.46.54,5.34"/><path class="cls-1" d="M72.53,28.37c.18.62.54,1.17.78,1.77-2.51-1.7-5.92-3.32-7-6.45a7.76,7.76,0,0,1-.42-3.64c.2,2.78,3.19,4.25,4.57,6.55a7.85,7.85,0,0,0,1,1.38c-.06-.29-.34-.54-.44-.84a6,6,0,0,1-.55-3.29c.14-1.42.73-2.73.5-4.23,1.22,2.63.85,5.9,1.53,8.75"/><path class="cls-1" d="M104.86,30.44a8.21,8.21,0,0,1-1.72,2.06,1.36,1.36,0,0,0,.61-.33c1.8-1.79,4.15-2.3,6.1-3.76a5.8,5.8,0,0,0,1.84-2.32c-.37,3-3.33,5.78-6.13,6.67-1.44.39-3,.51-4.39,1,2.38-2,2.24-5.2,3.83-7.6a23.82,23.82,0,0,1,1.51-2c-1,1.94-.54,4.45-1.65,6.33"/><path class="cls-1" d="M74.88,27.92c.83,2.07,1.15,4.4,3.09,6-2.1-.69-4.55-.5-6.4-1.79a8.84,8.84,0,0,1-4.21-5.67c1.39,3.16,4.89,3.42,7.23,5.34A5.82,5.82,0,0,0,76,32.7l0,0A8.08,8.08,0,0,1,74.45,31c-1.37-1.91-.89-4.58-1.92-6.63a15.67,15.67,0,0,1,2.35,3.54"/><path class="cls-1" d="M99.78,34.07a12,12,0,0,1-1.69.65,18.09,18.09,0,0,0,2.19-.33c2.77-.44,6,0,7.88-2.35a7.44,7.44,0,0,1-4.17,3.6c-2.83,1.07-5.67-.24-8.39-.68l-.52-.07h0a7.58,7.58,0,0,0,3.59-1.62,36.57,36.57,0,0,1,4.56-4.11c-1.25,1.6-1.39,3.89-3.45,4.92"/><path class="cls-1" d="M80.36,33.31A7.83,7.83,0,0,0,84.09,35c-.33.12-.76.08-1.11.18-2.45.6-5.17,1.58-7.76.7A7.49,7.49,0,0,1,71,32.32c2.23,2.54,5.88,1.69,8.86,2.35a4.05,4.05,0,0,0,1.25.16c-.35-.22-.85-.2-1.23-.4-2.33-.82-2.68-3.35-4-5.05a35.42,35.42,0,0,1,4.48,3.93"/><path class="cls-1" d="M98.59,36.75a6.47,6.47,0,0,0,5.72-.62,6.77,6.77,0,0,1-3,2.11c-2.52.94-5.15,0-7.11-1.53-.8-.51-1.5-1.24-2.54-1.17a3.57,3.57,0,0,0-1,.1,19.43,19.43,0,0,1,5.32,3.69,8.12,8.12,0,0,1-1,.87,18.82,18.82,0,0,0-5.24-4.26,3.42,3.42,0,0,0-1.08.46,16.3,16.3,0,0,0-4.32,3.86l-1-.83a18.45,18.45,0,0,1,5.34-3.81c-1.92-.6-3.17,1-4.62,1.82a6.82,6.82,0,0,1-6.18.92,6.69,6.69,0,0,1-3-2,6.56,6.56,0,0,0,5.84.5c2.46-1.06,5-2.42,8-1.77.46,0,.91.47,1.35.08a9.46,9.46,0,0,1,6.59.83Z"/><path class="cls-1" d="M22.92,118.75H42c-.33,15.34-8.79,23-20.17,23-12.26,0-20.12-10.33-20.12-21.44S9.56,98.91,21.82,98.91c13.57,0,17.31,8.46,18.85,12.86l-8.63.55c-1.48-3.63-4.45-6-10.22-6-6.49,0-11.55,5.28-11.55,14.07,0,7.42,4.68,14.07,12.1,14.07a10.18,10.18,0,0,0,10.44-8.62H22.92Z"/><polygon class="cls-1" points="123.49 99.79 131.71 99.79 131.71 133.34 147.55 133.34 147.55 141.01 123.49 141.01 123.49 99.79"/><path class="cls-1" d="M170.63,110.64c0-2.85-2.74-4.6-6-4.6-4.11,0-6.58,1.81-6.58,4.55s2.74,4.22,4.77,4.88l7.56,2.41c5.49,1.75,9.38,4.93,9.38,11.29,0,5.05-3.62,12.61-15,12.61-14.31,0-15.63-9.26-15.63-12.94l8.23-.16c0,4.38,3.45,6.08,7.45,6.08,2.8,0,6.75-1.37,6.75-4.55,0-2.19-.94-3.34-5-4.82l-9-3.23a11.18,11.18,0,0,1-7.73-10.31c0-5.26,3.62-12.83,14.31-12.83,12.71,0,14.74,8.44,14.74,11.46Z"/><path class="cls-1" d="M55.13,115.28A11.59,11.59,0,0,1,57,112.93l-6-6.56a20.4,20.4,0,0,0-3.8,4.95Z"/><path class="cls-1" d="M69.79,110.64a11.43,11.43,0,0,1,2.51,1.58l6-6.55A20.43,20.43,0,0,0,73,102.35Z"/><path class="cls-1" d="M83.52,112.62l-7.94,4a10.94,10.94,0,0,1,.79,2.81l8.84-.84a20,20,0,0,0-1.69-5.93"/><path class="cls-1" d="M75,115.43l7.94-4a20.39,20.39,0,0,0-3.71-4.93l-6,6.54A11.32,11.32,0,0,1,75,115.43"/><path class="cls-1" d="M53.56,121.08c0-.18,0-.36,0-.54l-8.84-.79c0,.44,0,.88,0,1.33a20.38,20.38,0,0,0,.6,4.91l8.54-2.45a11.73,11.73,0,0,1-.26-2.46"/><path class="cls-1" d="M73.89,128.34a11.18,11.18,0,0,1-2.15,2l4.67,7.56A20.69,20.69,0,0,0,81,133.69Z"/><path class="cls-1" d="M76.5,121.08a11,11,0,0,1-.27,2.44L84.77,126a20.28,20.28,0,0,0,.6-4.89c0-.42,0-.84,0-1.25l-8.84.83c0,.14,0,.28,0,.42"/><path class="cls-1" d="M56.3,128.51l-7.07,5.37a20.71,20.71,0,0,0,4.62,4.19l4.67-7.56a11.11,11.11,0,0,1-2.22-2"/><path class="cls-1" d="M53.7,119.27a11.33,11.33,0,0,1,.85-2.85l-7.95-4a20,20,0,0,0-1.75,6Z"/><path class="cls-1" d="M75.32,138.62l-4.66-7.55a11.75,11.75,0,0,1-2.72,1.1l1.64,8.73a20.38,20.38,0,0,0,5.74-2.28"/><path class="cls-1" d="M75.89,124.75a11.22,11.22,0,0,1-1.24,2.56l7.09,5.35a20.58,20.58,0,0,0,2.69-5.46Z"/><path class="cls-1" d="M66.68,132.43a11.24,11.24,0,0,1-1.65.12,11.76,11.76,0,0,1-1.34-.08l-1.64,8.73a20.79,20.79,0,0,0,3,.22,19.83,19.83,0,0,0,3.29-.27Z"/><path class="cls-1" d="M65.76,109.63a11.17,11.17,0,0,1,2.84.55l3.19-8.29a20.09,20.09,0,0,0-6-1.14Z"/><path class="cls-1" d="M62.43,132.25a11.39,11.39,0,0,1-2.82-1.06l-4.67,7.55A20.13,20.13,0,0,0,60.78,141Z"/><path class="cls-1" d="M61.58,110.14a11.09,11.09,0,0,1,2.9-.52v-8.88a20.53,20.53,0,0,0-6.11,1.11Z"/><path class="cls-1" d="M55.52,127.49a11.44,11.44,0,0,1-1.35-2.71l-8.53,2.45a20.2,20.2,0,0,0,2.81,5.63Z"/><path class="cls-1" d="M57.92,112.08a11.36,11.36,0,0,1,2.46-1.49l-3.21-8.28a20.16,20.16,0,0,0-5.23,3.21Z"/><path class="cls-1" d="M102.45,109.27h-.11L97.06,125.5h10.72Zm7.55,23H94.72L92,141H83L98.22,99.22H107L122,141h-9.17Z"/></svg>