<?xml version="1.0" encoding="utf-8"?>
<!-- Generator: Adobe Illustrator 22.1.0, SVG Export Plug-In . SVG Version: 6.00 Build 0)  -->
<svg version="1.1" id="Layer_1" xmlns="http://www.w3.org/2000/svg" xmlns:xlink="http://www.w3.org/1999/xlink" x="0px" y="0px"
	 viewBox="0 0 48 8" style="enable-background:new 0 0 48 8;" xml:space="preserve">
<style type="text/css">
	.st0{fill:url(#SVGID_1_);}
	.st1{fill:url(#SVGID_2_);}
</style>
<title>Artboard 1</title>
<linearGradient id="SVGID_1_" gradientUnits="userSpaceOnUse" x1="11.5353" y1="-3.1965" x2="36.4647" y2="11.1965">
	<stop  offset="0" style="stop-color:#9E1A25"/>
	<stop  offset="1" style="stop-color:#16496B"/>
</linearGradient>
<path class="st0" d="M12,0c2.2,0,4,1.8,4,4s-1.8,4-4,4S8,6.2,8,4S9.8,0,12,0z M36,0c2.2,0,4,1.8,4,4s-1.8,4-4,4s-4-1.8-4-4
	S33.8,0,36,0z"/>
<linearGradient id="SVGID_2_" gradientUnits="userSpaceOnUse" x1="5.5353" y1="-6.6606" x2="42.4647" y2="14.6606">
	<stop  offset="0" style="stop-color:#C5202E"/>
	<stop  offset="1" style="stop-color:#16496B"/>
</linearGradient>
<path class="st1" d="M44,8H4C1.8,8,0,6.2,0,4v0c0-2.2,1.8-4,4-4h40c2.2,0,4,1.8,4,4v0C48,6.2,46.2,8,44,8z"/>
</svg>
