<svg id="Universität_Zürich" data-name="Universität Zürich" xmlns="http://www.w3.org/2000/svg" viewBox="0 0 307.56 48.18"><defs><style>.cls-1{fill:none;stroke:#000;stroke-width:0.3px;}.cls-2{fill:#231f20;}</style></defs><title>Zeichenfläche 4</title><g id="Ebene_2" data-name="Ebene 2"><path d="M55,40.2V38.4l4.37-7.14c.26-.41.51-.77.8-1.15-.44,0-1,0-2.22,0H55.1V28H63v1.87l-4.64,7.32c-.18.29-.34.56-.55.85.3,0,1.13,0,2.63,0H63V40.2Zm15.52,0a9.7,9.7,0,0,1,.11-1.58l0,0a3.24,3.24,0,0,1-3,1.8c-2,0-2.67-1.3-2.67-2.86V31.25h2.29V37c0,.93.25,1.49,1.12,1.49,1.17,0,2.07-1.33,2.07-2.9V31.25h2.31v9Zm9.45-6.88c-1.66-.34-2.49.74-2.49,3.22V40.2H75.13v-9h2.18a11.57,11.57,0,0,1-.16,1.8h0a2.7,2.7,0,0,1,2.84-2Zm2.92-3.23a1.4,1.4,0,1,1,1.44-1.4A1.41,1.41,0,0,1,82.85,30.09ZM81.7,40.2v-9H84v9Zm8,.16c-2.49,0-4-1.29-4-4.34,0-2.79,1.46-4.94,4.63-4.94a6.6,6.6,0,0,1,1.84.26l-.23,2A4.77,4.77,0,0,0,90.31,33c-1.46,0-2.2,1.08-2.2,2.78,0,1.53.59,2.57,2.12,2.57A4.06,4.06,0,0,0,92,38l.18,2A7.26,7.26,0,0,1,89.73,40.36Zm9.75-.16V34.47c0-.94-.26-1.49-1.1-1.49-1.17,0-2.09,1.33-2.09,2.9V40.2H94V27.05h2.31v3.84a8.57,8.57,0,0,1-.17,1.82h0a3.16,3.16,0,0,1,2.94-1.67c2,0,2.67,1.3,2.67,2.86V40.2Zm5.85-8.48c-1.46,0-1.81-.79-1.81-1.71V27h1.06V30c0,.54.17.88.82.88s.83-.26.83-.94V27h1v2.79A1.72,1.72,0,0,1,105.33,31.72Zm2.83-.09V30.8l1.48-2.47a2.71,2.71,0,0,1,.24-.35h-1.67V27h3v.86l-1.56,2.5a1.92,1.92,0,0,1-.17.26h1.76v1Zm6.76,0V29.72h-1.68v1.91h-1.06V27h1.06V28.8h1.68V27H116v4.59ZM60.11,21.36c-3.84,0-4.7-2.09-4.7-4.42V9h2.34v7.8c0,1.53.5,2.61,2.52,2.61,1.8,0,2.56-.76,2.56-2.83V9h2.32v7.44C65.15,19.77,63.32,21.36,60.11,21.36Zm13-.2V15.43c0-.94-.26-1.5-1.1-1.5-1.18,0-2.09,1.34-2.09,2.9v4.33H67.66v-9h2.18a9.92,9.92,0,0,1-.13,1.59l0,0a3.27,3.27,0,0,1,3-1.81c2,0,2.66,1.3,2.66,2.87v6.29ZM79.1,11.05a1.4,1.4,0,1,1,1.44-1.41A1.43,1.43,0,0,1,79.1,11.05ZM78,21.16v-9h2.31v9Zm9.26,0H84.87l-3.32-9h2.53l1.42,4c.21.61.43,1.33.59,2h0a17.07,17.07,0,0,1,.54-1.91l1.44-4.11h2.45ZM98.8,17.05H93.25a2.17,2.17,0,0,0,2.46,2.49A6.45,6.45,0,0,0,98.33,19l.21,1.78a8.83,8.83,0,0,1-3.2.58c-2.85,0-4.44-1.42-4.44-4.58C90.9,14,92.42,12,95.1,12s3.77,1.79,3.77,4A8.12,8.12,0,0,1,98.8,17.05ZM95,13.7a1.8,1.8,0,0,0-1.75,1.78h3.3A1.52,1.52,0,0,0,95,13.7Zm10.56.58c-1.66-.35-2.49.73-2.49,3.22v3.66h-2.3v-9H103a11.94,11.94,0,0,1-.17,1.81h0a2.73,2.73,0,0,1,2.85-2Zm3.15,7.06a12.29,12.29,0,0,1-1.87-.16l0-1.89a8.17,8.17,0,0,0,1.93.27c.88,0,1.46-.36,1.46-1,0-1.59-3.62-.68-3.62-3.73,0-1.57,1.28-2.87,3.8-2.87a10.38,10.38,0,0,1,1.64.17L112.06,14a6.05,6.05,0,0,0-1.66-.24c-.9,0-1.33.36-1.33.92,0,1.46,3.67.81,3.67,3.71C112.74,20.15,111.19,21.34,108.74,21.34Zm7.12-10.29a1.4,1.4,0,1,1,1.44-1.41A1.43,1.43,0,0,1,115.86,11.05Zm-1.15,10.11v-9H117v9Zm8.12.18c-2,0-2.61-.72-2.61-2.81V14h-1.53V12.2h1.53V9.45l2.31-.62V12.2h2.18V14h-2.18v3.93c0,1.15.27,1.47,1.06,1.47a4.46,4.46,0,0,0,1.12-.14v1.86A8.27,8.27,0,0,1,122.83,21.34Zm8,.65c-1.07,2.79-2,3.64-4.06,3.64a5.87,5.87,0,0,1-1.26-.15l.14-2a4,4,0,0,0,1.23.2c.76,0,1.26-.34,1.73-1.68l.31-.86-3.3-9h2.56l1.2,3.43c.27.77.51,1.66.71,2.47h0c.19-.81.57-2,.86-2.85L132,12.2h2.47Zm11.08-.65c-2.54,0-4.18-1.32-4.18-4.51A4.5,4.5,0,0,1,142.31,12c2.55,0,4.18,1.41,4.18,4.49A4.53,4.53,0,0,1,141.92,21.34Zm.23-7.37c-1,0-2,.79-2,2.63s.66,2.78,2,2.78c1.13,0,2-.92,2-2.74S143.5,14,142.15,14ZM153.76,9.9a3.47,3.47,0,0,0-1.12-.17c-1,0-1.46.53-1.46,1.72v.75h2.09V14h-2.09v7.17h-2.29V14h-1.57V12.2h1.57v-.72c0-2.43,1.12-3.62,3.57-3.62a7.15,7.15,0,0,1,1.46.14Z"/><path d="M6.82,32.72,6.09,33c-.11.06-.15.11-.13.23a.6.6,0,0,0,0,.14s0,.06,0,.07,0,0-.06-.06-.16-.4-.21-.51-.14-.29-.19-.42,0-.07,0-.08,0,0,0,0l.06.09c0,.09.12.09.25.05l.73-.31.48-.21c.5-.21.67-.4.73-.63a.7.7,0,0,0,0-.49.74.74,0,0,0-.39-.39,1.29,1.29,0,0,0-.94.16L6,30.91a7,7,0,0,0-.72.32c-.12.06-.16.11-.14.23a1.12,1.12,0,0,0,.05.13s0,.06,0,.07,0,0-.06-.06S5,31.2,5,31.2s-.12-.25-.18-.39,0-.07,0-.08,0,0,.06.05a.9.9,0,0,0,0,.09c.06.09.13.09.25.05l.73-.31.37-.16a1.41,1.41,0,0,1,1.18-.11,1.12,1.12,0,0,1,.55.6,1.21,1.21,0,0,1,.09.87,1.24,1.24,0,0,1-.78.7ZM6.68,28.9c.28-.07.36-.14.37-.22a.59.59,0,0,0,0-.19s0-.07,0-.07,0,0,.06.07c0,.24.07.39.09.46s0,.2.09.39,0,.08,0,.09,0,0,0-.05a1,1,0,0,0-.05-.16c0-.09-.16-.08-.48,0l-2.17.45c-.07,0-.13,0-.13,0s0-.08.08-.16.51-.74.92-1.38c.2-.31.62-.92.66-1v0l-1.64.4c-.22.05-.28.1-.3.19a.65.65,0,0,0,0,.2c0,.05,0,.06,0,.07s0,0,0-.09S4,27.47,4,27.4s0-.18-.09-.36,0-.08,0-.09S4,27,4,27a.3.3,0,0,0,0,.11c0,.09.14.1.34.06l2.31-.46c.08,0,.12,0,.13,0s0,.09-.06.14c-.16.28-.54.85-.83,1.31s-.68,1-.73,1.08h0ZM4.87,25.55l-.79.06c-.13,0-.19.06-.2.14a.61.61,0,0,0,0,.14s0,.06,0,.06,0,0,0-.09,0-.38,0-.48,0-.32,0-.46,0-.08,0-.08,0,0,0,.06a.43.43,0,0,0,0,.11c0,.1.09.13.22.12s.22,0,.79,0l.66,0A8.1,8.1,0,0,0,6.32,25c.1,0,.16,0,.17-.16a1.2,1.2,0,0,0,0-.19s0-.06,0-.06,0,0,0,.07c0,.24,0,.48,0,.58s0,.32,0,.47,0,.08,0,.08,0,0,0-.06a.39.39,0,0,0,0-.13c0-.08-.09-.1-.2-.1s-.45,0-.81,0Zm-.8-1.67c-.21.07-.26.13-.3.26a.47.47,0,0,0,0,.15s0,0,0,0,0,0,0-.1,0-.41,0-.54a4.4,4.4,0,0,1,0-.46s0-.09,0-.08,0,0,0,.06a.3.3,0,0,0,0,.14.08.08,0,0,0,.08,0,.9.9,0,0,0,.29-.06l1.74-.54h0l-1.82-.86-.13,0a.08.08,0,0,0-.08.05.68.68,0,0,0,0,.14s0,.07,0,.06,0,0,0-.1a3.34,3.34,0,0,1,0-.39c0-.07,0-.24,0-.35s0-.08,0-.08,0,0,0,.06a.35.35,0,0,0,0,.19c0,.05.09.11.32.22s.54.28,1,.52l1.1.57c.21.11.27.13.27.19s-.06.06-.24.12Zm1.06-3.31-.78-.16c-.12,0-.19,0-.24.11a1.27,1.27,0,0,0,0,.14s0,.06-.05.05,0,0,0-.08l.06-.3a2,2,0,0,0,.06-.23c0-.11.18-.84.19-.91a.48.48,0,0,0,0-.16V19h0L4.6,19l.24.07s0,0,0,0,0,0-.06,0a.27.27,0,0,0-.13,0c-.07,0-.13,0-.19.22s-.11.44-.12.51,0,0,0,0l.92.2s0,0,0,0,.11-.5.12-.59,0-.14,0-.18,0-.05,0-.07,0,0,0,0l.26.08L6,19.4s.07,0,.06.05,0,0,0,0H5.86c-.08,0-.14,0-.19.17s-.1.43-.12.52a0,0,0,0,0,0,0l.29.06.57.13c.25,0,.32,0,.4-.38a1,1,0,0,0,0-.35c0-.1-.09-.17-.24-.22s0,0,0-.05,0,0,.07,0l.4.13c.09.05.08.08.05.22s-.11.48-.15.63-.07.27-.09.38a1.58,1.58,0,0,0,0,.21c0,.08,0,.18,0,.25s0,.08,0,.07,0,0,0-.07a.83.83,0,0,0,0-.13c0-.08-.08-.11-.18-.15s-.44-.11-.78-.18Zm.69-2.69c-.53-.21-.63-.25-.74-.28s-.19,0-.26.07a.53.53,0,0,0-.06.13s0,.06,0,.05,0,0,0-.09.17-.4.2-.47l.18-.5a1.08,1.08,0,0,1,.4-.58.62.62,0,0,1,.57-.06,1.07,1.07,0,0,1,.6.77c.51-.16.91-.29,1.21-.41a.7.7,0,0,0,.39-.3.41.41,0,0,0,.05-.09s0,0,0,0,0,0,0,.08l-.13.33a.65.65,0,0,1-.21.35,1.75,1.75,0,0,1-.7.28c-.24.06-.54.13-.61.16a.08.08,0,0,0,0,.05l-.12.3s0,0,0,0l0,0c.33.12.6.23.75.27s.2,0,.25-.06a1.3,1.3,0,0,0,.08-.17,0,0,0,0,1,0,0s0,0,0,.08c-.08.21-.19.46-.21.51s-.1.29-.15.43,0,.07-.06.06,0,0,0-.07a.93.93,0,0,0,0-.13c0-.07-.06-.12-.16-.17s-.41-.18-.73-.31Zm.44-.31a.06.06,0,0,0,.07,0,.86.86,0,0,0,.14-.25.41.41,0,0,0,0-.27.68.68,0,0,0-.45-.41.59.59,0,0,0-.84.29.55.55,0,0,0-.06.19s0,0,0,.05ZM8.46,16c-.05,0-.08,0-.15,0a4,4,0,0,1-.41-.26c-.05,0-.08-.06-.07-.08s0,0,.08,0l.18.06a.51.51,0,0,0,.59-.28.44.44,0,0,0-.12-.64c-.16-.1-.34-.13-.7,0l-.2.08a1.12,1.12,0,0,1-1,.05.76.76,0,0,1-.19-1.1,1.59,1.59,0,0,1,.3-.4s0,0,.07,0l.38.24c.07,0,.09.06.08.09s0,0-.08,0a.42.42,0,0,0-.26,0,.46.46,0,0,0-.36.26.4.4,0,0,0,.11.58c.15.08.31.07.67-.08l.12-.05a1.12,1.12,0,0,1,1.13-.06A.73.73,0,0,1,9,15a1.12,1.12,0,0,1-.16.6A1.14,1.14,0,0,1,8.46,16Zm-.09-3.09-.64-.46c-.11-.07-.18-.07-.25,0l-.09.1s0,.05-.06,0,0,0,0-.09.23-.3.29-.39.18-.26.26-.37,0-.06.07-.05,0,0,0,.07a.33.33,0,0,0-.06.1c0,.09,0,.15.09.24l.64.47.53.39c.29.21.53.39.67.47s.16.07.24,0l.12-.15s0,0,.06,0,0,0,0,.08l-.36.46-.26.39s-.06.06-.08,0,0,0,0-.07A.28.28,0,0,0,9.64,14c0-.07,0-.13-.09-.2a7.52,7.52,0,0,0-.65-.5Zm.92-2.51-.37.41c-.14.16-.19.24-.17.34l.05.13a.06.06,0,0,1,0,.07s0,0-.07,0S8.5,11,8.48,11s0-.07,0-.08.08,0,.15-.09l.27-.26,1-1.08a1.2,1.2,0,0,0,.17-.2l0-.08s0,0,.08,0,.24.24.31.31,0,0,0,.06,0,0-.08,0l0,0c-.07-.06-.22-.06-.45.18l-.33.34,1.11,1a6.28,6.28,0,0,0,.6.53c.08.07.15.11.24,0a1.79,1.79,0,0,0,.14-.13s0,0,.07,0,0,0,0,.07a5.69,5.69,0,0,1-.41.42l-.31.35s-.06,0-.08,0,0,0,0-.06a.59.59,0,0,0,.08-.11c0-.07,0-.14-.07-.22s-.32-.32-.57-.56ZM12.13,10s0,0,0,0l.17.55a.83.83,0,0,0,.1.21c0,.05.1.07.19,0l0,0s0,0,.07,0,0,0,0,.07-.23.16-.32.24-.18.16-.34.28-.06,0-.07,0,0,0,0-.06l.09-.07c.12-.13.1-.27,0-.47l-.73-2.42c0-.11,0-.16,0-.18s.06,0,.14,0,1.62.92,2.16,1.22c.32.17.44.14.51.11l.14-.09s0,0,.05,0,0,0-.11.13-.32.26-.56.44c-.05,0-.09.07-.1,0s0,0,0-.05a.07.07,0,0,0,0-.09l-.73-.44s0,0,0,0Zm.48-.63s0,0,0,0l-.83-.52s0,0,0,0,0,0,0,0l.31.93s0,0,0,0Zm2,0c-.07,0-.09,0-.13-.07s-.21-.38-.23-.43,0-.09,0-.11.05,0,.06,0a.83.83,0,0,0,.13.14.5.5,0,0,0,.65.05.45.45,0,0,0,.21-.62C15.15,8.14,15,8,14.62,8l-.21,0c-.52-.07-.78-.22-.93-.48a.75.75,0,0,1,.38-1,1.68,1.68,0,0,1,.46-.2s.06,0,.07,0,.07.14.22.39c0,.08,0,.11,0,.12s-.05,0-.07,0a.43.43,0,0,0-.21-.16.49.49,0,0,0-.44,0,.4.4,0,0,0-.19.56c.09.15.23.22.62.26h.13c.56.07.83.21,1,.51a.76.76,0,0,1,0,.74,1.14,1.14,0,0,1-.43.44A1.32,1.32,0,0,1,14.56,9.3ZM34.09,6.58l-.49-.27c-.19-.1-.28-.13-.37-.09l-.12.08s0,0-.06,0,0,0,0-.07.27-.3.29-.33.06,0,.07,0,0,.07.12.12l.31.21L35.12,7a1.45,1.45,0,0,0,.23.11l.1,0s0,0,0,.08l-.23.37s0,.05-.06,0,0,0,0-.09l0,0c0-.09,0-.23-.28-.4l-.4-.25-.77,1.32a7.67,7.67,0,0,0-.39.7c0,.1-.07.18,0,.25l.16.11s0,0,0,.06,0,0-.08,0L33,9c-.07,0-.28-.16-.41-.23s-.06-.05,0-.07,0,0,.07,0l.13.06c.07,0,.13,0,.19-.13a6.53,6.53,0,0,0,.42-.67Zm1.68,2.13c.38-.43.44-.51.52-.61s.09-.16,0-.26l-.1-.11s0,0,0-.06,0,0,.09,0,.32.29.4.36l.36.29s.06.06,0,.08,0,0-.07,0l-.09-.07c-.09,0-.15,0-.24.08s-.15.16-.52.59l-.34.4c-.36.41-.42.66-.38.89a.74.74,0,0,0,.25.42.73.73,0,0,0,.53.18c.29,0,.51-.27.77-.56l.3-.36.51-.6a.19.19,0,0,0,0-.27L37.7,9s0,0,0-.07,0,0,.08,0l.32.29.33.27s.05.06,0,.08,0,0-.08,0a.28.28,0,0,0-.09-.06c-.09,0-.15,0-.24.07l-.52.6-.26.3a1.43,1.43,0,0,1-1,.62,1.08,1.08,0,0,1-.76-.3,1.17,1.17,0,0,1-.46-.74,1.22,1.22,0,0,1,.39-1Zm2.84,2.67.61-.5c.1-.09.12-.15.07-.26l-.08-.12s0-.06,0-.07,0,0,.08,0l.31.41.34.4a1.17,1.17,0,0,1,.31.64.68.68,0,0,1-.24.52,1.07,1.07,0,0,1-1,.14c-.12.52-.22.93-.26,1.25a.78.78,0,0,0,.06.48.35.35,0,0,0,.06.09,0,0,0,0,1,0,.06s0,0-.07,0l-.22-.27a.83.83,0,0,1-.2-.36,1.92,1.92,0,0,1,.11-.74c.07-.25.16-.54.17-.62s0,0,0-.06l-.2-.26s0,0,0,0l0,0-.62.52c-.07.08-.12.15-.06.24l.1.16s0,0,0,0,0,0-.07,0-.3-.39-.34-.43-.2-.23-.29-.35,0-.06,0-.08,0,0,.06,0l.1.09s.13,0,.22,0a6.54,6.54,0,0,0,.64-.49Zm0,.53s0,0,0,.07a1.2,1.2,0,0,0,.15.24c.1.12.14.15.22.17a.67.67,0,0,0,.58-.18.59.59,0,0,0,.17-.87.52.52,0,0,0-.14-.15s0,0-.06,0Zm1.93,2.2.68-.41c.11-.07.14-.13.12-.21a.45.45,0,0,0-.06-.12s0-.06,0-.08,0,0,.07.07.19.33.24.42l.24.39s0,.07,0,.08,0,0-.07,0a.47.47,0,0,0-.06-.09c-.07-.08-.14-.07-.26,0l-.68.39-.57.34c-.31.18-.57.33-.7.43s-.12.11-.08.22l.08.17s0,.06,0,.07,0,0-.07-.05l-.29-.5c0-.08-.17-.28-.25-.4s0-.08,0-.09,0,0,0,0a.53.53,0,0,0,.09.11c0,.05.11,0,.21,0s.4-.22.71-.4Zm-.28,2.38a1.42,1.42,0,0,1,.85-.85,1.37,1.37,0,0,1,1.11,0,1.6,1.6,0,0,1,.82.94,2.76,2.76,0,0,1,.17.51c0,.14.05.26.08.37s0,.06,0,.07l-.19.06-.38.14s-.08,0-.1,0,0-.05.07-.07a.57.57,0,0,0,.26-.27,1.15,1.15,0,0,0-.08-.79,1,1,0,0,0-.48-.56,1.28,1.28,0,0,0-1,.06,1.25,1.25,0,0,0-.78,1.59c.13.31.24.48.46.56a.65.65,0,0,0,.27,0c.06,0,.08,0,.09,0s0,.05,0,.06a4.19,4.19,0,0,1-.49.11.13.13,0,0,1-.14,0,2.13,2.13,0,0,1-.33-.59A1.86,1.86,0,0,1,40.31,16.49Zm2.47,2.8c.55-.12.65-.14.77-.18s.17-.07.17-.2a.93.93,0,0,0,0-.14c0-.05,0-.07,0-.07s0,0,.05.07l.06.29a1.92,1.92,0,0,0,.05.24c0,.11.19.84.2.91l.06.15s0,0,0,.06l0,0a.87.87,0,0,0-.24,0l-.25,0s0,0,0,0,0,0,0-.05a.28.28,0,0,0,.12-.05c.06,0,.1-.09.08-.27s-.08-.45-.1-.52,0,0,0,0l-.93.21s0,0,0,0,.11.5.14.58a.27.27,0,0,0,.09.17s.06,0,.06,0,0,0,0,0l-.27,0-.25,0s-.07,0-.08,0,0,0,0,0a.55.55,0,0,0,.13,0c.06,0,.11-.09.09-.23s-.08-.43-.1-.52,0,0,0,0l-.28.07-.57.13c-.25.06-.29.13-.21.5a1.06,1.06,0,0,0,.12.34.33.33,0,0,0,.31.1S42,21,42,21s0,0-.06,0a1.9,1.9,0,0,1-.41,0c-.1,0-.11,0-.14-.17s-.1-.48-.13-.63-.05-.28-.08-.39a.71.71,0,0,0-.05-.2,1.53,1.53,0,0,0-.06-.25c0-.05,0-.08,0-.09s0,0,0,.06,0,.09.05.13.11.06.22.06.45-.09.78-.16Zm-.69,3.2c-.29,0-.39.07-.41.14a.71.71,0,0,0,0,.2s0,.06,0,.06,0,0,0-.08c0-.25,0-.4,0-.47s0-.21,0-.4,0-.08,0-.08,0,0,0,.06a1.1,1.1,0,0,0,0,.16c0,.1.14.11.47.1l2.21,0c.08,0,.13,0,.13,0s-.05.08-.11.14-.64.64-1.16,1.21c-.24.26-.77.78-.82.85v0L44,24.3c.23,0,.3-.05.34-.14a.69.69,0,0,0,0-.2s0-.06,0-.06,0,0,0,.1,0,.37,0,.45,0,.18,0,.37,0,.08,0,.08,0,0,0-.06a.53.53,0,0,0,0-.12c0-.1-.12-.13-.32-.12l-2.36,0c-.09,0-.12,0-.12,0a.2.2,0,0,1,.08-.13c.21-.25.68-.74,1.06-1.15s.84-.85.91-.92h0Zm-.5,3.45c0-.06,0-.07.13-.06l.48.09c.06,0,.1,0,.09.06s0,0-.06,0H42a.53.53,0,0,0-.45.48.46.46,0,0,0,.35.56.76.76,0,0,0,.65-.28l.15-.15a1.1,1.1,0,0,1,1-.42c.41.05.65.44.58.95a2.17,2.17,0,0,1-.14.49s0,0-.05,0a4.16,4.16,0,0,0-.44-.08c-.08,0-.11,0-.11,0s0,0,.08,0a.5.5,0,0,0,.25-.06.47.47,0,0,0,.24-.38.4.4,0,0,0-.31-.5c-.17,0-.32.05-.59.32l-.1.09c-.4.4-.68.52-1,.47a.73.73,0,0,1-.59-.44,1.08,1.08,0,0,1-.07-.61A1.19,1.19,0,0,1,41.59,25.94Zm1.11,3.17.77.21c.12,0,.19,0,.24-.07s0-.08,0-.12,0-.06.05-.05,0,0,0,.1l-.14.46c0,.09-.07.31-.11.44s0,.08-.05.07,0,0,0-.07,0-.06,0-.11,0-.15-.17-.19l-.76-.22L42,29.38c-.35-.1-.64-.18-.8-.21s-.17,0-.21.09a1.34,1.34,0,0,0-.07.18s0,.06,0,0,0,0,0-.08l.17-.55a4.56,4.56,0,0,1,.12-.46s0-.07,0-.06,0,0,0,.06a.93.93,0,0,0,0,.14c0,.07,0,.11.15.15s.43.14.78.24Zm-2.2,1.32c0-.05.07-.05.15,0s.39.18.44.21.08.05.07.08,0,0-.07,0l-.19,0a.52.52,0,0,0-.56.34.46.46,0,0,0,.19.63.73.73,0,0,0,.7-.1l.19-.1a1.11,1.11,0,0,1,1-.16.76.76,0,0,1,.31,1.07,2,2,0,0,1-.26.44s0,0-.06,0-.14-.08-.41-.2c-.07,0-.09,0-.08-.08s0,0,.07,0a.5.5,0,0,0,.6-.3.39.39,0,0,0-.18-.56c-.16-.07-.31,0-.65.15l-.11.06a1.14,1.14,0,0,1-1.12.19.76.76,0,0,1-.46-.58,1.13,1.13,0,0,1,.1-.61A1.19,1.19,0,0,1,40.5,30.43ZM13.79,41.77l-.11,0c-.06,0-.07,0-.09-.18l-.19-1.25s0-.08-.07-.08-.05,0-.07.06l-.55,1.11-.54-1.1c0-.05-.05-.07-.08-.07s-.05,0-.06.07l-.21,1.32c0,.07,0,.14-.07.14h-.06s0,0,0,0,0,0,.06,0h.42s.07,0,.07,0,0,0,0,0h-.07s-.05,0-.05,0a.28.28,0,0,1,0-.09l.09-.75c.07.15.18.36.19.4l.24.46c0,.06.06.1.1.11s0,0,.1-.13l.43-.86.11.83v.07a0,0,0,0,0,0,0s0,0,.08.05h.43s.07,0,.07,0S13.81,41.77,13.79,41.77Zm1.71-1.25a1.13,1.13,0,0,0-.85-.23H14s-.06,0-.06,0,0,0,.05,0h.08c.06,0,.07,0,.08.09v.78c0,.19,0,.35,0,.43s0,.09-.05.1H14a0,0,0,0,0,0,0s0,0,.06,0h.26l.21,0h.25a1,1,0,0,0,.72-.25.79.79,0,0,0,.23-.57A.72.72,0,0,0,15.5,40.52Zm-.13.59a.58.58,0,0,1-.17.48.62.62,0,0,1-.45.14.33.33,0,0,1-.26-.08.35.35,0,0,1,0-.13s0-.19,0-.41v-.25c0-.16,0-.33,0-.4s0,0,0,0l.12,0a.87.87,0,0,1,.58.19A.65.65,0,0,1,15.37,41.11Zm2,.32s0,0,0,.06a.56.56,0,0,1-.07.13c-.08.08-.17.1-.36.1a.67.67,0,0,1-.63-.7.63.63,0,0,1,.18-.51.55.55,0,0,1,.39-.11.6.6,0,0,1,.39.11.33.33,0,0,1,.08.18s0,.06,0,.06,0,0,0-.07a1.86,1.86,0,0,1,0-.22.8.8,0,0,1,0-.11,0,0,0,0,0-.05,0l-.21,0-.31,0a1,1,0,0,0-.67.21.77.77,0,0,0-.25.57.73.73,0,0,0,.27.61,1.05,1.05,0,0,0,.73.23,1.09,1.09,0,0,0,.38-.05.08.08,0,0,0,.07-.07,2,2,0,0,0,0-.27A.05.05,0,0,0,17.35,41.43Zm1.68,0s0,0,0,.06a.56.56,0,0,1-.07.13c-.08.08-.17.1-.36.1a.68.68,0,0,1-.64-.7.64.64,0,0,1,.19-.51.54.54,0,0,1,.39-.11.6.6,0,0,1,.39.11.26.26,0,0,1,.07.18s0,.06,0,.06.05,0,.05-.07a1.86,1.86,0,0,1,0-.22.25.25,0,0,1,0-.11,0,0,0,0,0-.05,0l-.21,0-.31,0a1,1,0,0,0-.67.21.77.77,0,0,0-.25.57.75.75,0,0,0,.26.61,1.08,1.08,0,0,0,.73.23,1.12,1.12,0,0,0,.39-.05.07.07,0,0,0,.06-.07,1.21,1.21,0,0,0,.05-.27A.05.05,0,0,0,19,41.43Zm1.68,0s0,0-.05.06a.3.3,0,0,1-.06.13.46.46,0,0,1-.36.1.68.68,0,0,1-.64-.7.64.64,0,0,1,.19-.51.52.52,0,0,1,.38-.11.64.64,0,0,1,.4.11.26.26,0,0,1,.07.18s0,.06,0,.06,0,0,.05-.07v-.22a.66.66,0,0,0,0-.11,0,0,0,0,0,0,0l-.21,0-.31,0a1,1,0,0,0-.68.21.81.81,0,0,0-.25.57.76.76,0,0,0,.27.61,1.07,1.07,0,0,0,.73.23,1.12,1.12,0,0,0,.39-.05.09.09,0,0,0,.06-.07,2.33,2.33,0,0,0,.05-.27A.05.05,0,0,0,20.71,41.43Zm8.09.34h-.07a.19.19,0,0,1-.11-.07c-.05-.06-.38-.58-.46-.71l.34-.46c.07-.09.11-.14.14-.15h.08a.05.05,0,0,0,.05,0s0,0-.06,0h-.42s-.06,0-.07,0a.05.05,0,0,0,.05,0h.06s0,0,0,0a.12.12,0,0,1,0,.07l-.27.4-.24-.42a.08.08,0,0,1,0,0,0,0,0,0,1,0,0h.05s.05,0,.05,0,0,0-.06,0h-.56s-.05,0-.06,0a0,0,0,0,0,0,0h.09a.4.4,0,0,1,.16.14l.36.57-.4.54c-.08.1-.11.13-.16.14h-.07a0,0,0,0,0-.05,0s0,0,.05,0h.45s.06,0,.06,0,0,0,0,0h0l0,0h0a.17.17,0,0,1,0-.07l.29-.45.32.52h0a.07.07,0,0,0,0,.05s0,0,.09,0h.45a.06.06,0,0,0,.06,0S28.82,41.77,28.8,41.77Zm1.78,0h-.07a.16.16,0,0,1-.11-.07c0-.06-.38-.58-.46-.71l.34-.46c.06-.09.1-.14.14-.15h.07s.05,0,.05,0,0,0-.05,0h-.43s-.06,0-.06,0a0,0,0,0,0,0,0h.09l0,.07-.27.4-.25-.42,0,0h.07s.05,0,.05,0,0,0-.06,0h-.56s-.05,0-.06,0a0,0,0,0,0,0,0h.08a.31.31,0,0,1,.16.14l.37.57-.41.54c-.07.1-.1.13-.15.14H29a0,0,0,0,0,0,0s0,0,.05,0h.45s.06,0,.06,0,0,0,0,0h-.05l0,0h0l0-.07.3-.45.31.52h0a.05.05,0,0,0,0,.05s0,0,.09,0h.45s.05,0,.05,0A0,0,0,0,0,30.58,41.77Zm1.78,0h-.08a.17.17,0,0,1-.1-.07c0-.06-.38-.58-.46-.71l.34-.46c.06-.09.1-.14.14-.15h.07s0,0,0,0,0,0,0,0h-.43s-.06,0-.06,0a0,0,0,0,0,0,0h.09l0,.07-.27.4-.25-.42,0,0s0,0,0,0h0s.05,0,.05,0,0,0-.06,0h-.55s-.06,0-.06,0a0,0,0,0,0,0,0h.08a.31.31,0,0,1,.16.14l.36.57-.4.54c-.07.1-.1.13-.16.14H30.8a0,0,0,0,0,0,0,0,0,0,0,0,0,0h.46a.05.05,0,0,0,.06,0,.1.1,0,0,0-.05,0h0s0,0,0,0h0a.17.17,0,0,1,0-.07l.3-.45.31.52h0a.07.07,0,0,0,0,.05s0,0,.09,0h.45s.06,0,.06,0A0,0,0,0,0,32.36,41.77Zm1.09,0h-.1c-.06,0-.06,0-.07-.08s0-.25,0-.44v-.79c0-.07,0-.08.07-.09h.06s.05,0,.05,0,0,0-.06,0h-.55s-.06,0-.07,0,0,0,0,0h.07s.06,0,.06.09a3.17,3.17,0,0,1,0,.43v.36c0,.19,0,.35,0,.43s0,.08-.05.09h-.07a0,0,0,0,0,0,0s0,0,0,0h.62s0,0,0,0A0,0,0,0,0,33.45,41.77Zm1.27,0h-.1c-.06,0-.06,0-.07-.08s0-.25,0-.44v-.36a3.17,3.17,0,0,1,0-.43c0-.07,0-.08.06-.09h.06s0,0,0,0,0,0-.06,0h-.55s-.06,0-.07,0,0,0,.05,0h.07s.06,0,.06.09a3.17,3.17,0,0,1,0,.43v.36c0,.19,0,.35,0,.43s0,.08,0,.09H34.1a0,0,0,0,0-.05,0s0,0,.05,0h.62s.05,0,.05,0A0,0,0,0,0,34.72,41.77Zm1.28,0h-.11s-.06,0-.07-.08,0-.25,0-.44v-.36a3.17,3.17,0,0,1,0-.43c0-.07,0-.08.06-.09h.06s.05,0,.05,0,0,0-.06,0h-.55s-.06,0-.07,0,0,0,0,0h.08s.05,0,.05.09a3.17,3.17,0,0,1,0,.43v.36c0,.19,0,.35,0,.43s0,.08-.05.09h-.07a0,0,0,0,0,0,0s0,0,.06,0H36a.06.06,0,0,0,.06,0S36,41.77,36,41.77ZM23.41,32V30.79a.41.41,0,1,0-.81,0V32Zm2.17,0V30.79a.4.4,0,1,0-.8,0V32ZM24.09,8.08a.42.42,0,0,0-.42.42.42.42,0,0,0,.42.42.42.42,0,0,0,.42-.42A.41.41,0,0,0,24.09,8.08Zm-.21,11.77h.42v-.91h-.42v.91Zm-4,23.09a.43.43,0,1,0,.42.42A.42.42,0,0,0,19.84,42.94Zm-.26-23.07V18.52a.64.64,0,0,0-.39-.63.65.65,0,0,0-.38.63v1.35Zm0-4.32v-.87a.65.65,0,0,0-.39-.64.66.66,0,0,0-.38.64v.87Zm-.18,9V23.41a.21.21,0,0,0-.21-.21.21.21,0,0,0-.21.21v1.13Zm0,3.39V26.8a.21.21,0,0,0-.21-.21.22.22,0,0,0-.21.21v1.13Zm.13,3.79v-1a.34.34,0,0,0-.34-.34.34.34,0,0,0-.34.34v1ZM19.19,3.41a.42.42,0,1,0,.43.42A.42.42,0,0,0,19.19,3.41ZM29.38,19.87V18.52a.67.67,0,0,0-.39-.63.64.64,0,0,0-.39.63v1.35Zm0-4.32v-.87A.68.68,0,0,0,29,14a.65.65,0,0,0-.39.64v.87Zm-.19,9V23.41A.21.21,0,0,0,29,23.2a.2.2,0,0,0-.2.21v1.13Zm0,3.39V26.8a.21.21,0,1,0-.41,0v1.13Zm.13,3.79v-1a.34.34,0,1,0-.68,0v1ZM29,3.41a.42.42,0,1,0,.42.42A.42.42,0,0,0,29,3.41ZM0,24.09A24.1,24.1,0,0,1,24.09,0h0A24.09,24.09,0,0,1,48.18,24.09h0A24.09,24.09,0,0,1,24.09,48.18h0A24.1,24.1,0,0,1,0,24.09ZM7.48,7.48A23.37,23.37,0,0,0,.6,24.09h0A23.41,23.41,0,0,0,7.48,40.71h0a23.41,23.41,0,0,0,16.61,6.88h0a23.45,23.45,0,0,0,16.62-6.88h0a23.45,23.45,0,0,0,6.88-16.62h0A23.41,23.41,0,0,0,40.71,7.48h0A23.42,23.42,0,0,0,24.09.59h0A23.38,23.38,0,0,0,7.48,7.48Zm17,31.75h.19v-.34h-.46v.75h.27ZM24.09,1.57A22.52,22.52,0,1,0,46.61,24.08,22.52,22.52,0,0,0,24.09,1.57ZM21.6,43.19h-1v.34h1v2.53A22,22,0,0,1,8.45,39.72,20.73,20.73,0,0,1,7,38.17a1.15,1.15,0,0,1,2.29.19v1.11H10.8v-1.1a1.16,1.16,0,0,1,2.32,0v1.11h1.46v-1.1a1.16,1.16,0,0,1,2.32,0v1.11h1.46v-1.1a1.16,1.16,0,0,1,2.32,0v1.11h.92Zm4.19,2.94c-.56,0-1.13.07-1.7.07s-1.14,0-1.7-.06L22,43.53h.48l-.41-1c-.13-.33,0-.54.19-.63a.4.4,0,0,1,.52.32L23,43h.31v.51h0v.1h-.73V44h1.07v-.44H24.9V43h.31l.22-.79a.4.4,0,0,1,.52-.32c.22.09.32.3.19.63,0,.09-.09.24-.16.4l-.28.69h-.78V44h1l.19-.44h.1Zm-2.4-7.45h1.4c.06.13.19.46.27.65s.13.27,0,.41a.3.3,0,0,1-.34.14h0a.68.68,0,0,1-.65.46.69.69,0,0,1-.65-.46h0a.3.3,0,0,1-.34-.14c-.09-.14,0-.28,0-.41Zm-.21-1.45.45.64.46-.87.45.87.45-.64-.18,1.11H23.36Zm.54,3.15a.75.75,0,0,0,.71.5.77.77,0,0,0,.74-.58,1.09,1.09,0,0,1,.66.26,1.15,1.15,0,0,1,.32.63H22a1.17,1.17,0,0,1,.33-.63A1.46,1.46,0,0,1,23.72,40.38Zm1.69,1.15a1.35,1.35,0,0,1-1.32,1,1.37,1.37,0,0,1-1.32-1Zm14.32-1.81a22,22,0,0,1-13.14,6.34V43.53h.93a27.71,27.71,0,0,0,3-.15,22.71,22.71,0,0,0-3-.19h-.93V39.47H27.7v-1.1a1.16,1.16,0,0,1,2.32,0v1.11h1.46v-1.1a1.16,1.16,0,0,1,2.32,0v1.11h1.46v-1.1a1.16,1.16,0,0,1,2.32,0v1.11H39v-1.1A1.16,1.16,0,0,1,40.2,37.2a1.15,1.15,0,0,1,1.09.78A21.5,21.5,0,0,1,39.73,39.72Zm1.81-2a1.6,1.6,0,0,0-3,.69v.52h-.58v-.52a1.6,1.6,0,1,0-3.2,0v.52h-.58v-.52a1.6,1.6,0,0,0-3.2,0v.52h-.58v-.52a1.6,1.6,0,0,0-3.2,0v.52h-.6a2.49,2.49,0,0,0-4.92,0H21v-.52a1.6,1.6,0,0,0-3.2,0v.52h-.58v-.52a1.6,1.6,0,1,0-3.2,0v.52h-.58v-.52a1.6,1.6,0,0,0-3.2,0v.52H9.67v-.52a1.6,1.6,0,0,0-3-.7c-.39-.5-.76-1-1.1-1.55H42.66C42.31,36.64,41.93,37.17,41.54,37.67ZM43,35.51H5.16c-.12-.18-.22-.36-.33-.55H43.35ZM20.28,7.09v.18a1.13,1.13,0,0,1,0,.15A2.13,2.13,0,0,1,20,7.8c0,.07-.11.18-.18.33a2,2,0,0,0-.25-.31l-.23-.25a.66.66,0,0,1-.16-.3h0a.64.64,0,0,1-.17.3c-.07.09-.16.18-.22.25a1.77,1.77,0,0,0-.25.32c-.08-.16-.16-.27-.2-.34a2.7,2.7,0,0,1-.21-.38.77.77,0,0,1,0-.19V7.09Zm-2.17-.34a2.34,2.34,0,0,1,.36-1.17A2.45,2.45,0,0,1,19,5L19.19,5l.16.09a2.27,2.27,0,0,1,.56.54,2.24,2.24,0,0,1,.36,1.17ZM20.35,8a1.65,1.65,0,0,1,.2.36,1.78,1.78,0,0,1,.12.63v2.49H20V9a1.65,1.65,0,0,1,.13-.64A2,2,0,0,1,20.35,8Zm-.67,1v2.48h-1V9a1.4,1.4,0,0,1,.13-.61A1.1,1.1,0,0,1,19.2,8h0a1,1,0,0,1,.34.39A1.46,1.46,0,0,1,19.68,9Zm-1.44-.65a1.57,1.57,0,0,1,.11.64v2.49h-.64V9a1.86,1.86,0,0,1,.12-.63c.07-.15.14-.27.19-.36A2,2,0,0,1,18.24,8.34Zm2.92,3.54v.8H17.22v-.8Zm0,1.14v3.14h-.95V14.75a1.53,1.53,0,0,0-.46-1.14,1.43,1.43,0,0,0-.54-.33h0a1.43,1.43,0,0,0-.54.33,1.53,1.53,0,0,0-.46,1.14v1.41h-1V13Zm-1.29,1.73v1.41H18.52V14.75a1.12,1.12,0,0,1,.67-1.1A1.12,1.12,0,0,1,19.87,14.75Zm1.29,1.75v4h-.87v-2a1.59,1.59,0,0,0-.47-1.15,1.74,1.74,0,0,0-.55-.34l-.08,0-.06,0a1.53,1.53,0,0,0-.56.34,1.59,1.59,0,0,0-.47,1.15v2h-.88v-4Zm-1.21,2v2H18.44v-2a1.23,1.23,0,0,1,.37-.91,1.36,1.36,0,0,1,.38-.24h0a1.36,1.36,0,0,1,.38.24,1.23,1.23,0,0,1,.37.91Zm1.21,2.33v4.75H17.22V20.84Zm0,5.09V29H17.22V25.93Zm0,3.45v5.24H17.22V29.38Zm3.47-12.84V18l-.54-.54-.54.54V16.54Zm-1.06-.41.39-1.7.17-2.83.09,2.83.4,1.7ZM24.09,18,26.6,20.5h-5Zm2.51,2.85v1.92h-5V20.84Zm0,2.51v2.24H25V25a.94.94,0,0,0-1.87,0v.56H21.57V23.35Zm-3.44,2.58v2H25v-2H26.6V29h-5V25.93Zm3.44,3.45v5.24h-5V29.38ZM30.07,7.09v.18a1.13,1.13,0,0,1,0,.15,2.7,2.7,0,0,1-.21.38c0,.07-.11.18-.19.33a2,2,0,0,0-.25-.31l-.23-.25a.66.66,0,0,1-.16-.3h0a.66.66,0,0,1-.16.3l-.23.25a1.77,1.77,0,0,0-.25.32c-.08-.16-.15-.27-.19-.34a2.13,2.13,0,0,1-.22-.38.88.88,0,0,1,0-.19V7.09ZM27.9,6.75a2.34,2.34,0,0,1,.36-1.17A2.45,2.45,0,0,1,28.82,5L29,5l.17.09a2.45,2.45,0,0,1,.55.54,2.24,2.24,0,0,1,.36,1.17ZM30.15,8a2.29,2.29,0,0,1,.19.36,1.58,1.58,0,0,1,.12.63v2.49h-.64V9A2.14,2.14,0,0,1,30,8.34,1.94,1.94,0,0,1,30.15,8Zm-.68,1v2.48h-1V9a1.43,1.43,0,0,1,.14-.61A1,1,0,0,1,29,8h0a1,1,0,0,1,.34.39A1.2,1.2,0,0,1,29.47,9ZM28,8.34a2,2,0,0,1,.11.64v2.49h-.64V9a2.14,2.14,0,0,1,.12-.63,2.75,2.75,0,0,1,.2-.36A2.87,2.87,0,0,1,28,8.34ZM31,11.88v.8H27v-.8ZM31,13v3.14H30V14.75a1.53,1.53,0,0,0-.46-1.14,1.43,1.43,0,0,0-.54-.33h0a1.43,1.43,0,0,0-.54.33A1.53,1.53,0,0,0,28,14.75v1.41H27V13Zm-1.3,1.73v1.41H28.31V14.75a1.13,1.13,0,0,1,.68-1.1A1.12,1.12,0,0,1,29.66,14.75ZM31,16.5v4h-.88v-2a1.59,1.59,0,0,0-.47-1.15,1.64,1.64,0,0,0-.55-.34L29,17l-.07,0a1.53,1.53,0,0,0-.56.34,1.59,1.59,0,0,0-.47,1.15v2H27v-4Zm-1.22,2v2H28.23v-2a1.23,1.23,0,0,1,.37-.91,1.28,1.28,0,0,1,.39-.24h0a1.41,1.41,0,0,1,.39.24,1.26,1.26,0,0,1,.36.91ZM31,20.84v4.75H27V20.84Zm0,5.09V29H27V25.93Zm0,3.45v5.24H27V29.38Zm.6,5.24V11.47h-.5V8.92a1.9,1.9,0,0,0-.19-.85,1.34,1.34,0,0,0-.14-.26V6.89a3,3,0,0,0-.3-1.27,2.69,2.69,0,0,0-1.26-1L29,4.52,29,4.5l-.07,0a2.23,2.23,0,0,0-1,.81,2.91,2.91,0,0,0-.45,1.57v.9c0,.09-.13.21-.22.4A2.41,2.41,0,0,0,27.1,9v2.46h-.5v8.45l-1.37-1.37V16.14l-.46-1.56-.68-5.34h0l-.5,5.12-.47,1.78v2.24l-1.35,1.35V11.47h-.5V8.92a1.9,1.9,0,0,0-.19-.85,2.26,2.26,0,0,0-.14-.26V6.89a3,3,0,0,0-.3-1.27,2.66,2.66,0,0,0-1.27-1l-.12-.05-.05,0-.07,0a2.17,2.17,0,0,0-1,.81,2.82,2.82,0,0,0-.45,1.57v.9a2.21,2.21,0,0,0-.22.4,2.18,2.18,0,0,0-.15.81v2.46h-.5V34.62H4.65A22.11,22.11,0,0,1,24.09,2,22.12,22.12,0,0,1,43.54,34.62Z"/></g><line class="cls-1" x1="166.16" y1="8.97" x2="166.16" y2="40.18"/><path class="cls-2" d="M257.66,27.3c-.75,3.69-3.6,3.88-4.17,3.88a2.32,2.32,0,0,1-2.57-2.49,7.72,7.72,0,0,1,.14-1.32l1.77-8.8v0h-2.09l-1.8,9,0,.13a6.18,6.18,0,0,0-.15,1.29,3.79,3.79,0,0,0,4,4.05,5.35,5.35,0,0,0,4.15-1.69l-.27,1.49v0h2.06l2.84-14.29v0H259.4Z"/><path class="cls-2" d="M271.88,18.36a4.9,4.9,0,0,0-3.94,1.82l.32-1.61v0h-2.06l-2.84,14.29v0h2.09l1.74-8.76a4.49,4.49,0,0,1,4.11-3.88,2.36,2.36,0,0,1,2,1l0,0L275,19.73v0A3.89,3.89,0,0,0,271.88,18.36Z"/><polygon class="cls-2" points="237.39 20.36 237.38 20.39 244.5 20.39 235.03 31.1 235.02 31.11 234.66 32.86 244.77 32.86 245.13 31.01 237.57 31.01 247.08 20.29 247.08 20.29 247.44 18.54 237.75 18.54 237.39 20.36"/><polygon class="cls-2" points="275.28 32.83 275.27 32.86 277.36 32.86 280.2 18.54 278.15 18.54 275.28 32.83"/><path class="cls-2" d="M303.56,18.37a5.32,5.32,0,0,0-4.08,1.6l1.61-8H299l-4.19,20.86h2.08l1.74-8.76c.75-3.7,3.63-3.88,4.2-3.88a2.31,2.31,0,0,1,2.54,2.49,7.82,7.82,0,0,1-.14,1.32l-1.77,8.83h2.08l1.83-9a7.21,7.21,0,0,0,.15-1.43A3.79,3.79,0,0,0,303.56,18.37Z"/><path class="cls-2" d="M289.73,18.36c-3.78,0-6.44,2.67-7.29,7.32a12.59,12.59,0,0,0-.2,2.2c0,3.18,1.93,5.15,5,5.15A6.63,6.63,0,0,0,292,31l0,0-1.21-1.47,0,0,0,0a4.39,4.39,0,0,1-3.42,1.64c-1.48,0-3.07-.88-3.07-3.36a11.39,11.39,0,0,1,.23-2.13,8.25,8.25,0,0,1,1.85-4.09,4.23,4.23,0,0,1,3.13-1.38,3,3,0,0,1,2.78,1.57l0,0,1.53-1.29,0,0v0A4.68,4.68,0,0,0,289.73,18.36Z"/><polygon class="cls-2" points="278.93 14.61 281.02 14.61 281.54 12 279.45 12 278.93 14.61"/><polygon class="cls-2" points="258.64 14.61 260.73 14.61 261.25 12 259.17 12 258.64 14.61"/><polygon class="cls-2" points="253.08 14.61 255.17 14.61 255.69 12 253.61 12 253.08 14.61"/><polygon class="cls-2" points="225.21 20.08 220.52 20.08 222.17 12 182.27 12 178.08 32.86 193.99 32.86 195.03 27.65 185.64 27.65 186.21 24.78 195.6 24.78 196.54 20.08 187.15 20.08 187.72 17.21 202.6 17.21 199.46 32.86 205.98 32.86 209.12 17.21 214.6 17.21 211.46 32.86 217.98 32.86 219.59 24.78 224.28 24.78 222.67 32.86 229.19 32.86 233.38 12 226.86 12 225.21 20.08"/></svg>