<svg xmlns="http://www.w3.org/2000/svg" viewBox="0 0 307.56 48.18"><defs><style>.cls-1{fill:none;stroke:#000;stroke-width:0.3px;}.cls-2{fill:#231f20;}</style></defs><title>Zeichenfläche 4</title><g id="Universität_Zürich" data-name="Universität Zürich"><path d="M6.82,32.72,6.09,33c-.11.06-.15.11-.13.23a.6.6,0,0,0,0,.14s0,.06,0,.07,0,0-.06-.06-.16-.4-.21-.51-.14-.29-.19-.41,0-.08,0-.09,0,0,0,0l.06.09c0,.09.12.09.25.05l.73-.31.48-.2c.5-.22.67-.41.73-.64a.7.7,0,0,0,0-.49.74.74,0,0,0-.39-.39,1.25,1.25,0,0,0-.94.17L6,30.91a7,7,0,0,0-.72.32c-.12.06-.16.11-.14.23a1.12,1.12,0,0,0,.05.13s0,.06,0,.07,0,0-.06-.06S5,31.2,5,31.2s-.12-.25-.18-.39,0-.07,0-.08,0,0,.06.05,0,0,0,.09.13.09.25.05l.73-.31.37-.16a1.41,1.41,0,0,1,1.18-.11,1.12,1.12,0,0,1,.55.6,1.21,1.21,0,0,1,.09.87,1.24,1.24,0,0,1-.78.7ZM6.68,28.9c.28-.07.36-.14.37-.22a.61.61,0,0,0,0-.19s0-.07,0-.07,0,0,.06.08c0,.23.07.38.09.45s0,.2.09.39,0,.08,0,.09,0,0,0-.05a1,1,0,0,0-.05-.16c0-.09-.16-.08-.48,0l-2.17.45c-.07,0-.13,0-.13,0s0-.09.08-.16.51-.74.92-1.39c.2-.31.62-.91.66-1v0l-1.64.4c-.22.05-.28.1-.3.2a.62.62,0,0,0,0,.19c0,.05,0,.06,0,.07s0,0,0-.09S4,27.47,4,27.4s0-.18-.09-.36,0-.08,0-.09S4,27,4,27a.3.3,0,0,0,0,.11c0,.09.14.1.34.06l2.31-.46c.08,0,.12,0,.13,0s0,.09-.06.14c-.16.28-.54.85-.83,1.31s-.68,1-.73,1.08h0ZM4.87,25.56l-.79.05c-.13,0-.19.06-.2.14a.61.61,0,0,0,0,.14s0,.06,0,.06,0,0,0-.09,0-.37,0-.48,0-.32,0-.46,0-.08,0-.08,0,0,0,.06a.43.43,0,0,0,0,.11c0,.1.09.13.22.12s.22,0,.79,0l.66,0A8.1,8.1,0,0,0,6.32,25c.1,0,.16,0,.17-.16a1.2,1.2,0,0,0,0-.19s0-.06,0-.06,0,0,0,.07c0,.25,0,.48,0,.58s0,.32,0,.47,0,.08,0,.08,0,0,0-.06a.44.44,0,0,0,0-.13c0-.08-.09-.09-.2-.1s-.45,0-.81,0Zm-.8-1.68c-.21.07-.26.13-.3.26a.47.47,0,0,0,0,.15s0,0,0,0,0,0,0-.1,0-.41,0-.54a4.4,4.4,0,0,1,0-.46s0-.08,0-.08,0,0,0,.06a.3.3,0,0,0,0,.14.08.08,0,0,0,.08,0,.9.9,0,0,0,.29-.06l1.74-.54h0l-1.82-.86-.13,0a.08.08,0,0,0-.08.05.68.68,0,0,0,0,.14s0,.07,0,.07,0,0,0-.11a3.34,3.34,0,0,1,0-.39c0-.07,0-.24,0-.35s0-.08,0-.08,0,0,0,.06a.35.35,0,0,0,0,.19c0,.05.09.11.32.22s.54.29,1,.52l1.1.57c.21.11.27.13.27.19s-.06.06-.24.12Zm1.06-3.31-.78-.16c-.12,0-.19,0-.24.11a1.27,1.27,0,0,0,0,.14s0,.06-.05.06,0,0,0-.09l.06-.3a1.58,1.58,0,0,0,.06-.23c0-.11.18-.84.19-.91a.48.48,0,0,0,0-.16V19h0L4.6,19l.24.07s0,0,0,0,0,0-.06,0a.27.27,0,0,0-.13,0c-.07,0-.13,0-.19.22s-.11.44-.12.51,0,0,0,0l.92.2s0,0,0,0,.11-.5.12-.59,0-.14,0-.18,0-.05,0-.07,0,0,0,0l.26.08L6,19.4s.07,0,.06.05,0,0,0,0l-.13,0c-.08,0-.14,0-.19.18s-.1.42-.12.51a0,0,0,0,0,0,0l.29.06.57.13c.25,0,.32,0,.4-.38a1,1,0,0,0,0-.35c0-.1-.09-.16-.24-.22s0,0,0-.05,0,0,.07,0a2.7,2.7,0,0,1,.4.14c.09,0,.08.07.05.21s-.11.48-.15.63-.07.27-.09.38a1.58,1.58,0,0,0,0,.21c0,.08,0,.18,0,.25s0,.08,0,.07,0,0,0-.06a.93.93,0,0,0,0-.14c0-.08-.08-.11-.18-.15s-.44-.11-.78-.18Zm.69-2.69c-.53-.21-.63-.25-.74-.28s-.19,0-.26.07a.53.53,0,0,0-.06.13s0,.06,0,.05,0,0,0-.09.17-.4.2-.47l.18-.5a1.08,1.08,0,0,1,.4-.58.62.62,0,0,1,.57-.06,1.07,1.07,0,0,1,.6.77c.51-.16.91-.28,1.21-.41a.7.7,0,0,0,.39-.3.41.41,0,0,0,.05-.09s0,0,0,0,0,0,0,.08l-.13.33a.65.65,0,0,1-.21.35,1.75,1.75,0,0,1-.7.28c-.24.06-.54.13-.61.16a.08.08,0,0,0,0,.05l-.12.3s0,0,0,0l0,0c.33.12.6.23.75.27s.2,0,.25-.06a1.3,1.3,0,0,0,.08-.17.05.05,0,0,1,0,0s0,0,0,.09l-.21.5c0,.07-.1.29-.15.43s0,.07-.06.06,0,0,0-.07a.93.93,0,0,0,0-.13c0-.07-.06-.12-.16-.17s-.41-.18-.73-.31Zm.44-.31a0,0,0,0,0,.07,0,.86.86,0,0,0,.14-.25.41.41,0,0,0,0-.27.68.68,0,0,0-.45-.41.59.59,0,0,0-.84.29.55.55,0,0,0-.06.19s0,0,0,.05ZM8.46,16c-.05,0-.08,0-.15,0a4,4,0,0,1-.41-.26c-.05,0-.08-.06-.07-.08s0,0,.08,0l.18.06a.51.51,0,0,0,.59-.28.44.44,0,0,0-.12-.64.71.71,0,0,0-.7,0l-.2.08a1.12,1.12,0,0,1-1,.05.76.76,0,0,1-.19-1.1,1.59,1.59,0,0,1,.3-.4s0,0,.07,0l.38.24c.07,0,.09.06.08.09s0,0-.08,0a.42.42,0,0,0-.26,0,.46.46,0,0,0-.36.26.4.4,0,0,0,.11.58c.15.09.31.08.67-.08l.12-.05a1.12,1.12,0,0,1,1.13-.06A.73.73,0,0,1,9,15a1.1,1.1,0,0,1-.16.6A1.14,1.14,0,0,1,8.46,16Zm-.09-3.09-.64-.46c-.11-.07-.18-.07-.25,0l-.09.1s0,.05-.06,0,0,0,0-.09.23-.3.29-.39.18-.26.26-.37,0-.06.07-.05,0,0,0,.07a.33.33,0,0,0-.06.1c0,.09,0,.15.09.24l.64.47.53.39c.29.21.53.39.67.47s.16.07.24,0,.09-.1.12-.15,0,0,.06,0,0,0,0,.08l-.36.46-.26.39s-.06.06-.08,0,0,0,0-.07A.28.28,0,0,0,9.64,14c0-.07,0-.13-.09-.2a7.52,7.52,0,0,0-.65-.5Zm.92-2.51-.37.41c-.14.16-.19.24-.17.34s0,.11.05.14a0,0,0,0,1,0,.06s0,0-.07,0S8.5,11,8.48,11s0-.07,0-.08.08,0,.15-.09l.27-.26,1-1.08a1.2,1.2,0,0,0,.17-.2l0-.08s0,0,.08,0,.24.24.31.31,0,0,0,.06,0,0-.08,0l0,0c-.07-.06-.22-.06-.45.18l-.33.34,1.11,1c.25.24.47.44.6.54s.15.1.24,0a1.79,1.79,0,0,0,.14-.13s0,0,.07,0,0,0,0,.07a5.69,5.69,0,0,1-.41.42l-.31.35s-.06,0-.08,0,0,0,0-.06a.59.59,0,0,0,.08-.11c0-.07,0-.14-.07-.22s-.32-.32-.57-.56ZM12.13,10s0,0,0,0l.17.55a.83.83,0,0,0,.1.21c0,.05.1.07.19,0l0,0s0,0,.07,0,0,0,0,.07-.23.16-.32.24-.18.16-.34.28-.06,0-.07,0,0,0,0-.06l.09-.07c.12-.13.1-.27,0-.46l-.73-2.43c0-.11,0-.16,0-.18s.06,0,.14,0,1.62.92,2.16,1.22c.32.17.44.14.51.11l.14-.09s0,0,.05,0,0,0-.11.13-.32.26-.56.44c-.05,0-.09.07-.1,0s0,0,0-.05a.07.07,0,0,0,0-.09l-.73-.44s0,0,0,0Zm.48-.62s0,0,0,0l-.83-.52s0,0,0,0,0,0,0,0l.31.93s0,0,0,0Zm2,0c-.07,0-.09,0-.13-.07s-.21-.38-.23-.43,0-.09,0-.11.05,0,.06,0a.83.83,0,0,0,.13.14.52.52,0,0,0,.65.06.46.46,0,0,0,.21-.63C15.15,8.15,15,8,14.62,8l-.21,0c-.52-.07-.78-.22-.93-.48a.75.75,0,0,1,.38-1,1.68,1.68,0,0,1,.46-.2s.06,0,.07,0,.07.14.22.39c0,.08,0,.11,0,.12s-.05,0-.07,0a.43.43,0,0,0-.21-.16.49.49,0,0,0-.44,0,.4.4,0,0,0-.19.56c.09.15.23.22.62.26h.13c.56.07.83.21,1,.51a.76.76,0,0,1,0,.74,1.14,1.14,0,0,1-.43.44A1.32,1.32,0,0,1,14.56,9.3ZM34.09,6.58l-.49-.27c-.19-.1-.28-.13-.37-.09a.31.31,0,0,0-.12.09,0,0,0,0,1-.06,0s0,0,0-.07.27-.3.29-.33.06,0,.07,0,0,.07.12.12l.31.21L35.12,7a1.45,1.45,0,0,0,.23.11l.1,0s0,0,0,.08l-.23.37s0,.05-.06,0,0,0,0-.09l0,0c0-.08,0-.23-.28-.4l-.4-.25-.77,1.32a7.67,7.67,0,0,0-.39.7c0,.1-.07.18,0,.25l.16.11s0,0,0,.06,0,0-.08,0L33,9c-.07,0-.28-.16-.41-.23s-.06-.05,0-.07,0,0,.07,0l.13.06c.07,0,.13,0,.19-.13a6.53,6.53,0,0,0,.42-.67Zm1.68,2.13c.38-.43.44-.51.52-.61s.09-.16,0-.26l-.1-.11s0,0,0-.06,0,0,.09,0l.4.36.36.29s.06.06,0,.08,0,0-.07,0l-.09-.07c-.08,0-.15,0-.24.08s-.15.16-.52.59l-.34.4c-.36.41-.42.66-.38.89a.74.74,0,0,0,.25.42.73.73,0,0,0,.53.18c.29,0,.51-.27.77-.56l.3-.35.51-.61a.19.19,0,0,0,0-.27L37.7,9s0,0,0-.07,0,0,.08,0l.32.29.33.27s.05.06,0,.08,0,0-.08,0a.28.28,0,0,0-.09-.06c-.09,0-.15,0-.24.07l-.52.6-.26.3a1.4,1.4,0,0,1-1,.62,1.08,1.08,0,0,1-.76-.3,1.17,1.17,0,0,1-.46-.74,1.2,1.2,0,0,1,.39-1Zm2.84,2.67.61-.5c.1-.09.12-.15.07-.26l-.08-.12s0-.06,0-.07,0,0,.08,0l.31.41.34.4a1.17,1.17,0,0,1,.31.64.68.68,0,0,1-.24.52,1.07,1.07,0,0,1-1,.14c-.12.52-.22.93-.26,1.25a.76.76,0,0,0,.06.48.35.35,0,0,0,.06.09,0,0,0,0,1,0,.06s0,0-.07,0l-.22-.27a.83.83,0,0,1-.2-.36,1.92,1.92,0,0,1,.11-.74c.07-.25.16-.54.17-.62s0,0,0-.06l-.2-.26s0,0,0,0l0,0c-.27.21-.5.4-.62.51s-.12.15-.06.24l.1.16s0,0,0,0,0,0-.07,0-.3-.4-.34-.44-.2-.23-.29-.35,0-.06,0-.08,0,0,.06,0l.1.09s.13,0,.22,0a6.54,6.54,0,0,0,.64-.49Zm0,.53s0,0,0,.07a1.2,1.2,0,0,0,.15.24c.1.12.14.15.22.17a.67.67,0,0,0,.58-.18.59.59,0,0,0,.17-.87.52.52,0,0,0-.14-.15s0,0-.06,0Zm1.93,2.2.68-.41c.11-.07.14-.13.12-.21a.45.45,0,0,0-.06-.12s0-.06,0-.08,0,0,.07.07.19.33.24.42l.24.39s0,.07,0,.08,0,0-.07,0a.24.24,0,0,0-.06-.09c-.07-.08-.14-.07-.26,0l-.68.39-.57.34c-.31.18-.57.33-.7.43s-.12.11-.08.22l.08.17s0,.06,0,.07,0,0-.07-.05l-.29-.5c0-.08-.17-.28-.25-.4s0-.07,0-.09,0,0,0,0a.53.53,0,0,0,.09.11c0,.05.11,0,.21,0s.4-.22.71-.4Zm-.28,2.38a1.48,1.48,0,0,1,2-.83,1.6,1.6,0,0,1,.82.94,2.76,2.76,0,0,1,.17.51c0,.14.05.26.08.37s0,.06,0,.07l-.19.06-.38.15s-.08,0-.1,0,0-.05.07-.07a.57.57,0,0,0,.26-.27,1.15,1.15,0,0,0-.08-.79,1,1,0,0,0-.48-.56,1.28,1.28,0,0,0-1,.06,1.25,1.25,0,0,0-.78,1.59c.13.31.24.48.46.56a.65.65,0,0,0,.27,0c.06,0,.08,0,.09,0s0,.05,0,.06a4.19,4.19,0,0,1-.49.11.13.13,0,0,1-.14,0,2,2,0,0,1-.33-.59A1.86,1.86,0,0,1,40.31,16.49Zm2.47,2.8c.55-.12.65-.14.77-.18s.17-.07.17-.2a.93.93,0,0,0,0-.14s0-.07,0-.07,0,0,.05.07l.06.3a2.14,2.14,0,0,0,.05.23c0,.11.19.84.2.91l.06.15s0,0,0,.06l0,0a.87.87,0,0,0-.24,0l-.25,0a0,0,0,0,1,0,0s0,0,0-.05a.28.28,0,0,0,.12-.05c.06,0,.1-.09.08-.27s-.08-.45-.1-.52,0,0,0,0l-.93.21s0,0,0,0,.11.5.14.58a.27.27,0,0,0,.09.17s.06,0,.06,0,0,0,0,0l-.27,0-.25,0s-.07,0-.08,0,0,0,0,0a.55.55,0,0,0,.13,0c.06,0,.11-.09.09-.23s-.08-.43-.1-.52,0,0,0,0l-.28.07-.57.13c-.25.06-.29.13-.21.5a1.06,1.06,0,0,0,.12.34.33.33,0,0,0,.31.1S42,21,42,21s0,0-.06,0a2.87,2.87,0,0,1-.41.05c-.1,0-.11,0-.14-.18s-.1-.48-.13-.63-.05-.28-.08-.39a.71.71,0,0,0-.05-.2,1.53,1.53,0,0,0-.06-.25c0-.05,0-.08,0-.09s0,0,0,.06,0,.09.05.13.11.06.22.06.45-.09.78-.16Zm-.69,3.2c-.29,0-.39.07-.41.14a.71.71,0,0,0,0,.2s0,.06,0,.06,0,0,0-.08c0-.25,0-.4,0-.47s0-.2,0-.4,0-.08,0-.08,0,0,0,.06a1.1,1.1,0,0,0,0,.16c0,.1.14.11.47.1l2.21,0c.08,0,.13,0,.13,0s-.05.08-.11.15-.64.63-1.16,1.2c-.24.26-.77.78-.82.85v0L44,24.3c.23,0,.3-.05.34-.14a.67.67,0,0,0,0-.2s0-.06,0-.06,0,0,0,.1,0,.37,0,.45,0,.18,0,.37,0,.08,0,.08,0,0,0-.06a.41.41,0,0,0,0-.11c0-.11-.12-.14-.32-.13l-2.36,0c-.09,0-.12,0-.12,0a.23.23,0,0,1,.08-.13c.21-.25.68-.74,1.06-1.15s.84-.85.91-.92h0Zm-.5,3.45c0-.06,0-.07.13-.06l.48.09c.06,0,.1,0,.09.06s0,0-.06,0a.7.7,0,0,0-.2,0,.51.51,0,0,0-.45.47.46.46,0,0,0,.35.56.76.76,0,0,0,.65-.28l.15-.15a1.1,1.1,0,0,1,1-.42.76.76,0,0,1,.58.95,2.17,2.17,0,0,1-.14.49s0,0-.05,0a4.16,4.16,0,0,0-.44-.08c-.08,0-.11,0-.11,0s0,0,.08,0a.5.5,0,0,0,.25-.06.47.47,0,0,0,.24-.38.4.4,0,0,0-.31-.5c-.17,0-.32.05-.59.32l-.1.09c-.4.4-.68.53-1,.47a.73.73,0,0,1-.59-.44,1.08,1.08,0,0,1-.07-.61A1.19,1.19,0,0,1,41.59,25.94Zm1.11,3.17.77.21c.12,0,.2,0,.24-.07s0-.08,0-.12,0-.06.05-.05,0,0,0,.1l-.14.46c0,.09-.07.31-.11.44s0,.08-.05.07,0,0,0-.07,0-.06,0-.11,0-.15-.17-.19l-.76-.22L42,29.38c-.35-.1-.64-.18-.8-.21s-.17,0-.21.09l-.07.18s0,.06,0,0,0,0,0-.07l.17-.56a4.56,4.56,0,0,1,.12-.46s0-.07,0-.06,0,0,0,.07a.69.69,0,0,0,0,.13c0,.07,0,.11.15.15s.43.14.78.24Zm-2.2,1.32s.07-.05.15,0,.39.18.44.21.08.05.07.08,0,0-.07,0l-.19,0a.52.52,0,0,0-.56.34.46.46,0,0,0,.19.63.73.73,0,0,0,.7-.1l.19-.1a1.11,1.11,0,0,1,1-.16.76.76,0,0,1,.31,1.07,2,2,0,0,1-.26.44s0,0-.06,0-.14-.08-.41-.2c-.07,0-.09,0-.08-.08s0,0,.07,0a.5.5,0,0,0,.6-.3.39.39,0,0,0-.18-.56c-.16-.07-.31,0-.65.15l-.11.07a1.16,1.16,0,0,1-1.12.18.76.76,0,0,1-.46-.58,1.14,1.14,0,0,1,.1-.61A1.19,1.19,0,0,1,40.5,30.43ZM13.79,41.77l-.11,0c-.06,0-.07,0-.09-.18l-.19-1.25s0-.08-.07-.08-.05,0-.07.06l-.55,1.11-.54-1.1c0-.05-.05-.07-.08-.07s-.05,0-.06.07l-.21,1.32c0,.07,0,.14-.07.14h-.06s0,0,0,0,0,0,.06,0h.42s.07,0,.07,0,0,0,0,0h-.07s-.05,0-.05,0a.28.28,0,0,1,0-.09l.09-.75c.07.15.18.36.19.4l.24.46c0,.06.06.1.1.11s0,0,.1-.13l.43-.86.11.83v.07s0,0,0,0,0,0,.08,0h.43s.07,0,.07,0S13.81,41.77,13.79,41.77Zm1.71-1.25a1.13,1.13,0,0,0-.85-.23H14s-.06,0-.06,0,0,0,.05,0h.08c.06,0,.07,0,.08.09v.79c0,.18,0,.34,0,.42s0,.09-.05.1H14a0,0,0,0,0,0,0s0,0,.06,0h.26l.21,0h.25a1,1,0,0,0,.72-.25.79.79,0,0,0,.23-.57A.72.72,0,0,0,15.5,40.52Zm-.13.59a.58.58,0,0,1-.17.48.62.62,0,0,1-.45.14.39.39,0,0,1-.26-.07.46.46,0,0,1,0-.14s0-.19,0-.41v-.25c0-.16,0-.33,0-.4s0,0,0,0l.12,0a.87.87,0,0,1,.58.19A.65.65,0,0,1,15.37,41.11Zm2,.32s0,0,0,.06a.56.56,0,0,1-.07.13c-.08.08-.17.1-.36.1a.66.66,0,0,1-.63-.7.63.63,0,0,1,.18-.51.55.55,0,0,1,.39-.11.6.6,0,0,1,.39.11.33.33,0,0,1,.08.18s0,.06,0,.06,0,0,0-.07a1.62,1.62,0,0,1,0-.21.84.84,0,0,1,0-.12,0,0,0,0,0-.05,0l-.21,0-.31,0a.93.93,0,0,0-.67.22.79.79,0,0,0,0,1.17,1.05,1.05,0,0,0,.73.23,1.09,1.09,0,0,0,.38-.05.08.08,0,0,0,.07-.07,2,2,0,0,0,0-.27A.05.05,0,0,0,17.35,41.43Zm1.68,0s0,0,0,.06a.56.56,0,0,1-.07.13c-.08.08-.17.1-.36.1a.67.67,0,0,1-.64-.7.64.64,0,0,1,.19-.51.54.54,0,0,1,.39-.11.6.6,0,0,1,.39.11.26.26,0,0,1,.07.18s0,.06,0,.06.05,0,.05-.07a1.62,1.62,0,0,1,0-.21.84.84,0,0,1,0-.12,0,0,0,0,0-.05,0l-.21,0-.31,0a.93.93,0,0,0-.67.22.73.73,0,0,0-.25.56.75.75,0,0,0,.26.61,1.08,1.08,0,0,0,.73.23,1.12,1.12,0,0,0,.39-.05.07.07,0,0,0,.06-.07,1.21,1.21,0,0,0,.05-.27A.05.05,0,0,0,19,41.43Zm1.68,0s0,0-.05.06a.3.3,0,0,1-.06.13.46.46,0,0,1-.36.1.66.66,0,0,1-.64-.7.64.64,0,0,1,.19-.51.52.52,0,0,1,.38-.11.64.64,0,0,1,.4.11.26.26,0,0,1,.07.18s0,.06,0,.06,0,0,.05-.07v-.21a.83.83,0,0,0,0-.12,0,0,0,0,0,0,0l-.21,0-.31,0a1,1,0,0,0-.68.22.77.77,0,0,0-.25.56.76.76,0,0,0,.27.61,1.07,1.07,0,0,0,.73.23,1.12,1.12,0,0,0,.39-.05.09.09,0,0,0,.06-.07,2.33,2.33,0,0,0,.05-.27A.05.05,0,0,0,20.71,41.43Zm8.09.34h-.07a.19.19,0,0,1-.11-.07c-.05-.06-.38-.58-.46-.71l.34-.46c.07-.09.11-.14.14-.15h.08a.05.05,0,0,0,.05,0s0,0-.06,0h-.42s-.06,0-.07,0a.05.05,0,0,0,.05,0h.06s0,0,0,0a.11.11,0,0,1,0,.07l-.27.4-.24-.42a.08.08,0,0,1,0,0,0,0,0,0,1,0,0h.05s.05,0,.05,0,0,0-.06,0h-.56s-.05,0-.06,0a0,0,0,0,0,0,0h.09a.4.4,0,0,1,.16.14l.36.57-.4.54c-.08.1-.11.13-.16.14h-.07a0,0,0,0,0-.05,0s0,0,.05,0h.45s.06,0,.06,0,0,0,0,0h0l0,0h0a.17.17,0,0,1,0-.07l.29-.45.32.52h0a.07.07,0,0,0,0,.05s0,0,.09,0h.45a.06.06,0,0,0,.06,0S28.82,41.77,28.8,41.77Zm1.78,0h-.07a.16.16,0,0,1-.11-.07c0-.06-.38-.58-.46-.71l.34-.46c.06-.09.1-.14.14-.15h.07s.05,0,.05,0,0,0-.05,0h-.43s-.06,0-.06,0a0,0,0,0,0,0,0h.09a.25.25,0,0,1,0,.07l-.27.4-.25-.42,0,0h.07s.05,0,.05,0,0,0-.06,0h-.56s-.05,0-.06,0a0,0,0,0,0,0,0h.08a.31.31,0,0,1,.16.14l.37.57-.41.54c-.07.1-.1.13-.15.14H29a0,0,0,0,0,0,0s0,0,.05,0h.45s.06,0,.06,0,0,0,0,0h-.05l0,0h0l0-.07.3-.45.31.52h0a.05.05,0,0,0,0,.05s0,0,.09,0h.45s.05,0,.05,0A0,0,0,0,0,30.58,41.77Zm1.78,0h-.08a.17.17,0,0,1-.1-.07c0-.06-.38-.58-.46-.71l.34-.46c.06-.09.1-.14.14-.15h.07s0,0,0,0,0,0,0,0h-.43s-.06,0-.06,0a0,0,0,0,0,0,0h.09a.25.25,0,0,1,0,.07l-.27.4-.25-.42,0,0s0,0,0,0h0s.05,0,.05,0,0,0-.06,0h-.55s-.06,0-.06,0a0,0,0,0,0,0,0h.08a.31.31,0,0,1,.16.14l.36.57-.4.54c-.07.1-.1.13-.16.14H30.8a0,0,0,0,0,0,0,0,0,0,0,0,0,0h.46a.05.05,0,0,0,.06,0,.1.1,0,0,0-.05,0h0s0,0,0,0h0a.17.17,0,0,1,0-.07l.3-.45.31.52h0a.07.07,0,0,0,0,.05s0,0,.09,0h.45s.06,0,.06,0A0,0,0,0,0,32.36,41.77Zm1.09,0h-.1c-.06,0-.06,0-.07-.08s0-.25,0-.44v-.79c0-.07,0-.08.07-.09h.06s.05,0,.05,0,0,0-.06,0h-.55s-.06,0-.07,0,0,0,0,0h.07s.06,0,.06.09a3.17,3.17,0,0,1,0,.43v.36c0,.19,0,.35,0,.43s0,.08-.05.09h-.07a0,0,0,0,0,0,0s0,0,0,0h.62s0,0,0,0A0,0,0,0,0,33.45,41.77Zm1.27,0h-.1c-.06,0-.06,0-.07-.08s0-.25,0-.44v-.36a3.17,3.17,0,0,1,0-.43c0-.07,0-.08.06-.09h.06s0,0,0,0,0,0-.06,0h-.55s-.06,0-.07,0,0,0,.05,0h.07s.06,0,.06.09a3.17,3.17,0,0,1,0,.43v.36c0,.19,0,.35,0,.43s0,.08,0,.09H34.1a0,0,0,0,0-.05,0s0,0,.06,0h.61s.05,0,.05,0A0,0,0,0,0,34.72,41.77Zm1.28,0h-.11s-.06,0-.07-.08,0-.25,0-.44v-.36a3.17,3.17,0,0,1,0-.43c0-.07,0-.08.06-.09h.06s.05,0,.05,0,0,0-.06,0h-.55s-.06,0-.07,0,0,0,0,0h.08s.05,0,.05.09a3.17,3.17,0,0,1,0,.43v.36c0,.19,0,.35,0,.43s0,.08-.05.09h-.07a0,0,0,0,0,0,0s0,0,.06,0H36a.06.06,0,0,0,.06,0S36,41.77,36,41.77ZM23.41,32V30.79a.41.41,0,1,0-.81,0V32Zm2.17,0V30.79a.4.4,0,1,0-.8,0V32ZM24.09,8.08a.42.42,0,1,0,0,.84.42.42,0,1,0,0-.84Zm-.21,11.77h.42v-.91h-.42v.91Zm-4,23.09a.43.43,0,1,0,.42.42A.42.42,0,0,0,19.84,42.94Zm-.26-23.07V18.52a.64.64,0,0,0-.39-.63.65.65,0,0,0-.38.63v1.35Zm0-4.32v-.87a.65.65,0,0,0-.39-.64.66.66,0,0,0-.38.64v.87Zm-.18,9V23.41a.21.21,0,0,0-.21-.21.22.22,0,0,0-.21.21v1.13Zm0,3.39V26.8a.21.21,0,0,0-.21-.21.22.22,0,0,0-.21.21v1.13Zm.13,3.79v-1a.34.34,0,0,0-.34-.34.34.34,0,0,0-.34.34v1ZM19.19,3.41a.42.42,0,1,0,.43.42A.42.42,0,0,0,19.19,3.41ZM29.38,19.87V18.52a.67.67,0,0,0-.39-.63.64.64,0,0,0-.39.63v1.35Zm0-4.32v-.87A.68.68,0,0,0,29,14a.65.65,0,0,0-.39.64v.87Zm-.19,9V23.41a.21.21,0,1,0-.41,0v1.13Zm0,3.39V26.8a.21.21,0,1,0-.41,0v1.13Zm.13,3.79v-1a.34.34,0,1,0-.68,0v1ZM29,3.41a.42.42,0,1,0,.42.42A.42.42,0,0,0,29,3.41Zm31.12,18c-3.84,0-4.7-2.09-4.7-4.41V9h2.34v7.8c0,1.53.5,2.61,2.52,2.61,1.8,0,2.56-.75,2.56-2.82V9h2.32v7.44C65.15,19.77,63.32,21.36,60.11,21.36Zm13-.2V15.43c0-.94-.26-1.49-1.1-1.49-1.18,0-2.09,1.33-2.09,2.9v4.32H67.66V12.21h2.18a9.89,9.89,0,0,1-.13,1.58l0,0a3.28,3.28,0,0,1,3-1.8c2,0,2.66,1.3,2.66,2.86v6.29ZM79.1,11.05a1.4,1.4,0,1,1,1.44-1.4A1.43,1.43,0,0,1,79.1,11.05ZM78,21.16V12.21h2.3v9Zm9.26,0H84.87l-3.32-8.95h2.53l1.42,4c.21.62.43,1.34.59,2h0a17.7,17.7,0,0,1,.54-1.91l1.44-4.1h2.45ZM98.8,17.05H93.25a2.17,2.17,0,0,0,2.46,2.49A6.45,6.45,0,0,0,98.33,19l.21,1.79a9,9,0,0,1-3.2.57c-2.85,0-4.44-1.42-4.44-4.57C90.9,14,92.42,12,95.1,12s3.77,1.78,3.77,4A8.12,8.12,0,0,1,98.8,17.05ZM95,13.7a1.8,1.8,0,0,0-1.75,1.79h3.3A1.53,1.53,0,0,0,95,13.7Zm10.56.58c-1.66-.34-2.49.74-2.49,3.22v3.66h-2.3V12.21H103a11.71,11.71,0,0,1-.17,1.8h0a2.71,2.71,0,0,1,2.85-2Zm3.15,7.06a12.29,12.29,0,0,1-1.87-.16l0-1.89a8.17,8.17,0,0,0,1.93.27c.88,0,1.46-.36,1.46-1,0-1.58-3.62-.68-3.62-3.73,0-1.56,1.28-2.86,3.8-2.86a10.34,10.34,0,0,1,1.64.16L112.06,14a6.46,6.46,0,0,0-1.66-.23c-.9,0-1.33.36-1.33.91,0,1.46,3.67.82,3.67,3.72C112.74,20.15,111.19,21.34,108.74,21.34Zm7.12-10.29a1.4,1.4,0,1,1,1.44-1.4A1.43,1.43,0,0,1,115.86,11.05Zm-1.15,10.11V12.21H117v9Zm8.14.18c-2,0-2.61-.72-2.61-2.81V14h-1.53V12.21h1.53V9.45l2.3-.61v3.37h2.18V14h-2.18v3.93c0,1.15.27,1.48,1.07,1.48a4.32,4.32,0,0,0,1.11-.15v1.86A8.11,8.11,0,0,1,122.85,21.34Zm8.88-.18a10.48,10.48,0,0,1,.09-1.51l0,0a3,3,0,0,1-2.86,1.71A2.28,2.28,0,0,1,126.38,19c0-2.14,2.13-3.28,5.17-3.28v-.48c0-.94-.45-1.43-1.75-1.43a5.92,5.92,0,0,0-2.65.7L127,12.57a9.61,9.61,0,0,1,3.2-.56c2.89,0,3.7,1.17,3.7,3.12v3.73c0,.72,0,1.56,0,2.3Zm-3.17-10.43a1.24,1.24,0,0,1-1.24-1.25,1.24,1.24,0,0,1,2.48,0A1.24,1.24,0,0,1,128.56,10.73Zm3,6.47c-2.43,0-3,.7-3,1.42a.94.94,0,0,0,1.06,1,2.06,2.06,0,0,0,1.91-2.17Zm.65-6.47A1.25,1.25,0,0,1,131,9.48a1.24,1.24,0,0,1,2.48,0A1.25,1.25,0,0,1,132.2,10.73Zm7.35,10.61c-2,0-2.61-.72-2.61-2.81V14h-1.53V12.21h1.53V9.45l2.3-.61v3.37h2.18V14h-2.18v3.93c0,1.15.27,1.48,1.07,1.48a4.32,4.32,0,0,0,1.11-.15v1.86A8.11,8.11,0,0,1,139.55,21.34ZM55,40.2V38.4l4.37-7.14c.26-.41.51-.77.8-1.15-.44,0-1,0-2.22,0H55.1V28H63v1.87l-4.64,7.32c-.18.29-.34.56-.55.85.3,0,1.13,0,2.63,0H63V40.2Zm15.52,0a9.7,9.7,0,0,1,.11-1.58l0,0a3.24,3.24,0,0,1-3,1.8c-2,0-2.67-1.3-2.67-2.86V31.25h2.29V37c0,.93.25,1.49,1.12,1.49,1.17,0,2.07-1.33,2.07-2.9V31.25h2.31v9ZM66.83,29.77a1.25,1.25,0,0,1-1.25-1.25,1.25,1.25,0,0,1,2.49,0A1.25,1.25,0,0,1,66.83,29.77Zm3.64,0a1.25,1.25,0,0,1-1.25-1.25,1.25,1.25,0,0,1,2.49,0A1.25,1.25,0,0,1,70.47,29.77Zm9.46,3.55c-1.66-.34-2.49.74-2.49,3.22V40.2H75.13v-9h2.18a11.57,11.57,0,0,1-.16,1.8h0a2.7,2.7,0,0,1,2.84-2Zm2.92-3.23a1.4,1.4,0,1,1,1.44-1.4A1.41,1.41,0,0,1,82.85,30.09ZM81.7,40.2v-9H84v9Zm8,.16c-2.49,0-4-1.29-4-4.34,0-2.79,1.46-4.94,4.63-4.94a6.6,6.6,0,0,1,1.84.26l-.23,2A4.77,4.77,0,0,0,90.31,33c-1.46,0-2.2,1.08-2.2,2.78,0,1.53.59,2.57,2.12,2.57A4.06,4.06,0,0,0,92,38l.18,2A7.26,7.26,0,0,1,89.73,40.36Zm9.75-.16V34.47c0-.94-.25-1.49-1.1-1.49-1.17,0-2.09,1.33-2.09,2.9V40.2H94V27.05h2.31v3.84a9.26,9.26,0,0,1-.16,1.82h0a3.15,3.15,0,0,1,2.94-1.67c2,0,2.67,1.3,2.67,2.86V40.2Zm5.85-8.48c-1.46,0-1.81-.79-1.81-1.71V27h1.06V30c0,.54.17.88.82.88s.83-.26.83-.94V27h1v2.79A1.72,1.72,0,0,1,105.33,31.72Zm2.83-.09V30.8l1.48-2.47a2.71,2.71,0,0,1,.24-.35h-1.67V27h3v.86l-1.56,2.5a1.92,1.92,0,0,1-.17.26h1.76v1Zm6.76,0V29.72h-1.68v1.91h-1.06V27h1.06V28.8h1.68V27H116v4.59ZM0,24.09A24.1,24.1,0,0,1,24.09,0h0A24.09,24.09,0,0,1,48.18,24.09h0A24.08,24.08,0,0,1,24.09,48.18h0A24.09,24.09,0,0,1,0,24.09ZM7.48,7.48A23.37,23.37,0,0,0,.6,24.09h0A23.41,23.41,0,0,0,7.48,40.71h0a23.41,23.41,0,0,0,16.61,6.88h0a23.45,23.45,0,0,0,16.62-6.88h0a23.45,23.45,0,0,0,6.88-16.62h0A23.41,23.41,0,0,0,40.71,7.48h0A23.42,23.42,0,0,0,24.09.59h0A23.38,23.38,0,0,0,7.48,7.48Zm17,31.75h.19v-.34h-.46v.76h.27ZM24.09,1.57A22.52,22.52,0,1,0,46.61,24.08,22.52,22.52,0,0,0,24.09,1.57ZM21.6,43.19h-1v.34h1v2.53A22,22,0,0,1,8.45,39.72,20.73,20.73,0,0,1,7,38.17a1.15,1.15,0,0,1,2.29.19v1.11H10.8v-1.1a1.16,1.16,0,0,1,2.32,0v1.11h1.46v-1.1a1.16,1.16,0,0,1,2.32,0v1.11h1.46v-1.1a1.16,1.16,0,0,1,2.32,0v1.11h.92Zm4.19,3c-.56,0-1.13.06-1.7.06s-1.14,0-1.7-.06L22,43.53h.48l-.41-1c-.12-.33,0-.54.19-.62a.39.39,0,0,1,.52.31L23,43h.31v.51h0v.1h-.73V44h1.07v-.44H24.9V43h.31l.22-.79a.39.39,0,0,1,.52-.31c.22.08.32.29.19.62,0,.09-.09.24-.16.4l-.28.69h-.78V44h1l.19-.44h.1Zm-2.4-7.46h1.4c.06.13.19.46.27.65s.13.27,0,.41a.3.3,0,0,1-.34.14h0a.68.68,0,0,1-.65.46.69.69,0,0,1-.65-.46h0a.3.3,0,0,1-.34-.14c-.09-.14,0-.28,0-.41Zm-.21-1.45.45.64.46-.87.45.87.45-.64-.18,1.11H23.36Zm.54,3.15a.75.75,0,0,0,.71.5.77.77,0,0,0,.74-.58,1.09,1.09,0,0,1,.66.26,1.15,1.15,0,0,1,.32.63H22a1.17,1.17,0,0,1,.33-.63A1.46,1.46,0,0,1,23.72,40.38Zm1.69,1.15a1.35,1.35,0,0,1-1.32,1,1.37,1.37,0,0,1-1.32-1Zm14.32-1.81a22,22,0,0,1-13.14,6.34V43.53h.93a29.67,29.67,0,0,0,3-.14,21.59,21.59,0,0,0-3-.2h-.93V39.47H27.7v-1.1a1.16,1.16,0,0,1,2.32,0v1.11h1.46v-1.1a1.16,1.16,0,0,1,2.32,0v1.11h1.46v-1.1a1.16,1.16,0,0,1,2.32,0v1.11H39v-1.1A1.16,1.16,0,0,1,40.2,37.2a1.15,1.15,0,0,1,1.09.78A21.5,21.5,0,0,1,39.73,39.72Zm1.81-2a1.6,1.6,0,0,0-3,.69v.52h-.57v-.52a1.61,1.61,0,0,0-3.21,0v.52h-.58v-.52a1.6,1.6,0,0,0-3.2,0v.52h-.58v-.52a1.6,1.6,0,0,0-3.2,0v.52h-.6a2.49,2.49,0,0,0-4.92,0H21v-.52a1.6,1.6,0,0,0-3.2,0v.52h-.58v-.52a1.6,1.6,0,1,0-3.2,0v.52h-.58v-.52a1.6,1.6,0,0,0-3.2,0v.52H9.67v-.52a1.59,1.59,0,0,0-1.6-1.6,1.61,1.61,0,0,0-1.44.9c-.39-.5-.76-1-1.1-1.55H42.66C42.31,36.64,41.93,37.17,41.54,37.67ZM43,35.51H5.16c-.12-.18-.22-.36-.33-.55H43.35ZM20.28,7.09v.18a1.13,1.13,0,0,1,0,.15A2.13,2.13,0,0,1,20,7.8a3.06,3.06,0,0,0-.18.34,1.77,1.77,0,0,0-.25-.32l-.23-.25a.66.66,0,0,1-.16-.3h0a.64.64,0,0,1-.17.3c-.07.09-.16.18-.22.25a1.77,1.77,0,0,0-.25.32c-.08-.16-.16-.27-.2-.34a2.7,2.7,0,0,1-.21-.38.77.77,0,0,1,0-.19V7.09Zm-2.17-.34a2.34,2.34,0,0,1,.36-1.17A2.45,2.45,0,0,1,19,5L19.19,5l.16.09a2.27,2.27,0,0,1,.56.54,2.24,2.24,0,0,1,.36,1.17ZM20.35,8a1.65,1.65,0,0,1,.2.36,1.78,1.78,0,0,1,.12.63v2.49H20V9a1.58,1.58,0,0,1,.13-.63A1.85,1.85,0,0,1,20.35,8Zm-.67,1v2.48h-1V9a1.4,1.4,0,0,1,.13-.61A1.1,1.1,0,0,1,19.2,8h0a1,1,0,0,1,.34.39A1.46,1.46,0,0,1,19.68,9Zm-1.44-.65a1.59,1.59,0,0,1,.11.64v2.49h-.64V9a1.86,1.86,0,0,1,.12-.63A3.29,3.29,0,0,1,18,8,1.62,1.62,0,0,1,18.24,8.34Zm2.92,3.54v.8H17.22v-.8Zm0,1.14v3.14h-.95V14.75a1.53,1.53,0,0,0-.46-1.14,1.57,1.57,0,0,0-.54-.33h0a1.57,1.57,0,0,0-.54.33,1.53,1.53,0,0,0-.46,1.14v1.41h-1V13Zm-1.29,1.73v1.41H18.52V14.75a1.12,1.12,0,0,1,.67-1.1A1.12,1.12,0,0,1,19.87,14.75Zm1.29,1.75v4h-.87v-2a1.59,1.59,0,0,0-.47-1.15,1.74,1.74,0,0,0-.55-.34l-.08,0-.06,0a1.53,1.53,0,0,0-.56.34,1.59,1.59,0,0,0-.47,1.15v2h-.88v-4Zm-1.21,2v2H18.44v-2a1.23,1.23,0,0,1,.37-.91,1.36,1.36,0,0,1,.38-.24h0a1.36,1.36,0,0,1,.38.24,1.23,1.23,0,0,1,.37.91Zm1.21,2.33v4.75H17.22V20.84Zm0,5.09V29H17.22V25.93Zm0,3.45v5.24H17.22V29.38Zm3.47-12.84V18l-.54-.54-.54.54V16.54Zm-1.06-.41.39-1.7.17-2.83.09,2.83.4,1.7ZM24.09,18,26.6,20.5h-5Zm2.51,2.85v1.92h-5V20.84Zm0,2.51v2.24H25V25a.94.94,0,0,0-1.87,0v.56H21.57V23.35Zm-3.44,2.58v2H25v-2H26.6V29h-5V25.93Zm3.44,3.45v5.24h-5V29.38ZM30.07,7.09v.18a1.13,1.13,0,0,1,0,.15,2.7,2.7,0,0,1-.21.38c0,.07-.11.18-.19.34a1.77,1.77,0,0,0-.25-.32l-.23-.25a.66.66,0,0,1-.16-.3h0a.66.66,0,0,1-.16.3l-.23.25a1.77,1.77,0,0,0-.25.32c-.08-.16-.15-.27-.19-.34a2.13,2.13,0,0,1-.22-.38.77.77,0,0,1,0-.19V7.09ZM27.9,6.75a2.34,2.34,0,0,1,.36-1.17A2.45,2.45,0,0,1,28.82,5L29,5l.17.09a2.45,2.45,0,0,1,.55.54,2.24,2.24,0,0,1,.36,1.17ZM30.15,8a2.29,2.29,0,0,1,.19.36,1.58,1.58,0,0,1,.12.63v2.49h-.64V9A2,2,0,0,1,30,8.35,1.77,1.77,0,0,1,30.15,8Zm-.68,1v2.48h-1V9a1.43,1.43,0,0,1,.14-.61A1,1,0,0,1,29,8h0a1,1,0,0,1,.34.39A1.2,1.2,0,0,1,29.47,9ZM28,8.34a2,2,0,0,1,.11.64v2.49h-.64V9a2.14,2.14,0,0,1,.12-.63,2.05,2.05,0,0,1,.2-.35A2.15,2.15,0,0,1,28,8.34ZM31,11.88v.8H27v-.8ZM31,13v3.14H30V14.75a1.53,1.53,0,0,0-.46-1.14,1.57,1.57,0,0,0-.54-.33h0a1.57,1.57,0,0,0-.54.33A1.53,1.53,0,0,0,28,14.75v1.41H27V13Zm-1.3,1.73v1.41H28.31V14.75a1.13,1.13,0,0,1,.68-1.1A1.12,1.12,0,0,1,29.66,14.75ZM31,16.5v4h-.88v-2a1.59,1.59,0,0,0-.47-1.15,1.64,1.64,0,0,0-.55-.34L29,17l-.07,0a1.53,1.53,0,0,0-.56.34,1.59,1.59,0,0,0-.47,1.15v2H27v-4Zm-1.22,2v2H28.23v-2a1.23,1.23,0,0,1,.37-.91,1.28,1.28,0,0,1,.39-.24h0a1.41,1.41,0,0,1,.39.24,1.26,1.26,0,0,1,.36.91ZM31,20.84v4.75H27V20.84Zm0,5.09V29H27V25.93Zm0,3.45v5.24H27V29.38Zm.6,5.24V11.47h-.5V8.92a1.9,1.9,0,0,0-.19-.85,1.34,1.34,0,0,0-.14-.26V6.89a3.06,3.06,0,0,0-.3-1.27,2.69,2.69,0,0,0-1.26-1L29,4.52,29,4.5l-.07,0a2.23,2.23,0,0,0-1,.81,2.91,2.91,0,0,0-.45,1.57v.9c0,.09-.13.21-.22.4A2.45,2.45,0,0,0,27.1,9v2.46h-.5v8.45l-1.37-1.37V16.14l-.46-1.55-.68-5.35h0l-.5,5.12-.47,1.78v2.24l-1.35,1.35V11.47h-.5V8.92a1.9,1.9,0,0,0-.19-.85,2.26,2.26,0,0,0-.14-.26V6.89a3.06,3.06,0,0,0-.3-1.27,2.66,2.66,0,0,0-1.27-1l-.12-.05-.05,0-.07,0a2.17,2.17,0,0,0-1,.81,2.82,2.82,0,0,0-.45,1.57v.9A2,2,0,0,0,17.31,9v2.46h-.5V34.62H4.65A22.11,22.11,0,0,1,24.09,2,22.12,22.12,0,0,1,43.54,34.62Z"/><line class="cls-1" x1="153.64" y1="9.01" x2="153.64" y2="40.21"/></g><g id="ETH_Logo" data-name="ETH Logo"><path class="cls-2" d="M253.35,29.29c-.81,4-3.91,4.22-4.52,4.22a2.53,2.53,0,0,1-2.8-2.7,9.27,9.27,0,0,1,.15-1.44l1.92-9.56v0h-2.27l-2,9.81,0,.14a7.29,7.29,0,0,0-.16,1.4A4.13,4.13,0,0,0,248,35.53a5.83,5.83,0,0,0,4.51-1.84l-.3,1.61v0h2.24l3.09-15.53v0h-2.29Z"/><path class="cls-2" d="M268.81,19.58a5.31,5.31,0,0,0-4.28,2l.35-1.75v0h-2.24L259.56,35.3v0h2.27l1.89-9.53a4.88,4.88,0,0,1,4.47-4.21,2.58,2.58,0,0,1,2.17,1.08l0,0,1.84-1.65,0,0A4.23,4.23,0,0,0,268.81,19.58Z"/><polygon class="cls-2" points="231.32 21.75 231.32 21.79 239.05 21.79 228.75 33.43 228.75 33.44 228.36 35.34 239.34 35.34 239.73 33.32 231.52 33.32 241.85 21.68 241.86 21.67 242.25 19.77 231.71 19.77 231.32 21.75"/><polygon class="cls-2" points="272.5 35.3 272.5 35.34 274.76 35.34 277.86 19.77 275.63 19.77 272.5 35.3"/><path class="cls-2" d="M303.25,19.58a5.78,5.78,0,0,0-4.44,1.75l1.75-8.67H298.3l-4.56,22.68H296l1.89-9.53c.81-4,3.94-4.21,4.56-4.21a2.52,2.52,0,0,1,2.77,2.7,8.3,8.3,0,0,1-.16,1.44l-1.92,9.6h2.26l2-9.81a7.6,7.6,0,0,0,.16-1.55A4.13,4.13,0,0,0,303.25,19.58Z"/><path class="cls-2" d="M288.21,19.58c-4.11,0-7,2.9-7.92,8a14,14,0,0,0-.22,2.4c0,3.45,2.09,5.6,5.47,5.6a7.24,7.24,0,0,0,5.18-2.18l0,0-1.31-1.6,0,0,0,0a4.79,4.79,0,0,1-3.72,1.78c-1.61,0-3.33-1-3.33-3.64a12.6,12.6,0,0,1,.24-2.33,8.94,8.94,0,0,1,2-4.44A4.59,4.59,0,0,1,288,21.6a3.27,3.27,0,0,1,3,1.71l0,0,1.66-1.4,0,0v0A5.07,5.07,0,0,0,288.21,19.58Z"/><polygon class="cls-2" points="276.47 15.5 278.74 15.5 279.31 12.66 277.04 12.66 276.47 15.5"/><polygon class="cls-2" points="254.42 15.5 256.7 15.5 257.26 12.66 255 12.66 254.42 15.5"/><polygon class="cls-2" points="248.38 15.5 250.65 15.5 251.21 12.66 248.95 12.66 248.38 15.5"/><polygon class="cls-2" points="218.08 21.45 212.98 21.45 214.77 12.66 171.41 12.66 166.85 35.34 184.15 35.34 185.28 29.67 175.07 29.67 175.69 26.55 185.89 26.55 186.92 21.45 176.71 21.45 177.33 18.33 193.51 18.33 190.09 35.34 197.18 35.34 200.6 18.33 206.55 18.33 203.13 35.34 210.22 35.34 211.97 26.55 217.07 26.55 215.32 35.34 222.41 35.34 226.96 12.66 219.88 12.66 218.08 21.45"/></g></svg>